<ttFont>
    <TTGlyph name=".notdef" xMin="36" yMin="0" xMax="622" yMax="660">
      <contour>
        <pt x="166" y="660" on="1"/>
        <pt x="622" y="660" on="1"/>
        <pt x="492" y="0" on="1"/>
        <pt x="36" y="0" on="1"/>
      </contour>
      <contour>
        <pt x="214" y="575" on="1"/>
        <pt x="120" y="105" on="1"/>
        <pt x="289" y="340" on="1"/>
      </contour>
      <contour>
        <pt x="450" y="105" on="1"/>
        <pt x="546" y="575" on="1"/>
        <pt x="375" y="340" on="1"/>
      </contour>
      <contour>
        <pt x="150" y="56" on="1"/>
        <pt x="399" y="56" on="1"/>
        <pt x="355" y="192" on="1"/>
        <pt x="324" y="293" on="1"/>
        <pt x="320" y="293" on="1"/>
        <pt x="249" y="192" on="1"/>
      </contour>
      <contour>
        <pt x="409" y="477" on="1"/>
        <pt x="499" y="604" on="1"/>
        <pt x="270" y="604" on="1"/>
        <pt x="310" y="477" on="1"/>
        <pt x="338" y="384" on="1"/>
        <pt x="342" y="384" on="1"/>
      </contour>
    </TTGlyph>
    <TTGlyph name="A" xMin="-53" yMin="0" xMax="469" yMax="656">
      <contour>
        <pt x="364" y="265" on="1"/>
        <pt x="354" y="377" on="1"/>
        <pt x="349" y="429" on="0"/>
        <pt x="340" y="534" on="0"/>
        <pt x="336" y="591" on="1"/>
        <pt x="332" y="591" on="1"/>
        <pt x="306" y="534" on="0"/>
        <pt x="255" y="431" on="0"/>
        <pt x="227" y="377" on="1"/>
        <pt x="169" y="265" on="1"/>
      </contour>
      <contour>
        <pt x="370" y="205" on="1"/>
        <pt x="138" y="205" on="1"/>
        <pt x="33" y="0" on="1"/>
        <pt x="-53" y="0" on="1"/>
        <pt x="303" y="656" on="1"/>
        <pt x="393" y="656" on="1"/>
        <pt x="469" y="0" on="1"/>
        <pt x="388" y="0" on="1"/>
      </contour>
    </TTGlyph>
    <TTGlyph name="AE" xMin="-33" yMin="0" xMax="828" yMax="656">
      <contour>
        <pt x="465" y="597" on="1"/>
        <pt x="462" y="597" on="1"/>
        <pt x="424" y="541" on="0"/>
        <pt x="351" y="435" on="0"/>
        <pt x="313" y="380" on="1"/>
        <pt x="229" y="256" on="1"/>
        <pt x="397" y="256" on="1"/>
      </contour>
      <contour>
        <pt x="541" y="591" on="1"/>
        <pt x="499" y="378" on="1"/>
        <pt x="728" y="378" on="1"/>
        <pt x="715" y="312" on="1"/>
        <pt x="487" y="312" on="1"/>
        <pt x="436" y="66" on="1"/>
        <pt x="718" y="66" on="1"/>
        <pt x="705" y="0" on="1"/>
        <pt x="346" y="0" on="1"/>
        <pt x="385" y="194" on="1"/>
        <pt x="187" y="194" on="1"/>
        <pt x="56" y="0" on="1"/>
        <pt x="-33" y="0" on="1"/>
        <pt x="426" y="656" on="1"/>
        <pt x="828" y="656" on="1"/>
        <pt x="814" y="591" on="1"/>
      </contour>
    </TTGlyph>
    <TTGlyph name="Aacute" xMin="-53" yMin="0" xMax="488" yMax="816">
      <component glyphName="A" x="0" y="0" flags="0x204"/>
      <component glyphName="uni0301.cap" x="221" y="0" flags="0x4"/>
    </TTGlyph>
    <TTGlyph name="Abreve" xMin="-53" yMin="0" xMax="481" yMax="816">
      <component glyphName="A" x="0" y="0" flags="0x204"/>
      <component glyphName="uni0306.cap" x="221" y="0" flags="0x4"/>
    </TTGlyph>
    <TTGlyph name="Acircumflex" xMin="-53" yMin="0" xMax="472" yMax="816">
      <component glyphName="A" x="0" y="0" flags="0x204"/>
      <component glyphName="uni0302.cap" x="221" y="0" flags="0x4"/>
    </TTGlyph>
    <TTGlyph name="Adieresis" xMin="-53" yMin="0" xMax="483" yMax="810">
      <component glyphName="A" x="0" y="0" flags="0x204"/>
      <component glyphName="uni0308.cap" x="221" y="0" flags="0x4"/>
    </TTGlyph>
    <TTGlyph name="Agrave" xMin="-53" yMin="0" xMax="469" yMax="816">
      <component glyphName="A" x="0" y="0" flags="0x204"/>
      <component glyphName="uni0300.cap" x="221" y="0" flags="0x4"/>
    </TTGlyph>
    <TTGlyph name="Amacron" xMin="-53" yMin="0" xMax="477" yMax="783">
      <component glyphName="A" x="0" y="0" flags="0x204"/>
      <component glyphName="uni0304.cap" x="221" y="0" flags="0x4"/>
    </TTGlyph>
    <TTGlyph name="Aogonek" xMin="-53" yMin="-211" xMax="469" yMax="656">
      <contour>
        <pt x="364" y="265" on="1"/>
        <pt x="354" y="377" on="1"/>
        <pt x="349" y="429" on="0"/>
        <pt x="340" y="534" on="0"/>
        <pt x="336" y="591" on="1"/>
        <pt x="332" y="591" on="1"/>
        <pt x="306" y="534" on="0"/>
        <pt x="255" y="431" on="0"/>
        <pt x="227" y="377" on="1"/>
        <pt x="169" y="265" on="1"/>
      </contour>
      <contour>
        <pt x="469" y="0" on="1"/>
        <pt x="421" y="-27" on="0"/>
        <pt x="371" y="-90" on="0"/>
        <pt x="371" y="-119" on="1"/>
        <pt x="371" y="-137" on="0"/>
        <pt x="392" y="-157" on="0"/>
        <pt x="407" y="-157" on="1"/>
        <pt x="425" y="-157" on="0"/>
        <pt x="443" y="-146" on="1"/>
        <pt x="460" y="-188" on="1"/>
        <pt x="443" y="-199" on="0"/>
        <pt x="401" y="-211" on="0"/>
        <pt x="384" y="-211" on="1"/>
        <pt x="350" y="-211" on="0"/>
        <pt x="306" y="-176" on="0"/>
        <pt x="306" y="-142" on="1"/>
        <pt x="306" y="-121" on="0"/>
        <pt x="324" y="-79" on="0"/>
        <pt x="351" y="-42" on="0"/>
        <pt x="385" y="-11" on="0"/>
        <pt x="401" y="0" on="1"/>
        <pt x="388" y="0" on="1"/>
        <pt x="370" y="205" on="1"/>
        <pt x="138" y="205" on="1"/>
        <pt x="33" y="0" on="1"/>
        <pt x="-53" y="0" on="1"/>
        <pt x="303" y="656" on="1"/>
        <pt x="393" y="656" on="1"/>
      </contour>
    </TTGlyph>
    <TTGlyph name="Aring" xMin="-53" yMin="0" xMax="469" yMax="875">
      <component glyphName="A" x="0" y="0" flags="0x204"/>
      <component glyphName="uni030A.cap" x="221" y="0" flags="0x4"/>
    </TTGlyph>
    <TTGlyph name="Atilde" xMin="-53" yMin="0" xMax="502" yMax="816">
      <component glyphName="A" x="0" y="0" flags="0x204"/>
      <component glyphName="uni0303.cap" x="221" y="0" flags="0x4"/>
    </TTGlyph>
    <TTGlyph name="B" xMin="35" yMin="0" xMax="544" yMax="656">
      <contour>
        <pt x="166" y="656" on="1"/>
        <pt x="341" y="656" on="1"/>
        <pt x="436" y="656" on="0"/>
        <pt x="544" y="583" on="0"/>
        <pt x="544" y="511" on="1"/>
        <pt x="544" y="478" on="0"/>
        <pt x="519" y="423" on="0"/>
        <pt x="477" y="381" on="0"/>
        <pt x="425" y="353" on="0"/>
        <pt x="398" y="347" on="1"/>
        <pt x="397" y="343" on="1"/>
        <pt x="448" y="331" on="0"/>
        <pt x="518" y="266" on="0"/>
        <pt x="518" y="210" on="1"/>
        <pt x="518" y="155" on="0"/>
        <pt x="477" y="76" on="0"/>
        <pt x="403" y="25" on="0"/>
        <pt x="303" y="0" on="0"/>
        <pt x="245" y="0" on="1"/>
        <pt x="35" y="0" on="1"/>
      </contour>
      <contour>
        <pt x="281" y="374" on="1"/>
        <pt x="375" y="374" on="0"/>
        <pt x="465" y="444" on="0"/>
        <pt x="465" y="500" on="1"/>
        <pt x="465" y="545" on="0"/>
        <pt x="397" y="595" on="0"/>
        <pt x="322" y="595" on="1"/>
        <pt x="231" y="595" on="1"/>
        <pt x="187" y="374" on="1"/>
      </contour>
      <contour>
        <pt x="238" y="61" on="1"/>
        <pt x="332" y="61" on="0"/>
        <pt x="442" y="129" on="0"/>
        <pt x="442" y="206" on="1"/>
        <pt x="442" y="256" on="0"/>
        <pt x="365" y="317" on="0"/>
        <pt x="292" y="317" on="1"/>
        <pt x="176" y="317" on="1"/>
        <pt x="124" y="61" on="1"/>
      </contour>
    </TTGlyph>
    <TTGlyph name="C" xMin="57" yMin="-12" xMax="557" yMax="668">
      <contour>
        <pt x="57" y="253" on="1"/>
        <pt x="57" y="330" on="0"/>
        <pt x="106" y="479" on="0"/>
        <pt x="195" y="596" on="0"/>
        <pt x="320" y="668" on="0"/>
        <pt x="396" y="668" on="1"/>
        <pt x="453" y="668" on="0"/>
        <pt x="533" y="613" on="0"/>
        <pt x="557" y="571" on="1"/>
        <pt x="503" y="530" on="1"/>
        <pt x="483" y="562" on="0"/>
        <pt x="430" y="601" on="0"/>
        <pt x="392" y="601" on="1"/>
        <pt x="333" y="601" on="0"/>
        <pt x="239" y="539" on="0"/>
        <pt x="173" y="441" on="0"/>
        <pt x="137" y="320" on="0"/>
        <pt x="137" y="260" on="1"/>
        <pt x="137" y="215" on="0"/>
        <pt x="156" y="140" on="0"/>
        <pt x="196" y="86" on="0"/>
        <pt x="260" y="55" on="0"/>
        <pt x="304" y="55" on="1"/>
        <pt x="344" y="55" on="0"/>
        <pt x="411" y="87" on="0"/>
        <pt x="443" y="114" on="1"/>
        <pt x="478" y="64" on="1"/>
        <pt x="442" y="32" on="0"/>
        <pt x="350" y="-12" on="0"/>
        <pt x="290" y="-12" on="1"/>
        <pt x="234" y="-12" on="0"/>
        <pt x="147" y="27" on="0"/>
        <pt x="88" y="97" on="0"/>
        <pt x="57" y="194" on="0"/>
      </contour>
    </TTGlyph>
    <TTGlyph name="Cacute" xMin="57" yMin="-12" xMax="557" yMax="816">
      <component glyphName="C" x="0" y="0" flags="0x204"/>
      <component glyphName="uni0301.cap" x="286" y="0" flags="0x4"/>
    </TTGlyph>
    <TTGlyph name="Ccaron" xMin="57" yMin="-12" xMax="560" yMax="816">
      <component glyphName="C" x="0" y="0" flags="0x204"/>
      <component glyphName="uni030C.cap" x="286" y="0" flags="0x4"/>
    </TTGlyph>
    <TTGlyph name="Ccedilla" xMin="57" yMin="-213" xMax="557" yMax="668">
      <component glyphName="C" x="0" y="0" flags="0x204"/>
      <component glyphName="uni0327.cap" x="281" y="0" flags="0x4"/>
    </TTGlyph>
    <TTGlyph name="Ccircumflex" xMin="57" yMin="-12" xMax="557" yMax="816">
      <component glyphName="C" x="0" y="0" flags="0x204"/>
      <component glyphName="uni0302.cap" x="286" y="0" flags="0x4"/>
    </TTGlyph>
    <TTGlyph name="Cdotaccent" xMin="57" yMin="-12" xMax="557" yMax="819">
      <component glyphName="C" x="0" y="0" flags="0x204"/>
      <component glyphName="uni0307.cap" x="286" y="0" flags="0x4"/>
    </TTGlyph>
    <TTGlyph name="D" xMin="35" yMin="0" xMax="566" yMax="656">
      <contour>
        <pt x="166" y="656" on="1"/>
        <pt x="288" y="656" on="1"/>
        <pt x="425" y="656" on="0"/>
        <pt x="566" y="521" on="0"/>
        <pt x="566" y="400" on="1"/>
        <pt x="566" y="311" on="0"/>
        <pt x="517" y="163" on="0"/>
        <pt x="426" y="58" on="0"/>
        <pt x="294" y="0" on="0"/>
        <pt x="211" y="0" on="1"/>
        <pt x="35" y="0" on="1"/>
      </contour>
      <contour>
        <pt x="211" y="64" on="1"/>
        <pt x="275" y="64" on="0"/>
        <pt x="377" y="113" on="0"/>
        <pt x="449" y="200" on="0"/>
        <pt x="487" y="322" on="0"/>
        <pt x="487" y="395" on="1"/>
        <pt x="487" y="489" on="0"/>
        <pt x="385" y="593" on="0"/>
        <pt x="285" y="593" on="1"/>
        <pt x="231" y="593" on="1"/>
        <pt x="125" y="64" on="1"/>
      </contour>
    </TTGlyph>
    <TTGlyph name="Dcaron" xMin="35" yMin="0" xMax="566" yMax="816">
      <component glyphName="D" x="0" y="0" flags="0x204"/>
      <component glyphName="uni030C.cap" x="249" y="0" flags="0x4"/>
    </TTGlyph>
    <TTGlyph name="Dcroat" xMin="47" yMin="0" xMax="584" yMax="656">
      <component glyphName="Eth" x="0" y="0" flags="0x204"/>
    </TTGlyph>
    <TTGlyph name="E" xMin="35" yMin="0" xMax="528" yMax="656">
      <contour>
        <pt x="166" y="656" on="1"/>
        <pt x="528" y="656" on="1"/>
        <pt x="515" y="591" on="1"/>
        <pt x="230" y="591" on="1"/>
        <pt x="188" y="378" on="1"/>
        <pt x="429" y="378" on="1"/>
        <pt x="415" y="312" on="1"/>
        <pt x="176" y="312" on="1"/>
        <pt x="125" y="66" on="1"/>
        <pt x="419" y="66" on="1"/>
        <pt x="405" y="0" on="1"/>
        <pt x="35" y="0" on="1"/>
      </contour>
    </TTGlyph>
    <TTGlyph name="Eacute" xMin="35" yMin="0" xMax="528" yMax="816">
      <component glyphName="E" x="0" y="0" flags="0x204"/>
      <component glyphName="uni0301.cap" x="232" y="0" flags="0x4"/>
    </TTGlyph>
    <TTGlyph name="Ebreve" xMin="35" yMin="0" xMax="528" yMax="816">
      <component glyphName="E" x="0" y="0" flags="0x204"/>
      <component glyphName="uni0306.cap" x="232" y="0" flags="0x4"/>
    </TTGlyph>
    <TTGlyph name="Ecaron" xMin="35" yMin="0" xMax="528" yMax="816">
      <component glyphName="E" x="0" y="0" flags="0x204"/>
      <component glyphName="uni030C.cap" x="232" y="0" flags="0x4"/>
    </TTGlyph>
    <TTGlyph name="Ecircumflex" xMin="35" yMin="0" xMax="528" yMax="816">
      <component glyphName="E" x="0" y="0" flags="0x204"/>
      <component glyphName="uni0302.cap" x="232" y="0" flags="0x4"/>
    </TTGlyph>
    <TTGlyph name="Edieresis" xMin="35" yMin="0" xMax="528" yMax="810">
      <component glyphName="E" x="0" y="0" flags="0x204"/>
      <component glyphName="uni0308.cap" x="232" y="0" flags="0x4"/>
    </TTGlyph>
    <TTGlyph name="Edotaccent" xMin="35" yMin="0" xMax="528" yMax="819">
      <component glyphName="E" x="0" y="0" flags="0x204"/>
      <component glyphName="uni0307.cap" x="232" y="0" flags="0x4"/>
    </TTGlyph>
    <TTGlyph name="Egrave" xMin="35" yMin="0" xMax="528" yMax="816">
      <component glyphName="E" x="0" y="0" flags="0x204"/>
      <component glyphName="uni0300.cap" x="232" y="0" flags="0x4"/>
    </TTGlyph>
    <TTGlyph name="Emacron" xMin="35" yMin="0" xMax="528" yMax="783">
      <component glyphName="E" x="0" y="0" flags="0x204"/>
      <component glyphName="uni0304.cap" x="232" y="0" flags="0x4"/>
    </TTGlyph>
    <TTGlyph name="Eogonek" xMin="35" yMin="-211" xMax="528" yMax="656">
      <contour>
        <pt x="166" y="656" on="1"/>
        <pt x="528" y="656" on="1"/>
        <pt x="515" y="591" on="1"/>
        <pt x="230" y="591" on="1"/>
        <pt x="188" y="378" on="1"/>
        <pt x="429" y="378" on="1"/>
        <pt x="415" y="312" on="1"/>
        <pt x="176" y="312" on="1"/>
        <pt x="125" y="66" on="1"/>
        <pt x="419" y="66" on="1"/>
        <pt x="405" y="0" on="1"/>
        <pt x="382" y="-3" on="0"/>
        <pt x="341" y="-29" on="0"/>
        <pt x="311" y="-64" on="0"/>
        <pt x="293" y="-103" on="0"/>
        <pt x="293" y="-119" on="1"/>
        <pt x="293" y="-137" on="0"/>
        <pt x="314" y="-157" on="0"/>
        <pt x="330" y="-157" on="1"/>
        <pt x="347" y="-157" on="0"/>
        <pt x="365" y="-146" on="1"/>
        <pt x="382" y="-188" on="1"/>
        <pt x="365" y="-199" on="0"/>
        <pt x="324" y="-211" on="0"/>
        <pt x="306" y="-211" on="1"/>
        <pt x="272" y="-211" on="0"/>
        <pt x="228" y="-176" on="0"/>
        <pt x="228" y="-142" on="1"/>
        <pt x="228" y="-120" on="0"/>
        <pt x="247" y="-78" on="0"/>
        <pt x="275" y="-40" on="0"/>
        <pt x="308" y="-10" on="0"/>
        <pt x="322" y="0" on="1"/>
        <pt x="35" y="0" on="1"/>
      </contour>
    </TTGlyph>
    <TTGlyph name="Eth" xMin="47" yMin="0" xMax="584" yMax="656">
      <contour>
        <pt x="229" y="64" on="1"/>
        <pt x="293" y="64" on="0"/>
        <pt x="395" y="113" on="0"/>
        <pt x="467" y="200" on="0"/>
        <pt x="505" y="322" on="0"/>
        <pt x="505" y="395" on="1"/>
        <pt x="505" y="489" on="0"/>
        <pt x="403" y="593" on="0"/>
        <pt x="303" y="593" on="1"/>
        <pt x="249" y="593" on="1"/>
        <pt x="204" y="368" on="1"/>
        <pt x="354" y="368" on="1"/>
        <pt x="344" y="324" on="1"/>
        <pt x="195" y="324" on="1"/>
        <pt x="143" y="64" on="1"/>
      </contour>
      <contour>
        <pt x="306" y="656" on="1"/>
        <pt x="443" y="656" on="0"/>
        <pt x="584" y="521" on="0"/>
        <pt x="584" y="400" on="1"/>
        <pt x="584" y="311" on="0"/>
        <pt x="535" y="163" on="0"/>
        <pt x="444" y="58" on="0"/>
        <pt x="312" y="0" on="0"/>
        <pt x="229" y="0" on="1"/>
        <pt x="53" y="0" on="1"/>
        <pt x="118" y="324" on="1"/>
        <pt x="47" y="324" on="1"/>
        <pt x="56" y="365" on="1"/>
        <pt x="126" y="368" on="1"/>
        <pt x="184" y="656" on="1"/>
      </contour>
    </TTGlyph>
    <TTGlyph name="Euro" xMin="20" yMin="-12" xMax="520" yMax="653">
      <contour>
        <pt x="462" y="520" on="1"/>
        <pt x="447" y="551" on="0"/>
        <pt x="405" y="590" on="0"/>
        <pt x="370" y="590" on="1"/>
        <pt x="339" y="590" on="0"/>
        <pt x="282" y="562" on="0"/>
        <pt x="234" y="511" on="0"/>
        <pt x="195" y="441" on="0"/>
        <pt x="182" y="399" on="1"/>
        <pt x="432" y="399" on="1"/>
        <pt x="423" y="355" on="1"/>
        <pt x="171" y="355" on="1"/>
        <pt x="167" y="338" on="0"/>
        <pt x="163" y="303" on="0"/>
        <pt x="161" y="285" on="1"/>
        <pt x="371" y="285" on="1"/>
        <pt x="361" y="240" on="1"/>
        <pt x="159" y="240" on="1"/>
        <pt x="159" y="149" on="0"/>
        <pt x="226" y="52" on="0"/>
        <pt x="285" y="52" on="1"/>
        <pt x="320" y="52" on="0"/>
        <pt x="379" y="85" on="0"/>
        <pt x="404" y="109" on="1"/>
        <pt x="442" y="62" on="1"/>
        <pt x="405" y="27" on="0"/>
        <pt x="321" y="-12" on="0"/>
        <pt x="271" y="-12" on="1"/>
        <pt x="183" y="-12" on="0"/>
        <pt x="82" y="117" on="0"/>
        <pt x="82" y="240" on="1"/>
        <pt x="20" y="240" on="1"/>
        <pt x="30" y="280" on="1"/>
        <pt x="84" y="284" on="1"/>
        <pt x="86" y="303" on="0"/>
        <pt x="90" y="338" on="0"/>
        <pt x="94" y="355" on="1"/>
        <pt x="43" y="355" on="1"/>
        <pt x="52" y="395" on="1"/>
        <pt x="105" y="398" on="1"/>
        <pt x="122" y="455" on="0"/>
        <pt x="178" y="549" on="0"/>
        <pt x="249" y="616" on="0"/>
        <pt x="332" y="653" on="0"/>
        <pt x="377" y="653" on="1"/>
        <pt x="432" y="653" on="0"/>
        <pt x="499" y="597" on="0"/>
        <pt x="520" y="557" on="1"/>
      </contour>
    </TTGlyph>
    <TTGlyph name="F" xMin="35" yMin="0" xMax="528" yMax="656">
      <contour>
        <pt x="166" y="656" on="1"/>
        <pt x="528" y="656" on="1"/>
        <pt x="515" y="591" on="1"/>
        <pt x="230" y="591" on="1"/>
        <pt x="185" y="363" on="1"/>
        <pt x="426" y="363" on="1"/>
        <pt x="413" y="297" on="1"/>
        <pt x="173" y="297" on="1"/>
        <pt x="113" y="0" on="1"/>
        <pt x="35" y="0" on="1"/>
      </contour>
    </TTGlyph>
    <TTGlyph name="G" xMin="57" yMin="-12" xMax="571" yMax="668">
      <contour>
        <pt x="57" y="253" on="1"/>
        <pt x="57" y="331" on="0"/>
        <pt x="106" y="480" on="0"/>
        <pt x="196" y="597" on="0"/>
        <pt x="325" y="668" on="0"/>
        <pt x="406" y="668" on="1"/>
        <pt x="465" y="668" on="0"/>
        <pt x="546" y="613" on="0"/>
        <pt x="571" y="571" on="1"/>
        <pt x="516" y="530" on="1"/>
        <pt x="497" y="562" on="0"/>
        <pt x="442" y="601" on="0"/>
        <pt x="402" y="601" on="1"/>
        <pt x="340" y="601" on="0"/>
        <pt x="242" y="539" on="0"/>
        <pt x="173" y="441" on="0"/>
        <pt x="137" y="320" on="0"/>
        <pt x="137" y="260" on="1"/>
        <pt x="137" y="216" on="0"/>
        <pt x="156" y="141" on="0"/>
        <pt x="198" y="85" on="0"/>
        <pt x="264" y="54" on="0"/>
        <pt x="311" y="54" on="1"/>
        <pt x="347" y="54" on="0"/>
        <pt x="403" y="77" on="0"/>
        <pt x="423" y="94" on="1"/>
        <pt x="460" y="275" on="1"/>
        <pt x="324" y="275" on="1"/>
        <pt x="337" y="339" on="1"/>
        <pt x="543" y="339" on="1"/>
        <pt x="486" y="55" on="1"/>
        <pt x="450" y="25" on="0"/>
        <pt x="357" y="-12" on="0"/>
        <pt x="300" y="-12" on="1"/>
        <pt x="241" y="-12" on="0"/>
        <pt x="150" y="26" on="0"/>
        <pt x="88" y="95" on="0"/>
        <pt x="57" y="193" on="0"/>
      </contour>
    </TTGlyph>
    <TTGlyph name="Gbreve" xMin="57" yMin="-12" xMax="571" yMax="816">
      <component glyphName="G" x="0" y="0" flags="0x204"/>
      <component glyphName="uni0306.cap" x="284" y="0" flags="0x4"/>
    </TTGlyph>
    <TTGlyph name="Gcaron" xMin="57" yMin="-12" xMax="571" yMax="816">
      <component glyphName="G" x="0" y="0" flags="0x204"/>
      <component glyphName="uni030C.cap" x="284" y="0" flags="0x4"/>
    </TTGlyph>
    <TTGlyph name="Gcircumflex" xMin="57" yMin="-12" xMax="571" yMax="816">
      <component glyphName="G" x="0" y="0" flags="0x204"/>
      <component glyphName="uni0302.cap" x="284" y="0" flags="0x4"/>
    </TTGlyph>
    <TTGlyph name="Gdotaccent" xMin="57" yMin="-12" xMax="571" yMax="819">
      <component glyphName="G" x="0" y="0" flags="0x204"/>
      <component glyphName="uni0307.cap" x="284" y="0" flags="0x4"/>
    </TTGlyph>
    <TTGlyph name="H" xMin="35" yMin="0" xMax="617" yMax="656">
      <contour>
        <pt x="166" y="656" on="1"/>
        <pt x="244" y="656" on="1"/>
        <pt x="188" y="379" on="1"/>
        <pt x="484" y="379" on="1"/>
        <pt x="540" y="656" on="1"/>
        <pt x="617" y="656" on="1"/>
        <pt x="486" y="0" on="1"/>
        <pt x="408" y="0" on="1"/>
        <pt x="471" y="312" on="1"/>
        <pt x="175" y="312" on="1"/>
        <pt x="113" y="0" on="1"/>
        <pt x="35" y="0" on="1"/>
      </contour>
    </TTGlyph>
    <TTGlyph name="Hbar" xMin="44" yMin="0" xMax="686" yMax="656">
      <contour>
        <pt x="516" y="493" on="1"/>
        <pt x="219" y="493" on="1"/>
        <pt x="196" y="379" on="1"/>
        <pt x="493" y="379" on="1"/>
      </contour>
      <contour>
        <pt x="677" y="493" on="1"/>
        <pt x="593" y="493" on="1"/>
        <pt x="495" y="0" on="1"/>
        <pt x="417" y="0" on="1"/>
        <pt x="480" y="312" on="1"/>
        <pt x="184" y="312" on="1"/>
        <pt x="122" y="0" on="1"/>
        <pt x="44" y="0" on="1"/>
        <pt x="142" y="493" on="1"/>
        <pt x="76" y="493" on="1"/>
        <pt x="85" y="534" on="1"/>
        <pt x="151" y="537" on="1"/>
        <pt x="175" y="656" on="1"/>
        <pt x="253" y="656" on="1"/>
        <pt x="229" y="537" on="1"/>
        <pt x="524" y="537" on="1"/>
        <pt x="548" y="656" on="1"/>
        <pt x="626" y="656" on="1"/>
        <pt x="602" y="537" on="1"/>
        <pt x="686" y="537" on="1"/>
      </contour>
    </TTGlyph>
    <TTGlyph name="Hcircumflex" xMin="35" yMin="0" xMax="617" yMax="816">
      <component glyphName="H" x="0" y="0" flags="0x204"/>
      <component glyphName="uni0302.cap" x="264" y="0" flags="0x4"/>
    </TTGlyph>
    <TTGlyph name="I" xMin="35" yMin="0" xMax="244" yMax="656">
      <contour>
        <pt x="166" y="656" on="1"/>
        <pt x="244" y="656" on="1"/>
        <pt x="113" y="0" on="1"/>
        <pt x="35" y="0" on="1"/>
      </contour>
    </TTGlyph>
    <TTGlyph name="I.a" xMin="-7" yMin="0" xMax="363" yMax="656">
      <contour>
        <pt x="7" y="66" on="1"/>
        <pt x="85" y="66" on="1"/>
        <pt x="191" y="591" on="1"/>
        <pt x="111" y="591" on="1"/>
        <pt x="125" y="656" on="1"/>
        <pt x="363" y="656" on="1"/>
        <pt x="349" y="591" on="1"/>
        <pt x="268" y="591" on="1"/>
        <pt x="163" y="66" on="1"/>
        <pt x="244" y="66" on="1"/>
        <pt x="230" y="0" on="1"/>
        <pt x="-7" y="0" on="1"/>
      </contour>
    </TTGlyph>
    <TTGlyph name="Iacute" xMin="35" yMin="0" xMax="350" yMax="816">
      <component glyphName="I" x="0" y="0" flags="0x204"/>
      <component glyphName="uni0301.cap" x="83" y="0" flags="0x4"/>
    </TTGlyph>
    <TTGlyph name="Iacute.a" xMin="-7" yMin="0" xMax="385" yMax="816">
      <component glyphName="I.a" x="0" y="0" flags="0x204"/>
      <component glyphName="uni0301.cap" x="118" y="0" flags="0x4"/>
    </TTGlyph>
    <TTGlyph name="Icircumflex" xMin="35" yMin="0" xMax="334" yMax="816">
      <component glyphName="I" x="0" y="0" flags="0x204"/>
      <component glyphName="uni0302.cap" x="83" y="0" flags="0x4"/>
    </TTGlyph>
    <TTGlyph name="Icircumflex.a" xMin="-7" yMin="0" xMax="369" yMax="816">
      <component glyphName="I.a" x="0" y="0" flags="0x204"/>
      <component glyphName="uni0302.cap" x="118" y="0" flags="0x4"/>
    </TTGlyph>
    <TTGlyph name="Idieresis" xMin="35" yMin="0" xMax="345" yMax="810">
      <component glyphName="I" x="0" y="0" flags="0x204"/>
      <component glyphName="uni0308.cap" x="83" y="0" flags="0x4"/>
    </TTGlyph>
    <TTGlyph name="Idieresis.a" xMin="-7" yMin="0" xMax="380" yMax="810">
      <component glyphName="I.a" x="0" y="0" flags="0x204"/>
      <component glyphName="uni0308.cap" x="118" y="0" flags="0x4"/>
    </TTGlyph>
    <TTGlyph name="Idotaccent" xMin="35" yMin="0" xMax="271" yMax="819">
      <component glyphName="I" x="0" y="0" flags="0x204"/>
      <component glyphName="uni0307.cap" x="83" y="0" flags="0x4"/>
    </TTGlyph>
    <TTGlyph name="Idotaccent.a" xMin="-7" yMin="0" xMax="363" yMax="819">
      <component glyphName="I.a" x="0" y="0" flags="0x204"/>
      <component glyphName="uni0307.cap" x="118" y="0" flags="0x4"/>
    </TTGlyph>
    <TTGlyph name="Igrave" xMin="35" yMin="0" xMax="253" yMax="816">
      <component glyphName="I" x="0" y="0" flags="0x204"/>
      <component glyphName="uni0300.cap" x="83" y="0" flags="0x4"/>
    </TTGlyph>
    <TTGlyph name="Igrave.a" xMin="-7" yMin="0" xMax="363" yMax="816">
      <component glyphName="I.a" x="0" y="0" flags="0x204"/>
      <component glyphName="uni0300.cap" x="118" y="0" flags="0x4"/>
    </TTGlyph>
    <TTGlyph name="Imacron" xMin="35" yMin="0" xMax="339" yMax="783">
      <component glyphName="I" x="0" y="0" flags="0x204"/>
      <component glyphName="uni0304.cap" x="83" y="0" flags="0x4"/>
    </TTGlyph>
    <TTGlyph name="Imacron.a" xMin="-7" yMin="0" xMax="374" yMax="783">
      <component glyphName="I.a" x="0" y="0" flags="0x204"/>
      <component glyphName="uni0304.cap" x="118" y="0" flags="0x4"/>
    </TTGlyph>
    <TTGlyph name="Iogonek" xMin="-39" yMin="-211" xMax="244" yMax="656">
      <contour>
        <pt x="26" y="-119" on="1"/>
        <pt x="26" y="-137" on="0"/>
        <pt x="47" y="-157" on="0"/>
        <pt x="62" y="-157" on="1"/>
        <pt x="80" y="-157" on="0"/>
        <pt x="97" y="-146" on="1"/>
        <pt x="115" y="-186" on="1"/>
        <pt x="99" y="-197" on="0"/>
        <pt x="54" y="-211" on="0"/>
        <pt x="37" y="-211" on="1"/>
        <pt x="4" y="-211" on="0"/>
        <pt x="-39" y="-176" on="0"/>
        <pt x="-39" y="-142" on="1"/>
        <pt x="-39" y="-120" on="0"/>
        <pt x="-21" y="-78" on="0"/>
        <pt x="6" y="-40" on="0"/>
        <pt x="37" y="-10" on="0"/>
        <pt x="50" y="0" on="1"/>
        <pt x="35" y="0" on="1"/>
        <pt x="166" y="656" on="1"/>
        <pt x="244" y="656" on="1"/>
        <pt x="113" y="0" on="1"/>
        <pt x="75" y="-23" on="0"/>
        <pt x="26" y="-90" on="0"/>
      </contour>
    </TTGlyph>
    <TTGlyph name="Iogonek.a" xMin="-7" yMin="-211" xMax="363" yMax="656">
      <contour>
        <pt x="7" y="66" on="1"/>
        <pt x="85" y="66" on="1"/>
        <pt x="191" y="591" on="1"/>
        <pt x="111" y="591" on="1"/>
        <pt x="125" y="656" on="1"/>
        <pt x="363" y="656" on="1"/>
        <pt x="349" y="591" on="1"/>
        <pt x="268" y="591" on="1"/>
        <pt x="163" y="66" on="1"/>
        <pt x="244" y="66" on="1"/>
        <pt x="230" y="0" on="1"/>
        <pt x="150" y="0" on="1"/>
        <pt x="112" y="-23" on="0"/>
        <pt x="63" y="-90" on="0"/>
        <pt x="63" y="-119" on="1"/>
        <pt x="63" y="-137" on="0"/>
        <pt x="84" y="-157" on="0"/>
        <pt x="100" y="-157" on="1"/>
        <pt x="118" y="-157" on="0"/>
        <pt x="135" y="-146" on="1"/>
        <pt x="153" y="-186" on="1"/>
        <pt x="136" y="-197" on="0"/>
        <pt x="92" y="-211" on="0"/>
        <pt x="75" y="-211" on="1"/>
        <pt x="42" y="-211" on="0"/>
        <pt x="-1" y="-176" on="0"/>
        <pt x="-1" y="-142" on="1"/>
        <pt x="-1" y="-120" on="0"/>
        <pt x="17" y="-78" on="0"/>
        <pt x="44" y="-40" on="0"/>
        <pt x="75" y="-10" on="0"/>
        <pt x="88" y="0" on="1"/>
        <pt x="-7" y="0" on="1"/>
      </contour>
    </TTGlyph>
    <TTGlyph name="Itilde" xMin="35" yMin="0" xMax="364" yMax="816">
      <component glyphName="I" x="0" y="0" flags="0x204"/>
      <component glyphName="uni0303.cap" x="83" y="0" flags="0x4"/>
    </TTGlyph>
    <TTGlyph name="Itilde.a" xMin="-7" yMin="0" xMax="399" yMax="816">
      <component glyphName="I.a" x="0" y="0" flags="0x204"/>
      <component glyphName="uni0303.cap" x="118" y="0" flags="0x4"/>
    </TTGlyph>
    <TTGlyph name="J" xMin="-2" yMin="-12" xMax="456" yMax="656">
      <contour>
        <pt x="362" y="184" on="1"/>
        <pt x="354" y="142" on="0"/>
        <pt x="320" y="70" on="0"/>
        <pt x="270" y="17" on="0"/>
        <pt x="202" y="-12" on="0"/>
        <pt x="159" y="-12" on="1"/>
        <pt x="100" y="-12" on="0"/>
        <pt x="19" y="43" on="0"/>
        <pt x="-2" y="89" on="1"/>
        <pt x="49" y="132" on="1"/>
        <pt x="63" y="96" on="0"/>
        <pt x="119" y="55" on="0"/>
        <pt x="161" y="55" on="1"/>
        <pt x="211" y="55" on="0"/>
        <pt x="273" y="129" on="0"/>
        <pt x="286" y="195" on="1"/>
        <pt x="378" y="656" on="1"/>
        <pt x="456" y="656" on="1"/>
        <pt x="362" y="184" on="1"/>
      </contour>
    </TTGlyph>
    <TTGlyph name="Jcircumflex" xMin="-2" yMin="-12" xMax="545" yMax="816">
      <component glyphName="J" x="0" y="0" flags="0x204"/>
      <component glyphName="uni0302.cap" x="294" y="0" flags="0x4"/>
    </TTGlyph>
    <TTGlyph name="K" xMin="35" yMin="0" xMax="599" yMax="656">
      <contour>
        <pt x="166" y="656" on="1"/>
        <pt x="244" y="656" on="1"/>
        <pt x="179" y="332" on="1"/>
        <pt x="182" y="332" on="1"/>
        <pt x="511" y="656" on="1"/>
        <pt x="599" y="656" on="1"/>
        <pt x="353" y="404" on="1"/>
        <pt x="502" y="0" on="1"/>
        <pt x="421" y="0" on="1"/>
        <pt x="295" y="354" on="1"/>
        <pt x="158" y="220" on="1"/>
        <pt x="113" y="0" on="1"/>
        <pt x="35" y="0" on="1"/>
      </contour>
    </TTGlyph>
    <TTGlyph name="L" xMin="35" yMin="0" xMax="402" yMax="656">
      <contour>
        <pt x="166" y="656" on="1"/>
        <pt x="244" y="656" on="1"/>
        <pt x="126" y="66" on="1"/>
        <pt x="402" y="66" on="1"/>
        <pt x="389" y="0" on="1"/>
        <pt x="35" y="0" on="1"/>
      </contour>
    </TTGlyph>
    <TTGlyph name="Lacute" xMin="35" yMin="0" xMax="402" yMax="816">
      <component glyphName="L" x="0" y="0" flags="0x204"/>
      <component glyphName="uni0301.cap" x="89" y="0" flags="0x4"/>
    </TTGlyph>
    <TTGlyph name="Lcaron" xMin="35" yMin="0" xMax="464" yMax="725">
      <component glyphName="L" x="0" y="0" flags="0x204"/>
      <component glyphName="uni030C.a" x="346" y="-35" flags="0x4"/>
    </TTGlyph>
    <TTGlyph name="Ldot" xMin="35" yMin="0" xMax="432" yMax="656">
      <component glyphName="L" x="0" y="0" flags="0x204"/>
      <component glyphName="period" x="296" y="280" flags="0x4"/>
    </TTGlyph>
    <TTGlyph name="Lslash" xMin="-4" yMin="0" xMax="402" yMax="656">
      <contour>
        <pt x="402" y="66" on="1"/>
        <pt x="389" y="0" on="1"/>
        <pt x="35" y="0" on="1"/>
        <pt x="82" y="235" on="1"/>
        <pt x="-4" y="193" on="1"/>
        <pt x="9" y="262" on="1"/>
        <pt x="96" y="304" on="1"/>
        <pt x="166" y="656" on="1"/>
        <pt x="244" y="656" on="1"/>
        <pt x="181" y="343" on="1"/>
        <pt x="381" y="441" on="1"/>
        <pt x="368" y="372" on="1"/>
        <pt x="168" y="275" on="1"/>
        <pt x="126" y="66" on="1"/>
      </contour>
    </TTGlyph>
    <TTGlyph name="M" xMin="35" yMin="0" xMax="700" yMax="656">
      <contour>
        <pt x="166" y="656" on="1"/>
        <pt x="259" y="656" on="1"/>
        <pt x="316" y="302" on="1"/>
        <pt x="338" y="166" on="1"/>
        <pt x="342" y="166" on="1"/>
        <pt x="412" y="302" on="1"/>
        <pt x="607" y="656" on="1"/>
        <pt x="700" y="656" on="1"/>
        <pt x="569" y="0" on="1"/>
        <pt x="494" y="0" on="1"/>
        <pt x="570" y="370" on="1"/>
        <pt x="579" y="415" on="0"/>
        <pt x="605" y="520" on="0"/>
        <pt x="617" y="563" on="1"/>
        <pt x="613" y="563" on="1"/>
        <pt x="534" y="417" on="1"/>
        <pt x="341" y="69" on="1"/>
        <pt x="297" y="69" on="1"/>
        <pt x="236" y="417" on="1"/>
        <pt x="214" y="563" on="1"/>
        <pt x="210" y="563" on="1"/>
        <pt x="204" y="518" on="0"/>
        <pt x="190" y="415" on="0"/>
        <pt x="182" y="370" on="1"/>
        <pt x="108" y="0" on="1"/>
        <pt x="35" y="0" on="1"/>
      </contour>
    </TTGlyph>
    <TTGlyph name="N" xMin="35" yMin="0" xMax="614" yMax="656">
      <contour>
        <pt x="166" y="656" on="1"/>
        <pt x="244" y="656" on="1"/>
        <pt x="394" y="236" on="1"/>
        <pt x="436" y="99" on="1"/>
        <pt x="440" y="99" on="1"/>
        <pt x="446" y="148" on="0"/>
        <pt x="459" y="257" on="0"/>
        <pt x="470" y="308" on="1"/>
        <pt x="539" y="656" on="1"/>
        <pt x="614" y="656" on="1"/>
        <pt x="483" y="0" on="1"/>
        <pt x="406" y="0" on="1"/>
        <pt x="258" y="419" on="1"/>
        <pt x="215" y="560" on="1"/>
        <pt x="211" y="560" on="1"/>
        <pt x="205" y="509" on="0"/>
        <pt x="190" y="403" on="0"/>
        <pt x="180" y="353" on="1"/>
        <pt x="110" y="0" on="1"/>
        <pt x="35" y="0" on="1"/>
      </contour>
    </TTGlyph>
    <TTGlyph name="Nacute" xMin="35" yMin="0" xMax="614" yMax="816">
      <component glyphName="N" x="0" y="0" flags="0x204"/>
      <component glyphName="uni0301.cap" x="273" y="0" flags="0x4"/>
    </TTGlyph>
    <TTGlyph name="Ncaron" xMin="35" yMin="0" xMax="614" yMax="816">
      <component glyphName="N" x="0" y="0" flags="0x204"/>
      <component glyphName="uni030C.cap" x="273" y="0" flags="0x4"/>
    </TTGlyph>
    <TTGlyph name="Ntilde" xMin="35" yMin="0" xMax="614" yMax="816">
      <component glyphName="N" x="0" y="0" flags="0x204"/>
      <component glyphName="uni0303.cap" x="273" y="0" flags="0x4"/>
    </TTGlyph>
    <TTGlyph name="O" xMin="60" yMin="-12" xMax="606" yMax="668">
      <contour>
        <pt x="287" y="-12" on="1"/>
        <pt x="232" y="-12" on="0"/>
        <pt x="147" y="27" on="0"/>
        <pt x="90" y="99" on="0"/>
        <pt x="60" y="201" on="0"/>
        <pt x="60" y="263" on="1"/>
        <pt x="60" y="338" on="0"/>
        <pt x="107" y="483" on="0"/>
        <pt x="191" y="598" on="0"/>
        <pt x="308" y="668" on="0"/>
        <pt x="379" y="668" on="1"/>
        <pt x="434" y="668" on="0"/>
        <pt x="519" y="629" on="0"/>
        <pt x="576" y="557" on="0"/>
        <pt x="606" y="456" on="0"/>
        <pt x="606" y="394" on="1"/>
        <pt x="606" y="319" on="0"/>
        <pt x="559" y="173" on="0"/>
        <pt x="475" y="58" on="0"/>
        <pt x="357" y="-12" on="0"/>
      </contour>
      <contour>
        <pt x="375" y="601" on="1"/>
        <pt x="322" y="601" on="0"/>
        <pt x="235" y="541" on="0"/>
        <pt x="173" y="445" on="0"/>
        <pt x="139" y="327" on="0"/>
        <pt x="139" y="269" on="1"/>
        <pt x="139" y="221" on="0"/>
        <pt x="157" y="142" on="0"/>
        <pt x="194" y="86" on="0"/>
        <pt x="252" y="55" on="0"/>
        <pt x="291" y="55" on="1"/>
        <pt x="344" y="55" on="0"/>
        <pt x="431" y="116" on="0"/>
        <pt x="493" y="212" on="0"/>
        <pt x="527" y="330" on="0"/>
        <pt x="527" y="387" on="1"/>
        <pt x="527" y="484" on="0"/>
        <pt x="453" y="601" on="0"/>
      </contour>
    </TTGlyph>
    <TTGlyph name="OE" xMin="60" yMin="0" xMax="841" yMax="656">
      <contour>
        <pt x="60" y="256" on="1"/>
        <pt x="60" y="346" on="0"/>
        <pt x="108" y="493" on="0"/>
        <pt x="200" y="598" on="0"/>
        <pt x="332" y="656" on="0"/>
        <pt x="415" y="656" on="1"/>
        <pt x="841" y="656" on="1"/>
        <pt x="827" y="591" on="1"/>
        <pt x="562" y="591" on="1"/>
        <pt x="519" y="378" on="1"/>
        <pt x="742" y="378" on="1"/>
        <pt x="728" y="312" on="1"/>
        <pt x="507" y="312" on="1"/>
        <pt x="456" y="66" on="1"/>
        <pt x="732" y="66" on="1"/>
        <pt x="718" y="0" on="1"/>
        <pt x="338" y="0" on="1"/>
        <pt x="201" y="0" on="0"/>
        <pt x="60" y="135" on="0"/>
      </contour>
      <contour>
        <pt x="415" y="593" on="1"/>
        <pt x="351" y="593" on="0"/>
        <pt x="249" y="544" on="0"/>
        <pt x="177" y="457" on="0"/>
        <pt x="139" y="334" on="0"/>
        <pt x="139" y="261" on="1"/>
        <pt x="139" y="167" on="0"/>
        <pt x="241" y="64" on="0"/>
        <pt x="341" y="64" on="1"/>
        <pt x="380" y="64" on="1"/>
        <pt x="486" y="593" on="1"/>
      </contour>
    </TTGlyph>
    <TTGlyph name="Oacute" xMin="60" yMin="-12" xMax="606" yMax="816">
      <component glyphName="O" x="0" y="0" flags="0x204"/>
      <component glyphName="uni0301.cap" x="280" y="0" flags="0x4"/>
    </TTGlyph>
    <TTGlyph name="Ocircumflex" xMin="60" yMin="-12" xMax="606" yMax="816">
      <component glyphName="O" x="0" y="0" flags="0x204"/>
      <component glyphName="uni0302.cap" x="280" y="0" flags="0x4"/>
    </TTGlyph>
    <TTGlyph name="Odieresis" xMin="60" yMin="-12" xMax="606" yMax="810">
      <component glyphName="O" x="0" y="0" flags="0x204"/>
      <component glyphName="uni0308.cap" x="280" y="0" flags="0x4"/>
    </TTGlyph>
    <TTGlyph name="Ograve" xMin="60" yMin="-12" xMax="606" yMax="816">
      <component glyphName="O" x="0" y="0" flags="0x204"/>
      <component glyphName="uni0300.cap" x="280" y="0" flags="0x4"/>
    </TTGlyph>
    <TTGlyph name="Ohorn" xMin="60" yMin="-12" xMax="660" yMax="765">
      <contour>
        <pt x="291" y="55" on="1"/>
        <pt x="344" y="55" on="0"/>
        <pt x="431" y="116" on="0"/>
        <pt x="493" y="212" on="0"/>
        <pt x="527" y="330" on="0"/>
        <pt x="527" y="387" on="1"/>
        <pt x="527" y="484" on="0"/>
        <pt x="453" y="601" on="0"/>
        <pt x="375" y="601" on="1"/>
        <pt x="322" y="601" on="0"/>
        <pt x="235" y="541" on="0"/>
        <pt x="173" y="445" on="0"/>
        <pt x="139" y="327" on="0"/>
        <pt x="139" y="269" on="1"/>
        <pt x="139" y="221" on="0"/>
        <pt x="157" y="142" on="0"/>
        <pt x="194" y="86" on="0"/>
        <pt x="252" y="55" on="0"/>
      </contour>
      <contour>
        <pt x="649" y="765" on="1"/>
        <pt x="660" y="742" on="0"/>
        <pt x="660" y="718" on="1"/>
        <pt x="660" y="675" on="0"/>
        <pt x="595" y="613" on="0"/>
        <pt x="539" y="603" on="1"/>
        <pt x="572" y="567" on="0"/>
        <pt x="606" y="460" on="0"/>
        <pt x="606" y="394" on="1"/>
        <pt x="606" y="319" on="0"/>
        <pt x="559" y="173" on="0"/>
        <pt x="475" y="58" on="0"/>
        <pt x="357" y="-12" on="0"/>
        <pt x="287" y="-12" on="1"/>
        <pt x="232" y="-12" on="0"/>
        <pt x="147" y="27" on="0"/>
        <pt x="90" y="99" on="0"/>
        <pt x="60" y="201" on="0"/>
        <pt x="60" y="263" on="1"/>
        <pt x="60" y="338" on="0"/>
        <pt x="107" y="483" on="0"/>
        <pt x="191" y="598" on="0"/>
        <pt x="308" y="668" on="0"/>
        <pt x="379" y="668" on="1"/>
        <pt x="447" y="668" on="0"/>
        <pt x="497" y="637" on="1"/>
        <pt x="540" y="640" on="0"/>
        <pt x="595" y="680" on="0"/>
        <pt x="595" y="712" on="1"/>
        <pt x="595" y="720" on="0"/>
        <pt x="593" y="734" on="0"/>
        <pt x="590" y="745" on="1"/>
      </contour>
    </TTGlyph>
    <TTGlyph name="Ohungarumlaut" xMin="60" yMin="-12" xMax="606" yMax="817">
      <component glyphName="O" x="0" y="0" flags="0x204"/>
      <component glyphName="uni030B.cap" x="280" y="0" flags="0x4"/>
    </TTGlyph>
    <TTGlyph name="Omacron" xMin="60" yMin="-12" xMax="606" yMax="783">
      <component glyphName="O" x="0" y="0" flags="0x204"/>
      <component glyphName="uni0304.cap" x="280" y="0" flags="0x4"/>
    </TTGlyph>
    <TTGlyph name="Oslash" xMin="-3" yMin="-30" xMax="673" yMax="687">
      <contour>
        <pt x="174" y="117" on="1"/>
        <pt x="193" y="88" on="0"/>
        <pt x="250" y="55" on="0"/>
        <pt x="291" y="55" on="1"/>
        <pt x="344" y="55" on="0"/>
        <pt x="431" y="116" on="0"/>
        <pt x="493" y="212" on="0"/>
        <pt x="527" y="330" on="0"/>
        <pt x="527" y="387" on="1"/>
        <pt x="527" y="439" on="0"/>
        <pt x="516" y="483" on="1"/>
      </contour>
      <contour>
        <pt x="495" y="535" on="1"/>
        <pt x="476" y="567" on="0"/>
        <pt x="417" y="601" on="0"/>
        <pt x="375" y="601" on="1"/>
        <pt x="322" y="601" on="0"/>
        <pt x="235" y="541" on="0"/>
        <pt x="173" y="445" on="0"/>
        <pt x="139" y="327" on="0"/>
        <pt x="139" y="269" on="1"/>
        <pt x="139" y="212" on="0"/>
        <pt x="151" y="169" on="1"/>
      </contour>
      <contour>
        <pt x="576" y="548" on="1"/>
        <pt x="606" y="483" on="0"/>
        <pt x="606" y="394" on="1"/>
        <pt x="606" y="319" on="0"/>
        <pt x="559" y="173" on="0"/>
        <pt x="475" y="58" on="0"/>
        <pt x="357" y="-12" on="0"/>
        <pt x="287" y="-12" on="1"/>
        <pt x="233" y="-12" on="0"/>
        <pt x="150" y="25" on="0"/>
        <pt x="121" y="60" on="1"/>
        <pt x="37" y="-30" on="1"/>
        <pt x="-3" y="5" on="1"/>
        <pt x="92" y="106" on="1"/>
        <pt x="60" y="172" on="0"/>
        <pt x="60" y="263" on="1"/>
        <pt x="60" y="338" on="0"/>
        <pt x="107" y="483" on="0"/>
        <pt x="191" y="598" on="0"/>
        <pt x="308" y="668" on="0"/>
        <pt x="379" y="668" on="1"/>
        <pt x="435" y="668" on="0"/>
        <pt x="519" y="629" on="0"/>
        <pt x="548" y="592" on="1"/>
        <pt x="637" y="687" on="1"/>
        <pt x="673" y="652" on="1"/>
      </contour>
    </TTGlyph>
    <TTGlyph name="Otilde" xMin="60" yMin="-12" xMax="606" yMax="816">
      <component glyphName="O" x="0" y="0" flags="0x204"/>
      <component glyphName="uni0303.cap" x="280" y="0" flags="0x4"/>
    </TTGlyph>
    <TTGlyph name="P" xMin="35" yMin="0" xMax="557" yMax="656">
      <contour>
        <pt x="166" y="656" on="1"/>
        <pt x="351" y="656" on="1"/>
        <pt x="397" y="656" on="0"/>
        <pt x="473" y="638" on="0"/>
        <pt x="527" y="599" on="0"/>
        <pt x="557" y="539" on="0"/>
        <pt x="557" y="496" on="1"/>
        <pt x="557" y="436" on="0"/>
        <pt x="514" y="348" on="0"/>
        <pt x="438" y="291" on="0"/>
        <pt x="333" y="264" on="0"/>
        <pt x="270" y="264" on="1"/>
        <pt x="165" y="264" on="1"/>
        <pt x="113" y="0" on="1"/>
        <pt x="35" y="0" on="1"/>
      </contour>
      <contour>
        <pt x="273" y="327" on="1"/>
        <pt x="375" y="327" on="0"/>
        <pt x="480" y="407" on="0"/>
        <pt x="480" y="486" on="1"/>
        <pt x="480" y="543" on="0"/>
        <pt x="404" y="594" on="0"/>
        <pt x="332" y="594" on="1"/>
        <pt x="231" y="594" on="1"/>
        <pt x="178" y="327" on="1"/>
      </contour>
    </TTGlyph>
    <TTGlyph name="Q" xMin="60" yMin="-162" xMax="606" yMax="668">
      <contour>
        <pt x="139" y="269" on="1"/>
        <pt x="139" y="221" on="0"/>
        <pt x="157" y="142" on="0"/>
        <pt x="194" y="86" on="0"/>
        <pt x="252" y="55" on="0"/>
        <pt x="291" y="55" on="1"/>
        <pt x="344" y="55" on="0"/>
        <pt x="431" y="116" on="0"/>
        <pt x="493" y="212" on="0"/>
        <pt x="527" y="330" on="0"/>
        <pt x="527" y="387" on="1"/>
        <pt x="527" y="484" on="0"/>
        <pt x="453" y="601" on="0"/>
        <pt x="375" y="601" on="1"/>
        <pt x="322" y="601" on="0"/>
        <pt x="235" y="541" on="0"/>
        <pt x="173" y="445" on="0"/>
        <pt x="139" y="327" on="0"/>
      </contour>
      <contour>
        <pt x="524" y="-151" on="1"/>
        <pt x="491" y="-162" on="0"/>
        <pt x="459" y="-162" on="1"/>
        <pt x="375" y="-162" on="0"/>
        <pt x="255" y="-87" on="0"/>
        <pt x="230" y="-6" on="1"/>
        <pt x="146" y="13" on="0"/>
        <pt x="60" y="155" on="0"/>
        <pt x="60" y="263" on="1"/>
        <pt x="60" y="338" on="0"/>
        <pt x="107" y="483" on="0"/>
        <pt x="191" y="598" on="0"/>
        <pt x="308" y="668" on="0"/>
        <pt x="379" y="668" on="1"/>
        <pt x="434" y="668" on="0"/>
        <pt x="519" y="629" on="0"/>
        <pt x="576" y="557" on="0"/>
        <pt x="606" y="456" on="0"/>
        <pt x="606" y="394" on="1"/>
        <pt x="606" y="322" on="0"/>
        <pt x="563" y="181" on="0"/>
        <pt x="485" y="69" on="0"/>
        <pt x="376" y="-5" on="0"/>
        <pt x="310" y="-11" on="1"/>
        <pt x="327" y="-55" on="0"/>
        <pt x="411" y="-97" on="0"/>
        <pt x="464" y="-97" on="1"/>
        <pt x="479" y="-97" on="0"/>
        <pt x="505" y="-93" on="0"/>
        <pt x="519" y="-90" on="1"/>
      </contour>
    </TTGlyph>
    <TTGlyph name="R" xMin="35" yMin="0" xMax="551" yMax="656">
      <contour>
        <pt x="280" y="341" on="1"/>
        <pt x="374" y="341" on="0"/>
        <pt x="474" y="423" on="0"/>
        <pt x="474" y="493" on="1"/>
        <pt x="474" y="547" on="0"/>
        <pt x="399" y="594" on="0"/>
        <pt x="327" y="594" on="1"/>
        <pt x="231" y="594" on="1"/>
        <pt x="181" y="341" on="1"/>
      </contour>
      <contour>
        <pt x="346" y="656" on="1"/>
        <pt x="392" y="656" on="0"/>
        <pt x="467" y="639" on="0"/>
        <pt x="521" y="602" on="0"/>
        <pt x="551" y="544" on="0"/>
        <pt x="551" y="503" on="1"/>
        <pt x="551" y="458" on="0"/>
        <pt x="522" y="384" on="0"/>
        <pt x="470" y="329" on="0"/>
        <pt x="400" y="293" on="0"/>
        <pt x="358" y="285" on="1"/>
        <pt x="473" y="0" on="1"/>
        <pt x="390" y="0" on="1"/>
        <pt x="282" y="278" on="1"/>
        <pt x="168" y="278" on="1"/>
        <pt x="113" y="0" on="1"/>
        <pt x="35" y="0" on="1"/>
        <pt x="166" y="656" on="1"/>
      </contour>
    </TTGlyph>
    <TTGlyph name="Racute" xMin="35" yMin="0" xMax="551" yMax="816">
      <component glyphName="R" x="0" y="0" flags="0x204"/>
      <component glyphName="uni0301.cap" x="239" y="0" flags="0x4"/>
    </TTGlyph>
    <TTGlyph name="Rcaron" xMin="35" yMin="0" xMax="551" yMax="816">
      <component glyphName="R" x="0" y="0" flags="0x204"/>
      <component glyphName="uni030C.cap" x="239" y="0" flags="0x4"/>
    </TTGlyph>
    <TTGlyph name="S" xMin="12" yMin="-12" xMax="510" yMax="668">
      <contour>
        <pt x="69" y="147" on="1"/>
        <pt x="98" y="103" on="0"/>
        <pt x="183" y="54" on="0"/>
        <pt x="238" y="54" on="1"/>
        <pt x="268" y="54" on="0"/>
        <pt x="320" y="72" on="0"/>
        <pt x="357" y="104" on="0"/>
        <pt x="379" y="150" on="0"/>
        <pt x="379" y="178" on="1"/>
        <pt x="379" y="214" on="0"/>
        <pt x="334" y="263" on="0"/>
        <pt x="297" y="286" on="1"/>
        <pt x="221" y="332" on="1"/>
        <pt x="179" y="358" on="0"/>
        <pt x="120" y="430" on="0"/>
        <pt x="120" y="486" on="1"/>
        <pt x="120" y="523" on="0"/>
        <pt x="151" y="589" on="0"/>
        <pt x="205" y="639" on="0"/>
        <pt x="280" y="668" on="0"/>
        <pt x="324" y="668" on="1"/>
        <pt x="383" y="668" on="0"/>
        <pt x="479" y="616" on="0"/>
        <pt x="510" y="576" on="1"/>
        <pt x="459" y="530" on="1"/>
        <pt x="433" y="560" on="0"/>
        <pt x="364" y="601" on="0"/>
        <pt x="318" y="601" on="1"/>
        <pt x="290" y="601" on="0"/>
        <pt x="246" y="583" on="0"/>
        <pt x="215" y="553" on="0"/>
        <pt x="199" y="515" on="0"/>
        <pt x="199" y="495" on="1"/>
        <pt x="199" y="457" on="0"/>
        <pt x="248" y="410" on="0"/>
        <pt x="284" y="388" on="1"/>
        <pt x="360" y="343" on="1"/>
        <pt x="408" y="315" on="0"/>
        <pt x="459" y="244" on="0"/>
        <pt x="459" y="189" on="1"/>
        <pt x="459" y="145" on="0"/>
        <pt x="425" y="71" on="0"/>
        <pt x="365" y="18" on="0"/>
        <pt x="281" y="-12" on="0"/>
        <pt x="231" y="-12" on="1"/>
        <pt x="163" y="-12" on="0"/>
        <pt x="52" y="45" on="0"/>
        <pt x="12" y="104" on="1"/>
      </contour>
    </TTGlyph>
    <TTGlyph name="Sacute" xMin="12" yMin="-12" xMax="510" yMax="818">
      <component glyphName="S" x="0" y="0" flags="0x204"/>
      <component glyphName="uni0301.cap" x="223" y="2" flags="0x4"/>
    </TTGlyph>
    <TTGlyph name="Scaron" xMin="12" yMin="-12" xMax="510" yMax="818">
      <component glyphName="S" x="0" y="0" flags="0x204"/>
      <component glyphName="uni030C.cap" x="223" y="2" flags="0x4"/>
    </TTGlyph>
    <TTGlyph name="Scircumflex" xMin="12" yMin="-12" xMax="510" yMax="818">
      <component glyphName="S" x="0" y="0" flags="0x204"/>
      <component glyphName="uni0302.cap" x="223" y="2" flags="0x4"/>
    </TTGlyph>
    <TTGlyph name="T" xMin="93" yMin="0" xMax="565" yMax="656">
      <contour>
        <pt x="283" y="589" on="1"/>
        <pt x="93" y="589" on="1"/>
        <pt x="106" y="656" on="1"/>
        <pt x="565" y="656" on="1"/>
        <pt x="552" y="589" on="1"/>
        <pt x="361" y="589" on="1"/>
        <pt x="244" y="0" on="1"/>
        <pt x="166" y="0" on="1"/>
      </contour>
    </TTGlyph>
    <TTGlyph name="Tcaron" xMin="93" yMin="0" xMax="565" yMax="816">
      <component glyphName="T" x="0" y="0" flags="0x204"/>
      <component glyphName="uni030C.cap" x="211" y="0" flags="0x4"/>
    </TTGlyph>
    <TTGlyph name="Thorn" xMin="35" yMin="0" xMax="535" yMax="660">
      <contour>
        <pt x="166" y="660" on="1"/>
        <pt x="244" y="660" on="1"/>
        <pt x="221" y="545" on="1"/>
        <pt x="336" y="545" on="1"/>
        <pt x="381" y="545" on="0"/>
        <pt x="454" y="527" on="0"/>
        <pt x="506" y="488" on="0"/>
        <pt x="535" y="427" on="0"/>
        <pt x="535" y="385" on="1"/>
        <pt x="535" y="325" on="0"/>
        <pt x="492" y="237" on="0"/>
        <pt x="416" y="180" on="0"/>
        <pt x="311" y="152" on="0"/>
        <pt x="248" y="152" on="1"/>
        <pt x="142" y="152" on="1"/>
        <pt x="112" y="0" on="1"/>
        <pt x="35" y="0" on="1"/>
      </contour>
      <contour>
        <pt x="250" y="215" on="1"/>
        <pt x="353" y="215" on="0"/>
        <pt x="458" y="296" on="0"/>
        <pt x="458" y="374" on="1"/>
        <pt x="458" y="431" on="0"/>
        <pt x="384" y="482" on="0"/>
        <pt x="313" y="482" on="1"/>
        <pt x="208" y="482" on="1"/>
        <pt x="156" y="215" on="1"/>
      </contour>
    </TTGlyph>
    <TTGlyph name="U" xMin="79" yMin="-12" xMax="614" yMax="656">
      <contour>
        <pt x="163" y="656" on="1"/>
        <pt x="241" y="656" on="1"/>
        <pt x="166" y="281" on="1"/>
        <pt x="157" y="236" on="0"/>
        <pt x="157" y="202" on="1"/>
        <pt x="157" y="131" on="0"/>
        <pt x="221" y="55" on="0"/>
        <pt x="290" y="55" on="1"/>
        <pt x="318" y="55" on="0"/>
        <pt x="369" y="77" on="0"/>
        <pt x="413" y="125" on="0"/>
        <pt x="446" y="200" on="0"/>
        <pt x="457" y="254" on="1"/>
        <pt x="538" y="656" on="1"/>
        <pt x="614" y="656" on="1"/>
        <pt x="532" y="251" on="1"/>
        <pt x="518" y="180" on="0"/>
        <pt x="471" y="80" on="0"/>
        <pt x="407" y="17" on="0"/>
        <pt x="330" y="-12" on="0"/>
        <pt x="286" y="-12" on="1"/>
        <pt x="186" y="-12" on="0"/>
        <pt x="79" y="92" on="0"/>
        <pt x="79" y="195" on="1"/>
        <pt x="79" y="216" on="0"/>
        <pt x="84" y="263" on="0"/>
        <pt x="89" y="288" on="1"/>
      </contour>
    </TTGlyph>
    <TTGlyph name="Uacute" xMin="79" yMin="-12" xMax="614" yMax="816">
      <component glyphName="U" x="0" y="0" flags="0x204"/>
      <component glyphName="uni0301.cap" x="270" y="0" flags="0x4"/>
    </TTGlyph>
    <TTGlyph name="Ubreve" xMin="79" yMin="-12" xMax="614" yMax="816">
      <component glyphName="U" x="0" y="0" flags="0x204"/>
      <component glyphName="uni0306.cap" x="270" y="0" flags="0x4"/>
    </TTGlyph>
    <TTGlyph name="Ucircumflex" xMin="79" yMin="-12" xMax="614" yMax="816">
      <component glyphName="U" x="0" y="0" flags="0x204"/>
      <component glyphName="uni0302.cap" x="270" y="0" flags="0x4"/>
    </TTGlyph>
    <TTGlyph name="Udieresis" xMin="79" yMin="-12" xMax="614" yMax="810">
      <component glyphName="U" x="0" y="0" flags="0x204"/>
      <component glyphName="uni0308.cap" x="270" y="0" flags="0x4"/>
    </TTGlyph>
    <TTGlyph name="Ugrave" xMin="79" yMin="-12" xMax="614" yMax="816">
      <component glyphName="U" x="0" y="0" flags="0x204"/>
      <component glyphName="uni0300.cap" x="270" y="0" flags="0x4"/>
    </TTGlyph>
    <TTGlyph name="Uhorn" xMin="79" yMin="-12" xMax="735" yMax="784">
      <contour>
        <pt x="725" y="784" on="1"/>
        <pt x="735" y="760" on="0"/>
        <pt x="735" y="737" on="1"/>
        <pt x="735" y="696" on="0"/>
        <pt x="673" y="630" on="0"/>
        <pt x="607" y="620" on="1"/>
        <pt x="532" y="251" on="1"/>
        <pt x="518" y="180" on="0"/>
        <pt x="471" y="80" on="0"/>
        <pt x="407" y="17" on="0"/>
        <pt x="330" y="-12" on="0"/>
        <pt x="286" y="-12" on="1"/>
        <pt x="186" y="-12" on="0"/>
        <pt x="79" y="92" on="0"/>
        <pt x="79" y="195" on="1"/>
        <pt x="79" y="216" on="0"/>
        <pt x="84" y="263" on="0"/>
        <pt x="89" y="288" on="1"/>
        <pt x="163" y="656" on="1"/>
        <pt x="241" y="656" on="1"/>
        <pt x="166" y="281" on="1"/>
        <pt x="157" y="236" on="0"/>
        <pt x="157" y="202" on="1"/>
        <pt x="157" y="131" on="0"/>
        <pt x="221" y="55" on="0"/>
        <pt x="290" y="55" on="1"/>
        <pt x="318" y="55" on="0"/>
        <pt x="369" y="77" on="0"/>
        <pt x="413" y="125" on="0"/>
        <pt x="446" y="200" on="0"/>
        <pt x="457" y="254" on="1"/>
        <pt x="538" y="656" on="1"/>
        <pt x="573" y="656" on="1"/>
        <pt x="615" y="658" on="0"/>
        <pt x="670" y="699" on="0"/>
        <pt x="670" y="730" on="1"/>
        <pt x="670" y="738" on="0"/>
        <pt x="668" y="753" on="0"/>
        <pt x="665" y="763" on="1"/>
      </contour>
    </TTGlyph>
    <TTGlyph name="Uhungarumlaut" xMin="79" yMin="-12" xMax="614" yMax="817">
      <component glyphName="U" x="0" y="0" flags="0x204"/>
      <component glyphName="uni030B.cap" x="270" y="0" flags="0x4"/>
    </TTGlyph>
    <TTGlyph name="Umacron" xMin="79" yMin="-12" xMax="614" yMax="783">
      <component glyphName="U" x="0" y="0" flags="0x204"/>
      <component glyphName="uni0304.cap" x="270" y="0" flags="0x4"/>
    </TTGlyph>
    <TTGlyph name="Uogonek" xMin="79" yMin="-211" xMax="614" yMax="656">
      <contour>
        <pt x="532" y="251" on="1"/>
        <pt x="521" y="191" on="0"/>
        <pt x="486" y="106" on="0"/>
        <pt x="438" y="45" on="0"/>
        <pt x="377" y="6" on="0"/>
        <pt x="339" y="-7" on="1"/>
        <pt x="310" y="-17" on="0"/>
        <pt x="269" y="-44" on="0"/>
        <pt x="242" y="-75" on="0"/>
        <pt x="230" y="-106" on="0"/>
        <pt x="230" y="-119" on="1"/>
        <pt x="230" y="-137" on="0"/>
        <pt x="251" y="-157" on="0"/>
        <pt x="266" y="-157" on="1"/>
        <pt x="284" y="-157" on="0"/>
        <pt x="302" y="-146" on="1"/>
        <pt x="319" y="-188" on="1"/>
        <pt x="302" y="-199" on="0"/>
        <pt x="260" y="-211" on="0"/>
        <pt x="243" y="-211" on="1"/>
        <pt x="208" y="-211" on="0"/>
        <pt x="165" y="-176" on="0"/>
        <pt x="165" y="-142" on="1"/>
        <pt x="165" y="-124" on="0"/>
        <pt x="180" y="-87" on="0"/>
        <pt x="204" y="-52" on="0"/>
        <pt x="234" y="-21" on="0"/>
        <pt x="249" y="-10" on="1"/>
        <pt x="166" y="1" on="0"/>
        <pt x="79" y="104" on="0"/>
        <pt x="79" y="195" on="1"/>
        <pt x="79" y="216" on="0"/>
        <pt x="84" y="263" on="0"/>
        <pt x="89" y="288" on="1"/>
        <pt x="163" y="656" on="1"/>
        <pt x="241" y="656" on="1"/>
        <pt x="166" y="281" on="1"/>
        <pt x="157" y="236" on="0"/>
        <pt x="157" y="202" on="1"/>
        <pt x="157" y="131" on="0"/>
        <pt x="221" y="55" on="0"/>
        <pt x="290" y="55" on="1"/>
        <pt x="318" y="55" on="0"/>
        <pt x="369" y="77" on="0"/>
        <pt x="413" y="125" on="0"/>
        <pt x="446" y="200" on="0"/>
        <pt x="457" y="254" on="1"/>
        <pt x="538" y="656" on="1"/>
        <pt x="614" y="656" on="1"/>
      </contour>
    </TTGlyph>
    <TTGlyph name="Uring" xMin="79" yMin="-12" xMax="614" yMax="875">
      <component glyphName="U" x="0" y="0" flags="0x204"/>
      <component glyphName="uni030A.cap" x="270" y="0" flags="0x4"/>
    </TTGlyph>
    <TTGlyph name="Utilde" xMin="79" yMin="-12" xMax="614" yMax="816">
      <component glyphName="U" x="0" y="0" flags="0x204"/>
      <component glyphName="uni0303.cap" x="270" y="0" flags="0x4"/>
    </TTGlyph>
    <TTGlyph name="V" xMin="82" yMin="0" xMax="577" yMax="656">
      <contour>
        <pt x="82" y="656" on="1"/>
        <pt x="161" y="656" on="1"/>
        <pt x="188" y="292" on="1"/>
        <pt x="193" y="238" on="0"/>
        <pt x="201" y="130" on="0"/>
        <pt x="204" y="76" on="1"/>
        <pt x="208" y="76" on="1"/>
        <pt x="233" y="129" on="0"/>
        <pt x="286" y="239" on="0"/>
        <pt x="312" y="292" on="1"/>
        <pt x="493" y="656" on="1"/>
        <pt x="577" y="656" on="1"/>
        <pt x="234" y="0" on="1"/>
        <pt x="141" y="0" on="1"/>
      </contour>
    </TTGlyph>
    <TTGlyph name="W" xMin="95" yMin="0" xMax="812" yMax="656">
      <contour>
        <pt x="104" y="656" on="1"/>
        <pt x="184" y="656" on="1"/>
        <pt x="174" y="295" on="1"/>
        <pt x="171" y="242" on="0"/>
        <pt x="168" y="136" on="0"/>
        <pt x="164" y="82" on="1"/>
        <pt x="168" y="82" on="1"/>
        <pt x="191" y="136" on="0"/>
        <pt x="239" y="242" on="0"/>
        <pt x="261" y="295" on="1"/>
        <pt x="425" y="656" on="1"/>
        <pt x="496" y="656" on="1"/>
        <pt x="505" y="295" on="1"/>
        <pt x="506" y="243" on="0"/>
        <pt x="506" y="136" on="0"/>
        <pt x="506" y="82" on="1"/>
        <pt x="510" y="82" on="1"/>
        <pt x="530" y="136" on="0"/>
        <pt x="573" y="242" on="0"/>
        <pt x="593" y="295" on="1"/>
        <pt x="735" y="656" on="1"/>
        <pt x="812" y="656" on="1"/>
        <pt x="542" y="0" on="1"/>
        <pt x="443" y="0" on="1"/>
        <pt x="436" y="401" on="1"/>
        <pt x="436" y="437" on="0"/>
        <pt x="437" y="516" on="0"/>
        <pt x="439" y="555" on="1"/>
        <pt x="435" y="555" on="1"/>
        <pt x="421" y="516" on="0"/>
        <pt x="388" y="440" on="0"/>
        <pt x="371" y="401" on="1"/>
        <pt x="192" y="0" on="1"/>
        <pt x="95" y="0" on="1"/>
      </contour>
    </TTGlyph>
    <TTGlyph name="Wacute" xMin="95" yMin="0" xMax="812" yMax="816">
      <component glyphName="W" x="0" y="0" flags="0x204"/>
      <component glyphName="uni0301.cap" x="335" y="0" flags="0x4"/>
    </TTGlyph>
    <TTGlyph name="Wcircumflex" xMin="95" yMin="0" xMax="812" yMax="816">
      <component glyphName="W" x="0" y="0" flags="0x204"/>
      <component glyphName="uni0302.cap" x="335" y="0" flags="0x4"/>
    </TTGlyph>
    <TTGlyph name="Wdieresis" xMin="95" yMin="0" xMax="812" yMax="810">
      <component glyphName="W" x="0" y="0" flags="0x204"/>
      <component glyphName="uni0308.cap" x="335" y="0" flags="0x4"/>
    </TTGlyph>
    <TTGlyph name="Wgrave" xMin="95" yMin="0" xMax="812" yMax="816">
      <component glyphName="W" x="0" y="0" flags="0x204"/>
      <component glyphName="uni0300.cap" x="335" y="0" flags="0x4"/>
    </TTGlyph>
    <TTGlyph name="X" xMin="-36" yMin="0" xMax="546" yMax="656">
      <contour>
        <pt x="216" y="340" on="1"/>
        <pt x="108" y="656" on="1"/>
        <pt x="192" y="656" on="1"/>
        <pt x="248" y="482" on="1"/>
        <pt x="255" y="459" on="0"/>
        <pt x="267" y="416" on="0"/>
        <pt x="275" y="390" on="1"/>
        <pt x="278" y="390" on="1"/>
        <pt x="295" y="414" on="0"/>
        <pt x="329" y="462" on="0"/>
        <pt x="344" y="485" on="1"/>
        <pt x="464" y="656" on="1"/>
        <pt x="546" y="656" on="1"/>
        <pt x="309" y="334" on="1"/>
        <pt x="426" y="0" on="1"/>
        <pt x="342" y="0" on="1"/>
        <pt x="282" y="184" on="1"/>
        <pt x="274" y="209" on="0"/>
        <pt x="259" y="260" on="0"/>
        <pt x="251" y="286" on="1"/>
        <pt x="248" y="286" on="1"/>
        <pt x="228" y="260" on="0"/>
        <pt x="192" y="205" on="0"/>
        <pt x="175" y="180" on="1"/>
        <pt x="47" y="0" on="1"/>
        <pt x="-36" y="0" on="1"/>
      </contour>
    </TTGlyph>
    <TTGlyph name="Y" xMin="83" yMin="0" xMax="542" yMax="656">
      <contour>
        <pt x="190" y="256" on="1"/>
        <pt x="83" y="656" on="1"/>
        <pt x="163" y="656" on="1"/>
        <pt x="208" y="467" on="1"/>
        <pt x="217" y="431" on="0"/>
        <pt x="232" y="363" on="0"/>
        <pt x="241" y="325" on="1"/>
        <pt x="245" y="325" on="1"/>
        <pt x="268" y="362" on="0"/>
        <pt x="311" y="432" on="0"/>
        <pt x="335" y="468" on="1"/>
        <pt x="459" y="656" on="1"/>
        <pt x="542" y="656" on="1"/>
        <pt x="268" y="256" on="1"/>
        <pt x="216" y="0" on="1"/>
        <pt x="139" y="0" on="1"/>
      </contour>
    </TTGlyph>
    <TTGlyph name="Yacute" xMin="83" yMin="0" xMax="542" yMax="816">
      <component glyphName="Y" x="0" y="0" flags="0x204"/>
      <component glyphName="uni0301.cap" x="184" y="0" flags="0x4"/>
    </TTGlyph>
    <TTGlyph name="Ycircumflex" xMin="83" yMin="0" xMax="542" yMax="816">
      <component glyphName="Y" x="0" y="0" flags="0x204"/>
      <component glyphName="uni0302.cap" x="184" y="0" flags="0x4"/>
    </TTGlyph>
    <TTGlyph name="Ydieresis" xMin="83" yMin="0" xMax="542" yMax="810">
      <component glyphName="Y" x="0" y="0" flags="0x204"/>
      <component glyphName="uni0308.cap" x="184" y="0" flags="0x4"/>
    </TTGlyph>
    <TTGlyph name="Ygrave" xMin="83" yMin="0" xMax="542" yMax="816">
      <component glyphName="Y" x="0" y="0" flags="0x204"/>
      <component glyphName="uni0300.cap" x="184" y="0" flags="0x4"/>
    </TTGlyph>
    <TTGlyph name="Z" xMin="-1" yMin="0" xMax="541" yMax="656">
      <contour>
        <pt x="9" y="47" on="1"/>
        <pt x="434" y="591" on="1"/>
        <pt x="134" y="591" on="1"/>
        <pt x="148" y="656" on="1"/>
        <pt x="541" y="656" on="1"/>
        <pt x="531" y="610" on="1"/>
        <pt x="109" y="66" on="1"/>
        <pt x="440" y="66" on="1"/>
        <pt x="425" y="0" on="1"/>
        <pt x="-1" y="0" on="1"/>
      </contour>
    </TTGlyph>
    <TTGlyph name="Zacute" xMin="-1" yMin="0" xMax="541" yMax="816">
      <component glyphName="Z" x="0" y="0" flags="0x204"/>
      <component glyphName="uni0301.cap" x="222" y="0" flags="0x4"/>
    </TTGlyph>
    <TTGlyph name="Zcaron" xMin="-1" yMin="0" xMax="541" yMax="816">
      <component glyphName="Z" x="0" y="0" flags="0x204"/>
      <component glyphName="uni030C.cap" x="222" y="0" flags="0x4"/>
    </TTGlyph>
    <TTGlyph name="Zdotaccent" xMin="-1" yMin="0" xMax="541" yMax="819">
      <component glyphName="Z" x="0" y="0" flags="0x204"/>
      <component glyphName="uni0307.cap" x="222" y="0" flags="0x4"/>
    </TTGlyph>
    <TTGlyph name="a" xMin="39" yMin="-12" xMax="504" yMax="498">
      <contour>
        <pt x="39" y="164" on="1"/>
        <pt x="39" y="234" on="0"/>
        <pt x="83" y="356" on="0"/>
        <pt x="157" y="446" on="0"/>
        <pt x="251" y="498" on="0"/>
        <pt x="302" y="498" on="1"/>
        <pt x="341" y="498" on="0"/>
        <pt x="402" y="458" on="0"/>
        <pt x="419" y="425" on="1"/>
        <pt x="423" y="425" on="1"/>
        <pt x="442" y="486" on="1"/>
        <pt x="504" y="486" on="1"/>
        <pt x="407" y="0" on="1"/>
        <pt x="344" y="0" on="1"/>
        <pt x="352" y="72" on="1"/>
        <pt x="348" y="72" on="1"/>
        <pt x="313" y="34" on="0"/>
        <pt x="225" y="-12" on="0"/>
        <pt x="179" y="-12" on="1"/>
        <pt x="115" y="-12" on="0"/>
        <pt x="39" y="78" on="0"/>
      </contour>
      <contour>
        <pt x="207" y="52" on="1"/>
        <pt x="245" y="52" on="0"/>
        <pt x="324" y="97" on="0"/>
        <pt x="360" y="145" on="1"/>
        <pt x="404" y="362" on="1"/>
        <pt x="383" y="400" on="0"/>
        <pt x="333" y="434" on="0"/>
        <pt x="305" y="434" on="1"/>
        <pt x="269" y="434" on="0"/>
        <pt x="201" y="391" on="0"/>
        <pt x="149" y="319" on="0"/>
        <pt x="118" y="226" on="0"/>
        <pt x="118" y="176" on="1"/>
        <pt x="118" y="113" on="0"/>
        <pt x="166" y="52" on="0"/>
      </contour>
    </TTGlyph>
    <TTGlyph name="a.a" xMin="32" yMin="-12" xMax="437" yMax="498">
      <contour>
        <pt x="32" y="106" on="1"/>
        <pt x="32" y="158" on="0"/>
        <pt x="79" y="230" on="0"/>
        <pt x="165" y="277" on="0"/>
        <pt x="283" y="299" on="0"/>
        <pt x="355" y="301" on="1"/>
        <pt x="359" y="315" on="0"/>
        <pt x="361" y="335" on="0"/>
        <pt x="361" y="346" on="1"/>
        <pt x="361" y="396" on="0"/>
        <pt x="318" y="436" on="0"/>
        <pt x="273" y="436" on="1"/>
        <pt x="240" y="436" on="0"/>
        <pt x="173" y="412" on="0"/>
        <pt x="138" y="392" on="1"/>
        <pt x="113" y="448" on="1"/>
        <pt x="151" y="469" on="0"/>
        <pt x="242" y="498" on="0"/>
        <pt x="287" y="498" on="1"/>
        <pt x="358" y="498" on="0"/>
        <pt x="437" y="431" on="0"/>
        <pt x="437" y="353" on="1"/>
        <pt x="437" y="338" on="0"/>
        <pt x="433" y="302" on="0"/>
        <pt x="429" y="286" on="1"/>
        <pt x="372" y="0" on="1"/>
        <pt x="310" y="0" on="1"/>
        <pt x="314" y="57" on="1"/>
        <pt x="311" y="57" on="1"/>
        <pt x="279" y="28" on="0"/>
        <pt x="195" y="-12" on="0"/>
        <pt x="153" y="-12" on="1"/>
        <pt x="129" y="-12" on="0"/>
        <pt x="85" y="3" on="0"/>
        <pt x="52" y="33" on="0"/>
        <pt x="32" y="77" on="0"/>
      </contour>
      <contour>
        <pt x="346" y="250" on="1"/>
        <pt x="232" y="247" on="0"/>
        <pt x="107" y="183" on="0"/>
        <pt x="107" y="122" on="1"/>
        <pt x="107" y="84" on="0"/>
        <pt x="151" y="49" on="0"/>
        <pt x="185" y="49" on="1"/>
        <pt x="244" y="49" on="0"/>
        <pt x="319" y="115" on="1"/>
      </contour>
    </TTGlyph>
    <TTGlyph name="a.supa" xMin="58" yMin="258" xMax="331" yMax="596">
      <contour>
        <pt x="58" y="337" on="1"/>
        <pt x="58" y="371" on="0"/>
        <pt x="90" y="420" on="0"/>
        <pt x="147" y="451" on="0"/>
        <pt x="225" y="466" on="0"/>
        <pt x="270" y="468" on="1"/>
        <pt x="272" y="476" on="0"/>
        <pt x="273" y="487" on="0"/>
        <pt x="273" y="493" on="1"/>
        <pt x="273" y="521" on="0"/>
        <pt x="247" y="549" on="0"/>
        <pt x="217" y="549" on="1"/>
        <pt x="196" y="549" on="0"/>
        <pt x="153" y="534" on="0"/>
        <pt x="129" y="522" on="1"/>
        <pt x="110" y="563" on="1"/>
        <pt x="137" y="577" on="0"/>
        <pt x="198" y="596" on="0"/>
        <pt x="228" y="596" on="1"/>
        <pt x="277" y="596" on="0"/>
        <pt x="331" y="551" on="0"/>
        <pt x="331" y="499" on="1"/>
        <pt x="331" y="489" on="0"/>
        <pt x="327" y="465" on="0"/>
        <pt x="325" y="454" on="1"/>
        <pt x="288" y="266" on="1"/>
        <pt x="242" y="266" on="1"/>
        <pt x="246" y="305" on="1"/>
        <pt x="242" y="305" on="1"/>
        <pt x="222" y="285" on="0"/>
        <pt x="166" y="258" on="0"/>
        <pt x="140" y="258" on="1"/>
        <pt x="105" y="258" on="0"/>
        <pt x="58" y="299" on="0"/>
      </contour>
      <contour>
        <pt x="263" y="430" on="1"/>
        <pt x="194" y="428" on="0"/>
        <pt x="114" y="386" on="0"/>
        <pt x="114" y="348" on="1"/>
        <pt x="114" y="325" on="0"/>
        <pt x="140" y="304" on="0"/>
        <pt x="160" y="304" on="1"/>
        <pt x="182" y="304" on="0"/>
        <pt x="224" y="328" on="0"/>
        <pt x="247" y="348" on="1"/>
      </contour>
    </TTGlyph>
    <TTGlyph name="a.sups" xMin="60" yMin="258" xMax="374" yMax="596">
      <contour>
        <pt x="60" y="377" on="1"/>
        <pt x="60" y="423" on="0"/>
        <pt x="90" y="503" on="0"/>
        <pt x="139" y="562" on="0"/>
        <pt x="202" y="596" on="0"/>
        <pt x="236" y="596" on="1"/>
        <pt x="259" y="596" on="0"/>
        <pt x="299" y="573" on="0"/>
        <pt x="310" y="549" on="1"/>
        <pt x="314" y="549" on="1"/>
        <pt x="328" y="588" on="1"/>
        <pt x="374" y="588" on="1"/>
        <pt x="310" y="266" on="1"/>
        <pt x="263" y="266" on="1"/>
        <pt x="269" y="314" on="1"/>
        <pt x="265" y="314" on="1"/>
        <pt x="242" y="288" on="0"/>
        <pt x="184" y="258" on="0"/>
        <pt x="154" y="258" on="1"/>
        <pt x="111" y="258" on="0"/>
        <pt x="60" y="319" on="0"/>
      </contour>
      <contour>
        <pt x="173" y="307" on="1"/>
        <pt x="196" y="307" on="0"/>
        <pt x="250" y="340" on="0"/>
        <pt x="273" y="369" on="1"/>
        <pt x="299" y="502" on="1"/>
        <pt x="286" y="528" on="0"/>
        <pt x="255" y="548" on="0"/>
        <pt x="238" y="548" on="1"/>
        <pt x="215" y="548" on="0"/>
        <pt x="172" y="521" on="0"/>
        <pt x="139" y="476" on="0"/>
        <pt x="118" y="416" on="0"/>
        <pt x="118" y="384" on="1"/>
        <pt x="118" y="344" on="0"/>
        <pt x="149" y="307" on="0"/>
      </contour>
    </TTGlyph>
    <TTGlyph name="aacute" xMin="39" yMin="-12" xMax="504" yMax="712">
      <component glyphName="a" x="0" y="0" flags="0x204"/>
      <component glyphName="uni0301" x="213" y="0" flags="0x4"/>
    </TTGlyph>
    <TTGlyph name="aacute.a" xMin="32" yMin="-12" xMax="438" yMax="712">
      <component glyphName="a.a" x="0" y="0" flags="0x204"/>
      <component glyphName="uni0301" x="193" y="0" flags="0x4"/>
    </TTGlyph>
    <TTGlyph name="abreve" xMin="39" yMin="-12" xMax="504" yMax="700">
      <component glyphName="a" x="0" y="0" flags="0x204"/>
      <component glyphName="uni0306" x="213" y="0" flags="0x4"/>
    </TTGlyph>
    <TTGlyph name="abreve.a" xMin="32" yMin="-12" xMax="452" yMax="700">
      <component glyphName="a.a" x="0" y="0" flags="0x204"/>
      <component glyphName="uni0306" x="193" y="0" flags="0x4"/>
    </TTGlyph>
    <TTGlyph name="acircumflex" xMin="39" yMin="-12" xMax="504" yMax="712">
      <component glyphName="a" x="0" y="0" flags="0x204"/>
      <component glyphName="uni0302" x="213" y="0" flags="0x4"/>
    </TTGlyph>
    <TTGlyph name="acircumflex.a" xMin="32" yMin="-12" xMax="437" yMax="712">
      <component glyphName="a.a" x="0" y="0" flags="0x204"/>
      <component glyphName="uni0302" x="193" y="0" flags="0x4"/>
    </TTGlyph>
    <TTGlyph name="acute" xMin="263" yMin="571" xMax="461" yMax="712">
      <component glyphName="uni0301" x="216" y="0" flags="0x4"/>
    </TTGlyph>
    <TTGlyph name="adieresis" xMin="39" yMin="-12" xMax="504" yMax="684">
      <component glyphName="a" x="0" y="0" flags="0x204"/>
      <component glyphName="uni0308" x="213" y="0" flags="0x4"/>
    </TTGlyph>
    <TTGlyph name="adieresis.a" xMin="32" yMin="-12" xMax="447" yMax="684">
      <component glyphName="a.a" x="0" y="0" flags="0x204"/>
      <component glyphName="uni0308" x="193" y="0" flags="0x4"/>
    </TTGlyph>
    <TTGlyph name="ae" xMin="32" yMin="-12" xMax="728" yMax="498">
      <contour>
        <pt x="32" y="106" on="1"/>
        <pt x="32" y="158" on="0"/>
        <pt x="79" y="230" on="0"/>
        <pt x="163" y="276" on="0"/>
        <pt x="280" y="299" on="0"/>
        <pt x="350" y="301" on="1"/>
        <pt x="353" y="315" on="0"/>
        <pt x="355" y="334" on="0"/>
        <pt x="355" y="345" on="1"/>
        <pt x="355" y="390" on="0"/>
        <pt x="316" y="436" on="0"/>
        <pt x="271" y="436" on="1"/>
        <pt x="239" y="436" on="0"/>
        <pt x="170" y="412" on="0"/>
        <pt x="135" y="392" on="1"/>
        <pt x="114" y="448" on="1"/>
        <pt x="152" y="469" on="0"/>
        <pt x="242" y="498" on="0"/>
        <pt x="287" y="498" on="1"/>
        <pt x="337" y="498" on="0"/>
        <pt x="402" y="451" on="0"/>
        <pt x="410" y="403" on="1"/>
        <pt x="444" y="448" on="0"/>
        <pt x="531" y="498" on="0"/>
        <pt x="577" y="498" on="1"/>
        <pt x="618" y="498" on="0"/>
        <pt x="675" y="471" on="0"/>
        <pt x="711" y="424" on="0"/>
        <pt x="728" y="359" on="0"/>
        <pt x="728" y="322" on="1"/>
        <pt x="728" y="293" on="0"/>
        <pt x="715" y="241" on="0"/>
        <pt x="710" y="227" on="1"/>
        <pt x="407" y="227" on="1"/>
        <pt x="401" y="187" on="0"/>
        <pt x="413" y="121" on="0"/>
        <pt x="445" y="75" on="0"/>
        <pt x="494" y="49" on="0"/>
        <pt x="526" y="49" on="1"/>
        <pt x="555" y="49" on="0"/>
        <pt x="612" y="74" on="0"/>
        <pt x="635" y="91" on="1"/>
        <pt x="665" y="40" on="1"/>
        <pt x="636" y="19" on="0"/>
        <pt x="558" y="-12" on="0"/>
        <pt x="511" y="-12" on="1"/>
        <pt x="458" y="-12" on="0"/>
        <pt x="375" y="43" on="0"/>
        <pt x="358" y="84" on="1"/>
        <pt x="310" y="39" on="0"/>
        <pt x="211" y="-12" on="0"/>
        <pt x="157" y="-12" on="1"/>
        <pt x="131" y="-12" on="0"/>
        <pt x="86" y="3" on="0"/>
        <pt x="52" y="33" on="0"/>
        <pt x="32" y="77" on="0"/>
      </contour>
      <contour>
        <pt x="657" y="279" on="1"/>
        <pt x="659" y="293" on="0"/>
        <pt x="662" y="315" on="0"/>
        <pt x="662" y="329" on="1"/>
        <pt x="662" y="350" on="0"/>
        <pt x="652" y="389" on="0"/>
        <pt x="630" y="419" on="0"/>
        <pt x="594" y="437" on="0"/>
        <pt x="568" y="437" on="1"/>
        <pt x="545" y="437" on="0"/>
        <pt x="498" y="415" on="0"/>
        <pt x="457" y="373" on="0"/>
        <pt x="424" y="315" on="0"/>
        <pt x="415" y="279" on="1"/>
      </contour>
      <contour>
        <pt x="340" y="250" on="1"/>
        <pt x="231" y="247" on="0"/>
        <pt x="107" y="183" on="0"/>
        <pt x="107" y="122" on="1"/>
        <pt x="107" y="87" on="0"/>
        <pt x="151" y="49" on="0"/>
        <pt x="185" y="49" on="1"/>
        <pt x="216" y="49" on="0"/>
        <pt x="296" y="91" on="0"/>
        <pt x="338" y="135" on="1"/>
        <pt x="334" y="167" on="0"/>
        <pt x="335" y="218" on="0"/>
      </contour>
    </TTGlyph>
    <TTGlyph name="agrave" xMin="39" yMin="-12" xMax="504" yMax="712">
      <component glyphName="a" x="0" y="0" flags="0x204"/>
      <component glyphName="uni0300" x="213" y="0" flags="0x4"/>
    </TTGlyph>
    <TTGlyph name="agrave.a" xMin="32" yMin="-12" xMax="437" yMax="712">
      <component glyphName="a.a" x="0" y="0" flags="0x204"/>
      <component glyphName="uni0300" x="193" y="0" flags="0x4"/>
    </TTGlyph>
    <TTGlyph name="amacron" xMin="39" yMin="-12" xMax="504" yMax="655">
      <component glyphName="a" x="0" y="0" flags="0x204"/>
      <component glyphName="uni0304" x="213" y="0" flags="0x4"/>
    </TTGlyph>
    <TTGlyph name="amacron.a" xMin="32" yMin="-12" xMax="438" yMax="655">
      <component glyphName="a.a" x="0" y="0" flags="0x204"/>
      <component glyphName="uni0304" x="193" y="0" flags="0x4"/>
    </TTGlyph>
    <TTGlyph name="ampersand" xMin="15" yMin="-12" xMax="580" yMax="668">
      <contour>
        <pt x="91" y="151" on="1"/>
        <pt x="91" y="105" on="0"/>
        <pt x="148" y="49" on="0"/>
        <pt x="194" y="49" on="1"/>
        <pt x="229" y="49" on="0"/>
        <pt x="298" y="77" on="0"/>
        <pt x="330" y="102" on="1"/>
        <pt x="291" y="145" on="0"/>
        <pt x="225" y="248" on="0"/>
        <pt x="202" y="304" on="1"/>
        <pt x="155" y="272" on="0"/>
        <pt x="91" y="200" on="0"/>
      </contour>
      <contour>
        <pt x="229" y="480" on="1"/>
        <pt x="229" y="442" on="0"/>
        <pt x="240" y="398" on="1"/>
        <pt x="268" y="415" on="0"/>
        <pt x="319" y="449" on="0"/>
        <pt x="357" y="487" on="0"/>
        <pt x="380" y="531" on="0"/>
        <pt x="380" y="558" on="1"/>
        <pt x="380" y="581" on="0"/>
        <pt x="356" y="614" on="0"/>
        <pt x="330" y="614" on="1"/>
        <pt x="309" y="614" on="0"/>
        <pt x="272" y="594" on="0"/>
        <pt x="245" y="558" on="0"/>
        <pt x="229" y="509" on="0"/>
      </contour>
      <contour>
        <pt x="580" y="352" on="1"/>
        <pt x="549" y="286" on="0"/>
        <pt x="473" y="163" on="0"/>
        <pt x="425" y="111" on="1"/>
        <pt x="480" y="67" on="0"/>
        <pt x="527" y="50" on="1"/>
        <pt x="495" y="-12" on="1"/>
        <pt x="434" y="8" on="0"/>
        <pt x="372" y="61" on="1"/>
        <pt x="330" y="27" on="0"/>
        <pt x="234" y="-12" on="0"/>
        <pt x="180" y="-12" on="1"/>
        <pt x="105" y="-12" on="0"/>
        <pt x="15" y="71" on="0"/>
        <pt x="15" y="141" on="1"/>
        <pt x="15" y="181" on="0"/>
        <pt x="43" y="246" on="0"/>
        <pt x="89" y="300" on="0"/>
        <pt x="149" y="343" on="0"/>
        <pt x="181" y="363" on="1"/>
        <pt x="163" y="421" on="0"/>
        <pt x="163" y="476" on="1"/>
        <pt x="163" y="518" on="0"/>
        <pt x="191" y="588" on="0"/>
        <pt x="238" y="639" on="0"/>
        <pt x="300" y="668" on="0"/>
        <pt x="335" y="668" on="1"/>
        <pt x="389" y="668" on="0"/>
        <pt x="443" y="607" on="0"/>
        <pt x="443" y="561" on="1"/>
        <pt x="443" y="523" on="0"/>
        <pt x="411" y="461" on="0"/>
        <pt x="359" y="408" on="0"/>
        <pt x="293" y="363" on="0"/>
        <pt x="259" y="342" on="1"/>
        <pt x="280" y="289" on="0"/>
        <pt x="344" y="191" on="0"/>
        <pt x="382" y="151" on="1"/>
        <pt x="423" y="194" on="0"/>
        <pt x="484" y="294" on="0"/>
        <pt x="510" y="352" on="1"/>
      </contour>
    </TTGlyph>
    <TTGlyph name="aogonek" xMin="39" yMin="-206" xMax="504" yMax="498">
      <contour>
        <pt x="39" y="164" on="1"/>
        <pt x="39" y="234" on="0"/>
        <pt x="83" y="356" on="0"/>
        <pt x="157" y="446" on="0"/>
        <pt x="251" y="498" on="0"/>
        <pt x="302" y="498" on="1"/>
        <pt x="341" y="498" on="0"/>
        <pt x="404" y="457" on="0"/>
        <pt x="421" y="423" on="1"/>
        <pt x="423" y="423" on="1"/>
        <pt x="442" y="486" on="1"/>
        <pt x="504" y="486" on="1"/>
        <pt x="407" y="0" on="1"/>
        <pt x="356" y="-23" on="0"/>
        <pt x="297" y="-85" on="0"/>
        <pt x="297" y="-118" on="1"/>
        <pt x="297" y="-135" on="0"/>
        <pt x="318" y="-155" on="0"/>
        <pt x="333" y="-155" on="1"/>
        <pt x="344" y="-155" on="0"/>
        <pt x="361" y="-149" on="0"/>
        <pt x="371" y="-143" on="1"/>
        <pt x="387" y="-181" on="1"/>
        <pt x="370" y="-192" on="0"/>
        <pt x="328" y="-206" on="0"/>
        <pt x="311" y="-206" on="1"/>
        <pt x="278" y="-206" on="0"/>
        <pt x="236" y="-172" on="0"/>
        <pt x="236" y="-139" on="1"/>
        <pt x="236" y="-117" on="0"/>
        <pt x="256" y="-74" on="0"/>
        <pt x="287" y="-36" on="0"/>
        <pt x="326" y="-5" on="0"/>
        <pt x="345" y="6" on="1"/>
        <pt x="352" y="73" on="1"/>
        <pt x="350" y="73" on="1"/>
        <pt x="314" y="36" on="0"/>
        <pt x="225" y="-12" on="0"/>
        <pt x="179" y="-12" on="1"/>
        <pt x="115" y="-12" on="0"/>
        <pt x="39" y="78" on="0"/>
      </contour>
      <contour>
        <pt x="207" y="52" on="1"/>
        <pt x="241" y="52" on="0"/>
        <pt x="324" y="97" on="0"/>
        <pt x="360" y="145" on="1"/>
        <pt x="404" y="363" on="1"/>
        <pt x="383" y="401" on="0"/>
        <pt x="333" y="434" on="0"/>
        <pt x="305" y="434" on="1"/>
        <pt x="269" y="434" on="0"/>
        <pt x="201" y="391" on="0"/>
        <pt x="149" y="319" on="0"/>
        <pt x="118" y="226" on="0"/>
        <pt x="118" y="176" on="1"/>
        <pt x="118" y="113" on="0"/>
        <pt x="166" y="52" on="0"/>
      </contour>
    </TTGlyph>
    <TTGlyph name="aogonek.a" xMin="32" yMin="-206" xMax="437" yMax="498">
      <contour>
        <pt x="314" y="57" on="1"/>
        <pt x="311" y="57" on="1"/>
        <pt x="279" y="28" on="0"/>
        <pt x="195" y="-12" on="0"/>
        <pt x="153" y="-12" on="1"/>
        <pt x="129" y="-12" on="0"/>
        <pt x="85" y="3" on="0"/>
        <pt x="52" y="33" on="0"/>
        <pt x="32" y="77" on="0"/>
        <pt x="32" y="106" on="1"/>
        <pt x="32" y="158" on="0"/>
        <pt x="79" y="230" on="0"/>
        <pt x="165" y="277" on="0"/>
        <pt x="283" y="299" on="0"/>
        <pt x="355" y="301" on="1"/>
        <pt x="359" y="315" on="0"/>
        <pt x="361" y="335" on="0"/>
        <pt x="361" y="346" on="1"/>
        <pt x="361" y="396" on="0"/>
        <pt x="318" y="436" on="0"/>
        <pt x="273" y="436" on="1"/>
        <pt x="240" y="436" on="0"/>
        <pt x="173" y="412" on="0"/>
        <pt x="138" y="392" on="1"/>
        <pt x="113" y="448" on="1"/>
        <pt x="151" y="469" on="0"/>
        <pt x="242" y="498" on="0"/>
        <pt x="287" y="498" on="1"/>
        <pt x="358" y="498" on="0"/>
        <pt x="437" y="431" on="0"/>
        <pt x="437" y="353" on="1"/>
        <pt x="437" y="338" on="0"/>
        <pt x="433" y="302" on="0"/>
        <pt x="429" y="286" on="1"/>
        <pt x="372" y="0" on="1"/>
        <pt x="321" y="-23" on="0"/>
        <pt x="262" y="-85" on="0"/>
        <pt x="262" y="-118" on="1"/>
        <pt x="262" y="-135" on="0"/>
        <pt x="283" y="-155" on="0"/>
        <pt x="298" y="-155" on="1"/>
        <pt x="318" y="-155" on="0"/>
        <pt x="336" y="-143" on="1"/>
        <pt x="352" y="-181" on="1"/>
        <pt x="335" y="-192" on="0"/>
        <pt x="293" y="-206" on="0"/>
        <pt x="276" y="-206" on="1"/>
        <pt x="244" y="-206" on="0"/>
        <pt x="201" y="-172" on="0"/>
        <pt x="201" y="-139" on="1"/>
        <pt x="201" y="-117" on="0"/>
        <pt x="221" y="-74" on="0"/>
        <pt x="252" y="-36" on="0"/>
        <pt x="291" y="-5" on="0"/>
        <pt x="311" y="6" on="1"/>
      </contour>
      <contour>
        <pt x="346" y="250" on="1"/>
        <pt x="232" y="247" on="0"/>
        <pt x="107" y="183" on="0"/>
        <pt x="107" y="122" on="1"/>
        <pt x="107" y="84" on="0"/>
        <pt x="151" y="49" on="0"/>
        <pt x="185" y="49" on="1"/>
        <pt x="244" y="49" on="0"/>
        <pt x="319" y="115" on="1"/>
      </contour>
    </TTGlyph>
    <TTGlyph name="approxequal" xMin="45" yMin="154" xMax="451" yMax="508">
      <component glyphName="asciitilde" x="0" y="106" flags="0x204"/>
      <component glyphName="asciitilde" x="0" y="-106" flags="0x4"/>
    </TTGlyph>
    <TTGlyph name="aring" xMin="39" yMin="-12" xMax="504" yMax="724">
      <component glyphName="a" x="0" y="0" flags="0x204"/>
      <component glyphName="uni030A" x="213" y="1" flags="0x4"/>
    </TTGlyph>
    <TTGlyph name="aring.a" xMin="32" yMin="-12" xMax="437" yMax="724">
      <component glyphName="a.a" x="0" y="0" flags="0x204"/>
      <component glyphName="uni030A" x="193" y="1" flags="0x4"/>
    </TTGlyph>
    <TTGlyph name="arrowdown" xMin="30" yMin="-27" xMax="563" yMax="527">
      <contour>
        <pt x="294" y="-27" on="1"/>
        <pt x="30" y="235" on="1"/>
        <pt x="72" y="274" on="1"/>
        <pt x="265" y="79" on="1"/>
        <pt x="265" y="527" on="1"/>
        <pt x="328" y="527" on="1"/>
        <pt x="328" y="79" on="1"/>
        <pt x="521" y="274" on="1"/>
        <pt x="563" y="235" on="1"/>
        <pt x="299" y="-27" on="1"/>
      </contour>
    </TTGlyph>
    <TTGlyph name="arrowup" xMin="30" yMin="-27" xMax="563" yMax="527">
      <contour>
        <pt x="299" y="527" on="1"/>
        <pt x="563" y="266" on="1"/>
        <pt x="521" y="227" on="1"/>
        <pt x="328" y="422" on="1"/>
        <pt x="328" y="-27" on="1"/>
        <pt x="265" y="-27" on="1"/>
        <pt x="265" y="422" on="1"/>
        <pt x="72" y="227" on="1"/>
        <pt x="30" y="266" on="1"/>
        <pt x="294" y="527" on="1"/>
      </contour>
    </TTGlyph>
    <TTGlyph name="asciicircum" xMin="83" yMin="283" xMax="437" yMax="670">
      <contour>
        <pt x="229" y="670" on="1"/>
        <pt x="291" y="670" on="1"/>
        <pt x="437" y="283" on="1"/>
        <pt x="373" y="283" on="1"/>
        <pt x="308" y="461" on="1"/>
        <pt x="263" y="594" on="1"/>
        <pt x="260" y="594" on="1"/>
        <pt x="213" y="461" on="1"/>
        <pt x="149" y="283" on="1"/>
        <pt x="83" y="283" on="1"/>
      </contour>
    </TTGlyph>
    <TTGlyph name="asciitilde" xMin="45" yMin="260" xMax="451" yMax="402">
      <contour>
        <pt x="45" y="313" on="1"/>
        <pt x="70" y="360" on="0"/>
        <pt x="133" y="402" on="0"/>
        <pt x="164" y="402" on="1"/>
        <pt x="191" y="402" on="0"/>
        <pt x="236" y="375" on="0"/>
        <pt x="277" y="343" on="0"/>
        <pt x="314" y="316" on="0"/>
        <pt x="334" y="316" on="1"/>
        <pt x="356" y="316" on="0"/>
        <pt x="391" y="345" on="0"/>
        <pt x="408" y="377" on="1"/>
        <pt x="451" y="349" on="1"/>
        <pt x="426" y="302" on="0"/>
        <pt x="363" y="260" on="0"/>
        <pt x="332" y="260" on="1"/>
        <pt x="305" y="260" on="0"/>
        <pt x="260" y="287" on="0"/>
        <pt x="219" y="319" on="0"/>
        <pt x="182" y="346" on="0"/>
        <pt x="162" y="346" on="1"/>
        <pt x="140" y="346" on="0"/>
        <pt x="105" y="317" on="0"/>
        <pt x="88" y="285" on="1"/>
      </contour>
    </TTGlyph>
    <TTGlyph name="asterisk" xMin="125" yMin="422" xMax="413" yMax="713">
      <contour>
        <pt x="144" y="463" on="1"/>
        <pt x="213" y="551" on="1"/>
        <pt x="125" y="600" on="1"/>
        <pt x="143" y="640" on="1"/>
        <pt x="242" y="607" on="1"/>
        <pt x="267" y="713" on="1"/>
        <pt x="311" y="709" on="1"/>
        <pt x="303" y="602" on="1"/>
        <pt x="406" y="616" on="1"/>
        <pt x="413" y="573" on="1"/>
        <pt x="310" y="542" on="1"/>
        <pt x="348" y="445" on="1"/>
        <pt x="308" y="422" on="1"/>
        <pt x="256" y="510" on="1"/>
        <pt x="176" y="434" on="1"/>
      </contour>
    </TTGlyph>
    <TTGlyph name="at" xMin="45" yMin="-155" xMax="777" yMax="644">
      <contour>
        <pt x="581" y="100" on="1"/>
        <pt x="605" y="100" on="0"/>
        <pt x="656" y="131" on="0"/>
        <pt x="696" y="192" on="0"/>
        <pt x="722" y="281" on="0"/>
        <pt x="722" y="338" on="1"/>
        <pt x="722" y="392" on="0"/>
        <pt x="693" y="486" on="0"/>
        <pt x="631" y="554" on="0"/>
        <pt x="537" y="593" on="0"/>
        <pt x="473" y="593" on="1"/>
        <pt x="405" y="593" on="0"/>
        <pt x="272" y="529" on="0"/>
        <pt x="167" y="416" on="0"/>
        <pt x="102" y="263" on="0"/>
        <pt x="102" y="174" on="1"/>
        <pt x="102" y="107" on="0"/>
        <pt x="143" y="4" on="0"/>
        <pt x="212" y="-67" on="0"/>
        <pt x="305" y="-103" on="0"/>
        <pt x="358" y="-103" on="1"/>
        <pt x="433" y="-103" on="0"/>
        <pt x="493" y="-66" on="1"/>
        <pt x="516" y="-112" on="1"/>
        <pt x="436" y="-155" on="0"/>
        <pt x="352" y="-155" on="1"/>
        <pt x="287" y="-155" on="0"/>
        <pt x="175" y="-112" on="0"/>
        <pt x="93" y="-31" on="0"/>
        <pt x="45" y="87" on="0"/>
        <pt x="45" y="163" on="1"/>
        <pt x="45" y="266" on="0"/>
        <pt x="118" y="442" on="0"/>
        <pt x="239" y="571" on="0"/>
        <pt x="396" y="644" on="0"/>
        <pt x="480" y="644" on="1"/>
        <pt x="551" y="644" on="0"/>
        <pt x="661" y="600" on="0"/>
        <pt x="737" y="521" on="0"/>
        <pt x="777" y="412" on="0"/>
        <pt x="777" y="348" on="1"/>
        <pt x="777" y="275" on="0"/>
        <pt x="742" y="163" on="0"/>
        <pt x="683" y="86" on="0"/>
        <pt x="607" y="47" on="0"/>
        <pt x="567" y="47" on="1"/>
        <pt x="532" y="47" on="0"/>
        <pt x="484" y="88" on="0"/>
        <pt x="477" y="123" on="1"/>
        <pt x="474" y="123" on="1"/>
        <pt x="451" y="94" on="0"/>
        <pt x="392" y="56" on="0"/>
        <pt x="359" y="56" on="1"/>
        <pt x="336" y="56" on="0"/>
        <pt x="294" y="74" on="0"/>
        <pt x="263" y="108" on="0"/>
        <pt x="244" y="159" on="0"/>
        <pt x="244" y="191" on="1"/>
        <pt x="244" y="235" on="0"/>
        <pt x="275" y="321" on="0"/>
        <pt x="328" y="388" on="0"/>
        <pt x="399" y="429" on="0"/>
        <pt x="440" y="429" on="1"/>
        <pt x="487" y="429" on="0"/>
        <pt x="513" y="378" on="1"/>
        <pt x="515" y="378" on="1"/>
        <pt x="528" y="421" on="1"/>
        <pt x="579" y="421" on="1"/>
        <pt x="529" y="204" on="1"/>
        <pt x="518" y="157" on="0"/>
        <pt x="541" y="100" on="0"/>
      </contour>
      <contour>
        <pt x="305" y="198" on="1"/>
        <pt x="305" y="153" on="0"/>
        <pt x="344" y="109" on="0"/>
        <pt x="373" y="109" on="1"/>
        <pt x="418" y="109" on="0"/>
        <pt x="463" y="170" on="1"/>
        <pt x="499" y="331" on="1"/>
        <pt x="485" y="357" on="0"/>
        <pt x="457" y="376" on="0"/>
        <pt x="440" y="376" on="1"/>
        <pt x="410" y="376" on="0"/>
        <pt x="361" y="342" on="0"/>
        <pt x="325" y="290" on="0"/>
        <pt x="305" y="227" on="0"/>
      </contour>
    </TTGlyph>
    <TTGlyph name="at.case" xMin="98" yMin="-21" xMax="768" yMax="686">
      <contour>
        <pt x="599" y="201" on="1"/>
        <pt x="620" y="201" on="0"/>
        <pt x="661" y="230" on="0"/>
        <pt x="694" y="286" on="0"/>
        <pt x="715" y="367" on="0"/>
        <pt x="715" y="419" on="1"/>
        <pt x="715" y="466" on="0"/>
        <pt x="688" y="546" on="0"/>
        <pt x="634" y="604" on="0"/>
        <pt x="550" y="637" on="0"/>
        <pt x="493" y="637" on="1"/>
        <pt x="430" y="637" on="0"/>
        <pt x="308" y="580" on="0"/>
        <pt x="212" y="479" on="0"/>
        <pt x="154" y="342" on="0"/>
        <pt x="154" y="262" on="1"/>
        <pt x="154" y="206" on="0"/>
        <pt x="187" y="120" on="0"/>
        <pt x="245" y="60" on="0"/>
        <pt x="327" y="29" on="0"/>
        <pt x="377" y="29" on="1"/>
        <pt x="413" y="29" on="0"/>
        <pt x="484" y="46" on="0"/>
        <pt x="513" y="63" on="1"/>
        <pt x="527" y="20" on="1"/>
        <pt x="489" y="-3" on="0"/>
        <pt x="406" y="-21" on="0"/>
        <pt x="368" y="-21" on="1"/>
        <pt x="309" y="-21" on="0"/>
        <pt x="210" y="17" on="0"/>
        <pt x="138" y="87" on="0"/>
        <pt x="98" y="188" on="0"/>
        <pt x="98" y="251" on="1"/>
        <pt x="98" y="347" on="0"/>
        <pt x="165" y="506" on="0"/>
        <pt x="277" y="622" on="0"/>
        <pt x="421" y="686" on="0"/>
        <pt x="498" y="686" on="1"/>
        <pt x="564" y="686" on="0"/>
        <pt x="665" y="647" on="0"/>
        <pt x="733" y="577" on="0"/>
        <pt x="768" y="481" on="0"/>
        <pt x="768" y="425" on="1"/>
        <pt x="768" y="358" on="0"/>
        <pt x="738" y="255" on="0"/>
        <pt x="687" y="185" on="0"/>
        <pt x="620" y="149" on="0"/>
        <pt x="584" y="149" on="1"/>
        <pt x="549" y="149" on="0"/>
        <pt x="504" y="188" on="0"/>
        <pt x="497" y="223" on="1"/>
        <pt x="494" y="223" on="1"/>
        <pt x="472" y="194" on="0"/>
        <pt x="414" y="157" on="0"/>
        <pt x="383" y="157" on="1"/>
        <pt x="341" y="157" on="0"/>
        <pt x="279" y="225" on="0"/>
        <pt x="279" y="289" on="1"/>
        <pt x="279" y="328" on="0"/>
        <pt x="307" y="405" on="0"/>
        <pt x="356" y="465" on="0"/>
        <pt x="422" y="502" on="0"/>
        <pt x="460" y="502" on="1"/>
        <pt x="506" y="502" on="0"/>
        <pt x="530" y="453" on="1"/>
        <pt x="532" y="453" on="1"/>
        <pt x="546" y="496" on="1"/>
        <pt x="596" y="496" on="1"/>
        <pt x="551" y="304" on="1"/>
        <pt x="540" y="257" on="0"/>
        <pt x="561" y="201" on="0"/>
      </contour>
      <contour>
        <pt x="339" y="296" on="1"/>
        <pt x="339" y="251" on="0"/>
        <pt x="373" y="210" on="0"/>
        <pt x="398" y="210" on="1"/>
        <pt x="419" y="210" on="0"/>
        <pt x="462" y="238" on="0"/>
        <pt x="485" y="270" on="1"/>
        <pt x="515" y="405" on="1"/>
        <pt x="502" y="431" on="0"/>
        <pt x="475" y="449" on="0"/>
        <pt x="459" y="449" on="1"/>
        <pt x="432" y="449" on="0"/>
        <pt x="388" y="420" on="0"/>
        <pt x="356" y="375" on="0"/>
        <pt x="339" y="321" on="0"/>
      </contour>
    </TTGlyph>
    <TTGlyph name="atilde" xMin="39" yMin="-12" xMax="504" yMax="682">
      <component glyphName="a" x="0" y="0" flags="0x204"/>
      <component glyphName="uni0303" x="213" y="0" flags="0x4"/>
    </TTGlyph>
    <TTGlyph name="atilde.a" xMin="32" yMin="-12" xMax="465" yMax="682">
      <component glyphName="a.a" x="0" y="0" flags="0x204"/>
      <component glyphName="uni0303" x="193" y="0" flags="0x4"/>
    </TTGlyph>
    <TTGlyph name="b" xMin="31" yMin="-12" xMax="496" yMax="712">
      <contour>
        <pt x="31" y="0" on="1"/>
        <pt x="173" y="712" on="1"/>
        <pt x="250" y="712" on="1"/>
        <pt x="211" y="522" on="1"/>
        <pt x="189" y="426" on="1"/>
        <pt x="191" y="426" on="1"/>
        <pt x="227" y="455" on="0"/>
        <pt x="311" y="498" on="0"/>
        <pt x="356" y="498" on="1"/>
        <pt x="420" y="498" on="0"/>
        <pt x="496" y="408" on="0"/>
        <pt x="496" y="322" on="1"/>
        <pt x="496" y="252" on="0"/>
        <pt x="452" y="130" on="0"/>
        <pt x="379" y="40" on="0"/>
        <pt x="284" y="-12" on="0"/>
        <pt x="234" y="-12" on="1"/>
        <pt x="195" y="-12" on="0"/>
        <pt x="134" y="28" on="0"/>
        <pt x="117" y="61" on="1"/>
        <pt x="114" y="61" on="1"/>
        <pt x="94" y="0" on="1"/>
      </contour>
      <contour>
        <pt x="328" y="434" on="1"/>
        <pt x="294" y="434" on="0"/>
        <pt x="213" y="392" on="0"/>
        <pt x="178" y="355" on="1"/>
        <pt x="132" y="124" on="1"/>
        <pt x="152" y="86" on="0"/>
        <pt x="202" y="52" on="0"/>
        <pt x="231" y="52" on="1"/>
        <pt x="267" y="52" on="0"/>
        <pt x="335" y="95" on="0"/>
        <pt x="386" y="167" on="0"/>
        <pt x="417" y="260" on="0"/>
        <pt x="417" y="311" on="1"/>
        <pt x="417" y="373" on="0"/>
        <pt x="370" y="434" on="0"/>
      </contour>
    </TTGlyph>
    <TTGlyph name="b.sups" xMin="56" yMin="258" xMax="370" yMax="735">
      <contour>
        <pt x="56" y="266" on="1"/>
        <pt x="149" y="735" on="1"/>
        <pt x="207" y="735" on="1"/>
        <pt x="183" y="616" on="1"/>
        <pt x="167" y="551" on="1"/>
        <pt x="169" y="551" on="1"/>
        <pt x="192" y="571" on="0"/>
        <pt x="245" y="596" on="0"/>
        <pt x="276" y="596" on="1"/>
        <pt x="319" y="596" on="0"/>
        <pt x="370" y="536" on="0"/>
        <pt x="370" y="478" on="1"/>
        <pt x="370" y="432" on="0"/>
        <pt x="340" y="352" on="0"/>
        <pt x="291" y="292" on="0"/>
        <pt x="227" y="258" on="0"/>
        <pt x="193" y="258" on="1"/>
        <pt x="170" y="258" on="0"/>
        <pt x="131" y="281" on="0"/>
        <pt x="119" y="305" on="1"/>
        <pt x="115" y="305" on="1"/>
        <pt x="101" y="266" on="1"/>
      </contour>
      <contour>
        <pt x="257" y="548" on="1"/>
        <pt x="233" y="548" on="0"/>
        <pt x="181" y="522" on="0"/>
        <pt x="158" y="496" on="1"/>
        <pt x="130" y="352" on="1"/>
        <pt x="144" y="326" on="0"/>
        <pt x="174" y="307" on="0"/>
        <pt x="191" y="307" on="1"/>
        <pt x="213" y="307" on="0"/>
        <pt x="257" y="334" on="0"/>
        <pt x="290" y="379" on="0"/>
        <pt x="311" y="438" on="0"/>
        <pt x="311" y="470" on="1"/>
        <pt x="311" y="511" on="0"/>
        <pt x="280" y="548" on="0"/>
      </contour>
    </TTGlyph>
    <TTGlyph name="backslash" xMin="88" yMin="-160" xMax="257" yMax="710">
      <contour>
        <pt x="88" y="710" on="1"/>
        <pt x="140" y="710" on="1"/>
        <pt x="257" y="-160" on="1"/>
        <pt x="203" y="-160" on="1"/>
      </contour>
    </TTGlyph>
    <TTGlyph name="bar" xMin="95" yMin="-250" xMax="147" yMax="750">
      <contour>
        <pt x="95" y="750" on="1"/>
        <pt x="147" y="750" on="1"/>
        <pt x="147" y="-250" on="1"/>
        <pt x="95" y="-250" on="1"/>
      </contour>
    </TTGlyph>
    <TTGlyph name="braceleft" xMin="32" yMin="-152" xMax="352" yMax="708">
      <contour>
        <pt x="47" y="-72" on="1"/>
        <pt x="47" y="-44" on="0"/>
        <pt x="64" y="30" on="0"/>
        <pt x="85" y="107" on="0"/>
        <pt x="102" y="175" on="0"/>
        <pt x="102" y="197" on="1"/>
        <pt x="102" y="207" on="0"/>
        <pt x="96" y="228" on="0"/>
        <pt x="81" y="243" on="0"/>
        <pt x="53" y="253" on="0"/>
        <pt x="32" y="253" on="1"/>
        <pt x="43" y="303" on="1"/>
        <pt x="68" y="303" on="0"/>
        <pt x="103" y="317" on="0"/>
        <pt x="126" y="340" on="0"/>
        <pt x="138" y="368" on="0"/>
        <pt x="141" y="382" on="1"/>
        <pt x="150" y="430" on="0"/>
        <pt x="161" y="522" on="0"/>
        <pt x="172" y="573" on="1"/>
        <pt x="179" y="612" on="0"/>
        <pt x="201" y="664" on="0"/>
        <pt x="232" y="695" on="0"/>
        <pt x="276" y="708" on="0"/>
        <pt x="306" y="708" on="1"/>
        <pt x="352" y="708" on="1"/>
        <pt x="342" y="663" on="1"/>
        <pt x="316" y="663" on="1"/>
        <pt x="276" y="663" on="0"/>
        <pt x="242" y="617" on="0"/>
        <pt x="232" y="569" on="1"/>
        <pt x="224" y="526" on="0"/>
        <pt x="211" y="435" on="0"/>
        <pt x="202" y="389" on="1"/>
        <pt x="192" y="340" on="0"/>
        <pt x="153" y="286" on="0"/>
        <pt x="118" y="277" on="1"/>
        <pt x="118" y="273" on="1"/>
        <pt x="142" y="265" on="0"/>
        <pt x="162" y="234" on="0"/>
        <pt x="162" y="212" on="1"/>
        <pt x="162" y="186" on="0"/>
        <pt x="146" y="113" on="0"/>
        <pt x="126" y="36" on="0"/>
        <pt x="110" y="-34" on="0"/>
        <pt x="110" y="-58" on="1"/>
        <pt x="110" y="-83" on="0"/>
        <pt x="133" y="-107" on="0"/>
        <pt x="165" y="-107" on="1"/>
        <pt x="189" y="-107" on="1"/>
        <pt x="179" y="-152" on="1"/>
        <pt x="135" y="-152" on="1"/>
        <pt x="88" y="-152" on="0"/>
        <pt x="47" y="-114" on="0"/>
      </contour>
    </TTGlyph>
    <TTGlyph name="braceright" xMin="-52" yMin="-152" xMax="268" yMax="708">
      <contour>
        <pt x="253" y="628" on="1"/>
        <pt x="253" y="600" on="0"/>
        <pt x="236" y="525" on="0"/>
        <pt x="215" y="449" on="0"/>
        <pt x="198" y="379" on="0"/>
        <pt x="198" y="357" on="1"/>
        <pt x="198" y="347" on="0"/>
        <pt x="204" y="328" on="0"/>
        <pt x="219" y="313" on="0"/>
        <pt x="246" y="303" on="0"/>
        <pt x="268" y="303" on="1"/>
        <pt x="257" y="253" on="1"/>
        <pt x="231" y="253" on="0"/>
        <pt x="196" y="239" on="0"/>
        <pt x="173" y="216" on="0"/>
        <pt x="162" y="188" on="0"/>
        <pt x="159" y="174" on="1"/>
        <pt x="150" y="126" on="0"/>
        <pt x="139" y="33" on="0"/>
        <pt x="128" y="-19" on="1"/>
        <pt x="120" y="-58" on="0"/>
        <pt x="98" y="-109" on="0"/>
        <pt x="67" y="-139" on="0"/>
        <pt x="23" y="-152" on="0"/>
        <pt x="-6" y="-152" on="1"/>
        <pt x="-52" y="-152" on="1"/>
        <pt x="-43" y="-107" on="1"/>
        <pt x="-17" y="-107" on="1"/>
        <pt x="23" y="-107" on="0"/>
        <pt x="58" y="-63" on="0"/>
        <pt x="67" y="-14" on="1"/>
        <pt x="75" y="29" on="0"/>
        <pt x="89" y="119" on="0"/>
        <pt x="97" y="166" on="1"/>
        <pt x="108" y="216" on="0"/>
        <pt x="146" y="270" on="0"/>
        <pt x="181" y="279" on="1"/>
        <pt x="181" y="283" on="1"/>
        <pt x="156" y="291" on="0"/>
        <pt x="137" y="322" on="0"/>
        <pt x="137" y="344" on="1"/>
        <pt x="137" y="370" on="0"/>
        <pt x="153" y="443" on="0"/>
        <pt x="173" y="519" on="0"/>
        <pt x="189" y="589" on="0"/>
        <pt x="189" y="613" on="1"/>
        <pt x="189" y="639" on="0"/>
        <pt x="167" y="663" on="0"/>
        <pt x="135" y="663" on="1"/>
        <pt x="110" y="663" on="1"/>
        <pt x="120" y="708" on="1"/>
        <pt x="164" y="708" on="1"/>
        <pt x="212" y="708" on="0"/>
        <pt x="253" y="669" on="0"/>
      </contour>
    </TTGlyph>
    <TTGlyph name="bracketleft" xMin="8" yMin="-152" xMax="349" yMax="708">
      <contour>
        <pt x="188" y="-107" on="1"/>
        <pt x="177" y="-152" on="1"/>
        <pt x="8" y="-152" on="1"/>
        <pt x="180" y="708" on="1"/>
        <pt x="349" y="708" on="1"/>
        <pt x="342" y="663" on="1"/>
        <pt x="229" y="663" on="1"/>
        <pt x="76" y="-107" on="1"/>
      </contour>
    </TTGlyph>
    <TTGlyph name="bracketright" xMin="-49" yMin="-152" xMax="294" yMax="708">
      <contour>
        <pt x="72" y="-107" on="1"/>
        <pt x="227" y="663" on="1"/>
        <pt x="115" y="663" on="1"/>
        <pt x="123" y="708" on="1"/>
        <pt x="294" y="708" on="1"/>
        <pt x="122" y="-152" on="1"/>
        <pt x="-49" y="-152" on="1"/>
        <pt x="-39" y="-107" on="1"/>
      </contour>
    </TTGlyph>
    <TTGlyph name="breve" xMin="232" yMin="575" xMax="475" yMax="700">
      <component glyphName="uni0306" x="216" y="0" flags="0x4"/>
    </TTGlyph>
    <TTGlyph name="brokenbar" xMin="95" yMin="-250" xMax="147" yMax="750">
      <contour>
        <pt x="95" y="750" on="1"/>
        <pt x="147" y="750" on="1"/>
        <pt x="147" y="289" on="1"/>
        <pt x="95" y="289" on="1"/>
      </contour>
      <contour>
        <pt x="147" y="213" on="1"/>
        <pt x="147" y="-250" on="1"/>
        <pt x="95" y="-250" on="1"/>
        <pt x="95" y="213" on="1"/>
      </contour>
    </TTGlyph>
    <TTGlyph name="bullet" xMin="41" yMin="145" xMax="258" yMax="383">
      <contour>
        <pt x="139" y="145" on="1"/>
        <pt x="96" y="145" on="0"/>
        <pt x="41" y="203" on="0"/>
        <pt x="41" y="250" on="1"/>
        <pt x="41" y="274" on="0"/>
        <pt x="58" y="322" on="0"/>
        <pt x="89" y="359" on="0"/>
        <pt x="133" y="383" on="0"/>
        <pt x="161" y="383" on="1"/>
        <pt x="203" y="383" on="0"/>
        <pt x="258" y="324" on="0"/>
        <pt x="258" y="278" on="1"/>
        <pt x="258" y="253" on="0"/>
        <pt x="241" y="205" on="0"/>
        <pt x="210" y="168" on="0"/>
        <pt x="166" y="145" on="0"/>
      </contour>
    </TTGlyph>
    <TTGlyph name="c" xMin="37" yMin="-12" xMax="434" yMax="498">
      <contour>
        <pt x="37" y="183" on="1"/>
        <pt x="37" y="251" on="0"/>
        <pt x="82" y="366" on="0"/>
        <pt x="157" y="450" on="0"/>
        <pt x="255" y="498" on="0"/>
        <pt x="308" y="498" on="1"/>
        <pt x="352" y="498" on="0"/>
        <pt x="412" y="464" on="0"/>
        <pt x="434" y="439" on="1"/>
        <pt x="389" y="391" on="1"/>
        <pt x="370" y="414" on="0"/>
        <pt x="332" y="435" on="0"/>
        <pt x="303" y="435" on="1"/>
        <pt x="267" y="435" on="0"/>
        <pt x="199" y="395" on="0"/>
        <pt x="146" y="328" on="0"/>
        <pt x="115" y="238" on="0"/>
        <pt x="115" y="188" on="1"/>
        <pt x="115" y="122" on="0"/>
        <pt x="172" y="52" on="0"/>
        <pt x="230" y="52" on="1"/>
        <pt x="262" y="52" on="0"/>
        <pt x="315" y="78" on="0"/>
        <pt x="338" y="95" on="1"/>
        <pt x="372" y="45" on="1"/>
        <pt x="346" y="25" on="0"/>
        <pt x="270" y="-12" on="0"/>
        <pt x="216" y="-12" on="1"/>
        <pt x="136" y="-12" on="0"/>
        <pt x="37" y="89" on="0"/>
      </contour>
    </TTGlyph>
    <TTGlyph name="c.sups" xMin="59" yMin="258" xMax="329" yMax="596">
      <contour>
        <pt x="59" y="387" on="1"/>
        <pt x="59" y="426" on="0"/>
        <pt x="86" y="501" on="0"/>
        <pt x="134" y="560" on="0"/>
        <pt x="201" y="596" on="0"/>
        <pt x="241" y="596" on="1"/>
        <pt x="270" y="596" on="0"/>
        <pt x="313" y="574" on="0"/>
        <pt x="329" y="557" on="1"/>
        <pt x="294" y="521" on="1"/>
        <pt x="282" y="535" on="0"/>
        <pt x="256" y="549" on="0"/>
        <pt x="237" y="549" on="1"/>
        <pt x="211" y="549" on="0"/>
        <pt x="167" y="520" on="0"/>
        <pt x="135" y="475" on="0"/>
        <pt x="117" y="420" on="0"/>
        <pt x="117" y="394" on="1"/>
        <pt x="117" y="349" on="0"/>
        <pt x="162" y="306" on="0"/>
        <pt x="194" y="306" on="1"/>
        <pt x="214" y="306" on="0"/>
        <pt x="247" y="321" on="0"/>
        <pt x="261" y="329" on="1"/>
        <pt x="281" y="291" on="1"/>
        <pt x="265" y="279" on="0"/>
        <pt x="215" y="258" on="0"/>
        <pt x="183" y="258" on="1"/>
        <pt x="129" y="258" on="0"/>
        <pt x="59" y="327" on="0"/>
      </contour>
    </TTGlyph>
    <TTGlyph name="cacute" xMin="37" yMin="-12" xMax="447" yMax="712">
      <component glyphName="c" x="0" y="0" flags="0x204"/>
      <component glyphName="uni0301" x="202" y="0" flags="0x4"/>
    </TTGlyph>
    <TTGlyph name="caron" xMin="235" yMin="571" xMax="481" yMax="712">
      <component glyphName="uni030C" x="216" y="0" flags="0x4"/>
    </TTGlyph>
    <TTGlyph name="ccaron" xMin="37" yMin="-12" xMax="467" yMax="712">
      <component glyphName="c" x="0" y="0" flags="0x204"/>
      <component glyphName="uni030C" x="202" y="0" flags="0x4"/>
    </TTGlyph>
    <TTGlyph name="ccedilla" xMin="37" yMin="-213" xMax="434" yMax="498">
      <component glyphName="c" x="0" y="0" flags="0x204"/>
      <component glyphName="uni0327" x="206" y="0" flags="0x4"/>
    </TTGlyph>
    <TTGlyph name="ccircumflex" xMin="37" yMin="-12" xMax="437" yMax="712">
      <component glyphName="c" x="0" y="0" flags="0x204"/>
      <component glyphName="uni0302" x="202" y="0" flags="0x4"/>
    </TTGlyph>
    <TTGlyph name="cdotaccent" xMin="37" yMin="-12" xMax="434" yMax="690">
      <component glyphName="c" x="0" y="0" flags="0x204"/>
      <component glyphName="uni0307" x="202" y="0" flags="0x4"/>
    </TTGlyph>
    <TTGlyph name="cedilla" xMin="97" yMin="-213" xMax="251" yMax="3">
      <component glyphName="uni0327" x="216" y="0" flags="0x4"/>
    </TTGlyph>
    <TTGlyph name="cent" xMin="78" yMin="-14" xMax="478" yMax="670">
      <contour>
        <pt x="306" y="503" on="1"/>
        <pt x="276" y="498" on="0"/>
        <pt x="221" y="464" on="0"/>
        <pt x="179" y="411" on="0"/>
        <pt x="154" y="341" on="0"/>
        <pt x="154" y="300" on="1"/>
        <pt x="154" y="243" on="0"/>
        <pt x="195" y="169" on="0"/>
        <pt x="237" y="158" on="1"/>
      </contour>
      <contour>
        <pt x="431" y="456" on="1"/>
        <pt x="414" y="476" on="0"/>
        <pt x="379" y="500" on="0"/>
        <pt x="355" y="504" on="1"/>
        <pt x="286" y="155" on="1"/>
        <pt x="318" y="157" on="0"/>
        <pt x="372" y="181" on="0"/>
        <pt x="395" y="198" on="1"/>
        <pt x="422" y="146" on="1"/>
        <pt x="390" y="126" on="0"/>
        <pt x="320" y="94" on="0"/>
        <pt x="274" y="91" on="1"/>
        <pt x="253" y="-14" on="1"/>
        <pt x="203" y="-14" on="1"/>
        <pt x="224" y="92" on="1"/>
        <pt x="156" y="102" on="0"/>
        <pt x="78" y="202" on="0"/>
        <pt x="78" y="287" on="1"/>
        <pt x="78" y="349" on="0"/>
        <pt x="120" y="450" on="0"/>
        <pt x="189" y="522" on="0"/>
        <pt x="275" y="564" on="0"/>
        <pt x="319" y="568" on="1"/>
        <pt x="339" y="670" on="1"/>
        <pt x="388" y="670" on="1"/>
        <pt x="368" y="567" on="1"/>
        <pt x="405" y="562" on="0"/>
        <pt x="458" y="524" on="0"/>
        <pt x="478" y="501" on="1"/>
      </contour>
    </TTGlyph>
    <TTGlyph name="circumflex" xMin="206" yMin="571" xMax="451" yMax="712">
      <component glyphName="uni0302" x="216" y="0" flags="0x4"/>
    </TTGlyph>
    <TTGlyph name="colon" xMin="23" yMin="-12" xMax="200" yMax="477">
      <component glyphName="period" x="64" y="369" flags="0x204"/>
      <component glyphName="period" x="0" y="0" flags="0x4"/>
    </TTGlyph>
    <TTGlyph name="colonmonetary" xMin="62" yMin="-110" xMax="515" yMax="751">
      <contour>
        <pt x="187" y="81" on="1"/>
        <pt x="208" y="61" on="0"/>
        <pt x="236" y="55" on="1"/>
        <pt x="400" y="580" on="1"/>
        <pt x="389" y="585" on="0"/>
        <pt x="366" y="590" on="0"/>
        <pt x="352" y="590" on="1"/>
        <pt x="346" y="590" on="1"/>
      </contour>
      <contour>
        <pt x="309" y="583" on="1"/>
        <pt x="272" y="571" on="0"/>
        <pt x="209" y="509" on="0"/>
        <pt x="162" y="419" on="0"/>
        <pt x="136" y="303" on="0"/>
        <pt x="136" y="237" on="1"/>
        <pt x="136" y="161" on="0"/>
        <pt x="162" y="114" on="1"/>
      </contour>
      <contour>
        <pt x="459" y="513" on="1"/>
        <pt x="445" y="540" on="0"/>
        <pt x="429" y="557" on="1"/>
        <pt x="271" y="52" on="1"/>
        <pt x="305" y="54" on="0"/>
        <pt x="363" y="86" on="0"/>
        <pt x="387" y="109" on="1"/>
        <pt x="425" y="62" on="1"/>
        <pt x="387" y="27" on="0"/>
        <pt x="302" y="-12" on="0"/>
        <pt x="251" y="-12" on="1"/>
        <pt x="220" y="-110" on="1"/>
        <pt x="185" y="-110" on="1"/>
        <pt x="216" y="-9" on="1"/>
        <pt x="188" y="-4" on="0"/>
        <pt x="165" y="8" on="1"/>
        <pt x="128" y="-110" on="1"/>
        <pt x="92" y="-110" on="1"/>
        <pt x="135" y="28" on="1"/>
        <pt x="100" y="59" on="0"/>
        <pt x="62" y="161" on="0"/>
        <pt x="62" y="229" on="1"/>
        <pt x="62" y="317" on="0"/>
        <pt x="105" y="466" on="0"/>
        <pt x="178" y="576" on="0"/>
        <pt x="275" y="643" on="0"/>
        <pt x="330" y="651" on="1"/>
        <pt x="361" y="751" on="1"/>
        <pt x="396" y="751" on="1"/>
        <pt x="365" y="653" on="1"/>
        <pt x="381" y="652" on="0"/>
        <pt x="407" y="647" on="0"/>
        <pt x="419" y="642" on="1"/>
        <pt x="453" y="751" on="1"/>
        <pt x="489" y="751" on="1"/>
        <pt x="450" y="626" on="1"/>
        <pt x="471" y="611" on="0"/>
        <pt x="502" y="571" on="0"/>
        <pt x="515" y="548" on="1"/>
      </contour>
    </TTGlyph>
    <TTGlyph name="comma" xMin="-31" yMin="-164" xMax="144" yMax="108">
      <contour>
        <pt x="-31" y="-118" on="1"/>
        <pt x="16" y="-100" on="0"/>
        <pt x="72" y="-41" on="0"/>
        <pt x="80" y="-4" on="1"/>
        <pt x="78" y="-4" on="1"/>
        <pt x="55" y="-4" on="0"/>
        <pt x="26" y="21" on="0"/>
        <pt x="26" y="44" on="1"/>
        <pt x="26" y="69" on="0"/>
        <pt x="61" y="108" on="0"/>
        <pt x="90" y="108" on="1"/>
        <pt x="116" y="108" on="0"/>
        <pt x="144" y="72" on="0"/>
        <pt x="144" y="42" on="1"/>
        <pt x="144" y="-32" on="0"/>
        <pt x="54" y="-143" on="0"/>
        <pt x="-20" y="-164" on="1"/>
      </contour>
    </TTGlyph>
    <TTGlyph name="comma.dnom" xMin="-35" yMin="-114" xMax="91" yMax="84">
      <contour>
        <pt x="-35" y="-78" on="1"/>
        <pt x="-4" y="-65" on="0"/>
        <pt x="36" y="-29" on="0"/>
        <pt x="41" y="-1" on="1"/>
        <pt x="37" y="-1" on="1"/>
        <pt x="22" y="-1" on="0"/>
        <pt x="0" y="19" on="0"/>
        <pt x="0" y="36" on="1"/>
        <pt x="0" y="60" on="0"/>
        <pt x="29" y="84" on="0"/>
        <pt x="49" y="84" on="1"/>
        <pt x="68" y="84" on="0"/>
        <pt x="91" y="55" on="0"/>
        <pt x="91" y="31" on="1"/>
        <pt x="91" y="-20" on="0"/>
        <pt x="29" y="-94" on="0"/>
        <pt x="-24" y="-114" on="1"/>
      </contour>
    </TTGlyph>
    <TTGlyph name="comma.numr" xMin="15" yMin="156" xMax="141" yMax="354">
      <component glyphName="comma.dnom" x="50" y="270" flags="0x204"/>
    </TTGlyph>
    <TTGlyph name="comma.subs" xMin="-68" yMin="-283" xMax="58" yMax="-85">
      <component glyphName="comma.dnom" x="-33" y="-169" flags="0x204"/>
    </TTGlyph>
    <TTGlyph name="comma.sups" xMin="51" yMin="326" xMax="177" yMax="524">
      <component glyphName="comma.dnom" x="86" y="440" flags="0x204"/>
    </TTGlyph>
    <TTGlyph name="copyright" xMin="36" yMin="-11" xMax="661" yMax="653">
      <contour>
        <pt x="180" y="276" on="1"/>
        <pt x="180" y="331" on="0"/>
        <pt x="218" y="418" on="0"/>
        <pt x="278" y="479" on="0"/>
        <pt x="352" y="512" on="0"/>
        <pt x="388" y="512" on="1"/>
        <pt x="423" y="512" on="0"/>
        <pt x="469" y="482" on="0"/>
        <pt x="486" y="461" on="1"/>
        <pt x="449" y="427" on="1"/>
        <pt x="435" y="444" on="0"/>
        <pt x="404" y="462" on="0"/>
        <pt x="381" y="462" on="1"/>
        <pt x="357" y="462" on="0"/>
        <pt x="307" y="436" on="0"/>
        <pt x="265" y="389" on="0"/>
        <pt x="239" y="324" on="0"/>
        <pt x="239" y="285" on="1"/>
        <pt x="239" y="231" on="0"/>
        <pt x="292" y="176" on="0"/>
        <pt x="337" y="176" on="1"/>
        <pt x="365" y="176" on="0"/>
        <pt x="410" y="199" on="0"/>
        <pt x="435" y="215" on="1"/>
        <pt x="460" y="176" on="1"/>
        <pt x="429" y="153" on="0"/>
        <pt x="366" y="125" on="0"/>
        <pt x="326" y="125" on="1"/>
        <pt x="261" y="125" on="0"/>
        <pt x="180" y="202" on="0"/>
      </contour>
      <contour>
        <pt x="298" y="-11" on="1"/>
        <pt x="240" y="-11" on="0"/>
        <pt x="143" y="30" on="0"/>
        <pt x="74" y="103" on="0"/>
        <pt x="36" y="205" on="0"/>
        <pt x="36" y="266" on="1"/>
        <pt x="36" y="340" on="0"/>
        <pt x="88" y="479" on="0"/>
        <pt x="183" y="587" on="0"/>
        <pt x="317" y="653" on="0"/>
        <pt x="398" y="653" on="1"/>
        <pt x="456" y="653" on="0"/>
        <pt x="553" y="612" on="0"/>
        <pt x="622" y="539" on="0"/>
        <pt x="661" y="438" on="0"/>
        <pt x="661" y="377" on="1"/>
        <pt x="661" y="303" on="0"/>
        <pt x="609" y="163" on="0"/>
        <pt x="513" y="55" on="0"/>
        <pt x="379" y="-11" on="0"/>
      </contour>
      <contour>
        <pt x="395" y="613" on="1"/>
        <pt x="325" y="613" on="0"/>
        <pt x="209" y="554" on="0"/>
        <pt x="125" y="457" on="0"/>
        <pt x="79" y="334" on="0"/>
        <pt x="79" y="271" on="1"/>
        <pt x="79" y="218" on="0"/>
        <pt x="109" y="130" on="0"/>
        <pt x="166" y="66" on="0"/>
        <pt x="249" y="30" on="0"/>
        <pt x="301" y="30" on="1"/>
        <pt x="371" y="30" on="0"/>
        <pt x="488" y="89" on="0"/>
        <pt x="572" y="186" on="0"/>
        <pt x="618" y="309" on="0"/>
        <pt x="618" y="372" on="1"/>
        <pt x="618" y="425" on="0"/>
        <pt x="588" y="513" on="0"/>
        <pt x="530" y="577" on="0"/>
        <pt x="447" y="613" on="0"/>
      </contour>
    </TTGlyph>
    <TTGlyph name="currency" xMin="11" yMin="113" xMax="495" yMax="549">
      <contour>
        <pt x="337" y="181" on="1"/>
        <pt x="311" y="161" on="0"/>
        <pt x="250" y="139" on="0"/>
        <pt x="218" y="139" on="1"/>
        <pt x="154" y="139" on="0"/>
        <pt x="118" y="178" on="1"/>
        <pt x="46" y="115" on="1"/>
        <pt x="11" y="157" on="1"/>
        <pt x="82" y="219" on="1"/>
        <pt x="75" y="235" on="0"/>
        <pt x="67" y="272" on="0"/>
        <pt x="67" y="295" on="1"/>
        <pt x="67" y="340" on="0"/>
        <pt x="99" y="420" on="0"/>
        <pt x="127" y="450" on="1"/>
        <pt x="80" y="511" on="1"/>
        <pt x="124" y="548" on="1"/>
        <pt x="172" y="485" on="1"/>
        <pt x="198" y="503" on="0"/>
        <pt x="256" y="523" on="0"/>
        <pt x="287" y="523" on="1"/>
        <pt x="318" y="523" on="0"/>
        <pt x="368" y="503" on="0"/>
        <pt x="387" y="486" on="1"/>
        <pt x="460" y="549" on="1"/>
        <pt x="495" y="507" on="1"/>
        <pt x="422" y="444" on="1"/>
        <pt x="438" y="410" on="0"/>
        <pt x="438" y="368" on="1"/>
        <pt x="438" y="323" on="0"/>
        <pt x="407" y="246" on="0"/>
        <pt x="381" y="217" on="1"/>
        <pt x="434" y="149" on="1"/>
        <pt x="391" y="113" on="1"/>
      </contour>
      <contour>
        <pt x="279" y="466" on="1"/>
        <pt x="253" y="466" on="0"/>
        <pt x="203" y="441" on="0"/>
        <pt x="163" y="397" on="0"/>
        <pt x="139" y="337" on="0"/>
        <pt x="139" y="303" on="1"/>
        <pt x="139" y="252" on="0"/>
        <pt x="184" y="197" on="0"/>
        <pt x="226" y="197" on="1"/>
        <pt x="252" y="197" on="0"/>
        <pt x="302" y="222" on="0"/>
        <pt x="342" y="265" on="0"/>
        <pt x="366" y="325" on="0"/>
        <pt x="366" y="360" on="1"/>
        <pt x="366" y="411" on="0"/>
        <pt x="321" y="466" on="0"/>
      </contour>
    </TTGlyph>
    <TTGlyph name="d" xMin="39" yMin="-12" xMax="551" yMax="712">
      <contour>
        <pt x="436" y="522" on="1"/>
        <pt x="474" y="712" on="1"/>
        <pt x="551" y="712" on="1"/>
        <pt x="407" y="0" on="1"/>
        <pt x="344" y="0" on="1"/>
        <pt x="352" y="72" on="1"/>
        <pt x="348" y="72" on="1"/>
        <pt x="313" y="34" on="0"/>
        <pt x="225" y="-12" on="0"/>
        <pt x="179" y="-12" on="1"/>
        <pt x="115" y="-12" on="0"/>
        <pt x="39" y="78" on="0"/>
        <pt x="39" y="164" on="1"/>
        <pt x="39" y="234" on="0"/>
        <pt x="83" y="356" on="0"/>
        <pt x="157" y="446" on="0"/>
        <pt x="251" y="498" on="0"/>
        <pt x="302" y="498" on="1"/>
        <pt x="341" y="498" on="0"/>
        <pt x="399" y="459" on="0"/>
        <pt x="417" y="427" on="1"/>
        <pt x="420" y="427" on="1"/>
      </contour>
      <contour>
        <pt x="207" y="52" on="1"/>
        <pt x="245" y="52" on="0"/>
        <pt x="323" y="97" on="0"/>
        <pt x="360" y="145" on="1"/>
        <pt x="404" y="362" on="1"/>
        <pt x="383" y="400" on="0"/>
        <pt x="333" y="434" on="0"/>
        <pt x="305" y="434" on="1"/>
        <pt x="269" y="434" on="0"/>
        <pt x="201" y="391" on="0"/>
        <pt x="149" y="319" on="0"/>
        <pt x="118" y="226" on="0"/>
        <pt x="118" y="176" on="1"/>
        <pt x="118" y="113" on="0"/>
        <pt x="166" y="52" on="0"/>
      </contour>
    </TTGlyph>
    <TTGlyph name="d.sups" xMin="60" yMin="258" xMax="402" yMax="731">
      <contour>
        <pt x="321" y="615" on="1"/>
        <pt x="345" y="731" on="1"/>
        <pt x="402" y="731" on="1"/>
        <pt x="310" y="266" on="1"/>
        <pt x="263" y="266" on="1"/>
        <pt x="269" y="314" on="1"/>
        <pt x="265" y="314" on="1"/>
        <pt x="242" y="288" on="0"/>
        <pt x="184" y="258" on="0"/>
        <pt x="154" y="258" on="1"/>
        <pt x="111" y="258" on="0"/>
        <pt x="60" y="319" on="0"/>
        <pt x="60" y="377" on="1"/>
        <pt x="60" y="423" on="0"/>
        <pt x="90" y="503" on="0"/>
        <pt x="139" y="562" on="0"/>
        <pt x="202" y="596" on="0"/>
        <pt x="236" y="596" on="1"/>
        <pt x="259" y="596" on="0"/>
        <pt x="299" y="574" on="0"/>
        <pt x="310" y="551" on="1"/>
        <pt x="314" y="551" on="1"/>
      </contour>
      <contour>
        <pt x="173" y="307" on="1"/>
        <pt x="196" y="307" on="0"/>
        <pt x="250" y="340" on="0"/>
        <pt x="273" y="369" on="1"/>
        <pt x="299" y="502" on="1"/>
        <pt x="285" y="528" on="0"/>
        <pt x="255" y="548" on="0"/>
        <pt x="238" y="548" on="1"/>
        <pt x="215" y="548" on="0"/>
        <pt x="172" y="521" on="0"/>
        <pt x="139" y="476" on="0"/>
        <pt x="118" y="416" on="0"/>
        <pt x="118" y="384" on="1"/>
        <pt x="118" y="344" on="0"/>
        <pt x="149" y="307" on="0"/>
      </contour>
    </TTGlyph>
    <TTGlyph name="dagger" xMin="101" yMin="-80" xMax="443" yMax="712">
      <contour>
        <pt x="239" y="496" on="1"/>
        <pt x="101" y="491" on="1"/>
        <pt x="114" y="557" on="1"/>
        <pt x="248" y="552" on="1"/>
        <pt x="276" y="712" on="1"/>
        <pt x="342" y="712" on="1"/>
        <pt x="306" y="552" on="1"/>
        <pt x="443" y="557" on="1"/>
        <pt x="430" y="491" on="1"/>
        <pt x="295" y="496" on="1"/>
        <pt x="184" y="-80" on="1"/>
        <pt x="118" y="-80" on="1"/>
      </contour>
    </TTGlyph>
    <TTGlyph name="daggerdbl" xMin="18" yMin="-80" xMax="443" yMax="712">
      <contour>
        <pt x="31" y="140" on="1"/>
        <pt x="166" y="134" on="1"/>
        <pt x="197" y="316" on="1"/>
        <pt x="239" y="498" on="1"/>
        <pt x="101" y="491" on="1"/>
        <pt x="113" y="557" on="1"/>
        <pt x="248" y="552" on="1"/>
        <pt x="276" y="712" on="1"/>
        <pt x="341" y="712" on="1"/>
        <pt x="306" y="552" on="1"/>
        <pt x="443" y="557" on="1"/>
        <pt x="430" y="491" on="1"/>
        <pt x="295" y="498" on="1"/>
        <pt x="263" y="316" on="1"/>
        <pt x="222" y="134" on="1"/>
        <pt x="360" y="140" on="1"/>
        <pt x="347" y="74" on="1"/>
        <pt x="212" y="79" on="1"/>
        <pt x="185" y="-80" on="1"/>
        <pt x="119" y="-80" on="1"/>
        <pt x="154" y="79" on="1"/>
        <pt x="18" y="74" on="1"/>
      </contour>
    </TTGlyph>
    <TTGlyph name="dcaron" xMin="39" yMin="-12" xMax="660" yMax="760">
      <component glyphName="d" x="0" y="0" flags="0x4"/>
      <component glyphName="uni030C.a" x="542" y="0" flags="0x4"/>
    </TTGlyph>
    <TTGlyph name="dcroat" xMin="39" yMin="-12" xMax="603" yMax="712">
      <contour>
        <pt x="400" y="342" on="1"/>
        <pt x="380" y="380" on="0"/>
        <pt x="331" y="414" on="0"/>
        <pt x="303" y="414" on="1"/>
        <pt x="267" y="414" on="0"/>
        <pt x="200" y="372" on="0"/>
        <pt x="149" y="304" on="0"/>
        <pt x="118" y="219" on="0"/>
        <pt x="118" y="176" on="1"/>
        <pt x="118" y="113" on="0"/>
        <pt x="166" y="52" on="0"/>
        <pt x="207" y="52" on="1"/>
        <pt x="245" y="52" on="0"/>
        <pt x="323" y="97" on="0"/>
        <pt x="360" y="145" on="1"/>
      </contour>
      <contour>
        <pt x="593" y="577" on="1"/>
        <pt x="523" y="572" on="1"/>
        <pt x="407" y="0" on="1"/>
        <pt x="344" y="0" on="1"/>
        <pt x="352" y="72" on="1"/>
        <pt x="348" y="72" on="1"/>
        <pt x="313" y="34" on="0"/>
        <pt x="225" y="-12" on="0"/>
        <pt x="179" y="-12" on="1"/>
        <pt x="115" y="-12" on="0"/>
        <pt x="39" y="78" on="0"/>
        <pt x="39" y="164" on="1"/>
        <pt x="39" y="226" on="0"/>
        <pt x="83" y="340" on="0"/>
        <pt x="156" y="427" on="0"/>
        <pt x="250" y="478" on="0"/>
        <pt x="300" y="478" on="1"/>
        <pt x="339" y="478" on="0"/>
        <pt x="396" y="439" on="0"/>
        <pt x="413" y="407" on="1"/>
        <pt x="416" y="407" on="1"/>
        <pt x="432" y="502" on="1"/>
        <pt x="446" y="572" on="1"/>
        <pt x="291" y="572" on="1"/>
        <pt x="299" y="617" on="1"/>
        <pt x="455" y="617" on="1"/>
        <pt x="474" y="712" on="1"/>
        <pt x="551" y="712" on="1"/>
        <pt x="532" y="617" on="1"/>
        <pt x="603" y="617" on="1"/>
      </contour>
    </TTGlyph>
    <TTGlyph name="degree" xMin="101" yMin="432" xMax="338" yMax="685">
      <contour>
        <pt x="208" y="432" on="1"/>
        <pt x="161" y="432" on="0"/>
        <pt x="101" y="493" on="0"/>
        <pt x="101" y="543" on="1"/>
        <pt x="101" y="572" on="0"/>
        <pt x="122" y="623" on="0"/>
        <pt x="157" y="662" on="0"/>
        <pt x="205" y="685" on="0"/>
        <pt x="232" y="685" on="1"/>
        <pt x="278" y="685" on="0"/>
        <pt x="338" y="624" on="0"/>
        <pt x="338" y="574" on="1"/>
        <pt x="338" y="545" on="0"/>
        <pt x="317" y="494" on="0"/>
        <pt x="282" y="455" on="0"/>
        <pt x="235" y="432" on="0"/>
      </contour>
      <contour>
        <pt x="228" y="642" on="1"/>
        <pt x="210" y="642" on="0"/>
        <pt x="180" y="625" on="0"/>
        <pt x="159" y="598" on="0"/>
        <pt x="148" y="563" on="0"/>
        <pt x="148" y="545" on="1"/>
        <pt x="148" y="516" on="0"/>
        <pt x="181" y="476" on="0"/>
        <pt x="211" y="476" on="1"/>
        <pt x="229" y="476" on="0"/>
        <pt x="258" y="492" on="0"/>
        <pt x="279" y="519" on="0"/>
        <pt x="291" y="554" on="0"/>
        <pt x="291" y="572" on="1"/>
        <pt x="291" y="601" on="0"/>
        <pt x="258" y="642" on="0"/>
      </contour>
    </TTGlyph>
    <TTGlyph name="dieresis" xMin="213" yMin="589" xMax="470" yMax="684">
      <component glyphName="uni0308" x="216" y="0" flags="0x4"/>
    </TTGlyph>
    <TTGlyph name="divide" xMin="48" yMin="97" xMax="458" yMax="562">
      <contour>
        <pt x="253" y="460" on="1"/>
        <pt x="231" y="460" on="0"/>
        <pt x="202" y="490" on="0"/>
        <pt x="202" y="512" on="1"/>
        <pt x="202" y="533" on="0"/>
        <pt x="231" y="562" on="0"/>
        <pt x="253" y="562" on="1"/>
        <pt x="275" y="562" on="0"/>
        <pt x="304" y="533" on="0"/>
        <pt x="304" y="512" on="1"/>
        <pt x="304" y="490" on="0"/>
        <pt x="275" y="460" on="0"/>
      </contour>
      <contour>
        <pt x="253" y="97" on="1"/>
        <pt x="231" y="97" on="0"/>
        <pt x="202" y="126" on="0"/>
        <pt x="202" y="148" on="1"/>
        <pt x="202" y="169" on="0"/>
        <pt x="231" y="198" on="0"/>
        <pt x="253" y="198" on="1"/>
        <pt x="275" y="198" on="0"/>
        <pt x="304" y="169" on="0"/>
        <pt x="304" y="148" on="1"/>
        <pt x="304" y="126" on="0"/>
        <pt x="275" y="97" on="0"/>
      </contour>
      <contour>
        <pt x="48" y="302" on="1"/>
        <pt x="48" y="359" on="1"/>
        <pt x="458" y="359" on="1"/>
        <pt x="458" y="302" on="1"/>
      </contour>
    </TTGlyph>
    <TTGlyph name="dollar" xMin="17" yMin="-110" xMax="464" yMax="751">
      <contour>
        <pt x="414" y="521" on="1"/>
        <pt x="394" y="550" on="0"/>
        <pt x="336" y="590" on="0"/>
        <pt x="301" y="590" on="1"/>
        <pt x="253" y="590" on="0"/>
        <pt x="191" y="533" on="0"/>
        <pt x="191" y="488" on="1"/>
        <pt x="191" y="457" on="0"/>
        <pt x="223" y="412" on="0"/>
        <pt x="270" y="373" on="0"/>
        <pt x="325" y="334" on="0"/>
        <pt x="372" y="286" on="0"/>
        <pt x="404" y="223" on="0"/>
        <pt x="404" y="180" on="1"/>
        <pt x="404" y="141" on="0"/>
        <pt x="378" y="73" on="0"/>
        <pt x="329" y="22" on="0"/>
        <pt x="260" y="-9" on="0"/>
        <pt x="218" y="-12" on="1"/>
        <pt x="198" y="-110" on="1"/>
        <pt x="142" y="-110" on="1"/>
        <pt x="162" y="-8" on="1"/>
        <pt x="117" y="1" on="0"/>
        <pt x="43" y="51" on="0"/>
        <pt x="17" y="82" on="1"/>
        <pt x="66" y="130" on="1"/>
        <pt x="89" y="100" on="0"/>
        <pt x="159" y="52" on="0"/>
        <pt x="204" y="52" on="1"/>
        <pt x="259" y="52" on="0"/>
        <pt x="329" y="116" on="0"/>
        <pt x="329" y="168" on="1"/>
        <pt x="329" y="204" on="0"/>
        <pt x="297" y="257" on="0"/>
        <pt x="250" y="300" on="0"/>
        <pt x="194" y="339" on="0"/>
        <pt x="147" y="384" on="0"/>
        <pt x="115" y="440" on="0"/>
        <pt x="115" y="478" on="1"/>
        <pt x="115" y="515" on="0"/>
        <pt x="141" y="577" on="0"/>
        <pt x="188" y="623" on="0"/>
        <pt x="252" y="651" on="0"/>
        <pt x="291" y="653" on="1"/>
        <pt x="311" y="751" on="1"/>
        <pt x="367" y="751" on="1"/>
        <pt x="346" y="648" on="1"/>
        <pt x="381" y="639" on="0"/>
        <pt x="442" y="595" on="0"/>
        <pt x="464" y="566" on="1"/>
      </contour>
    </TTGlyph>
    <TTGlyph name="dong" xMin="32" yMin="0" xMax="541" yMax="675">
      <contour>
        <pt x="41" y="45" on="1"/>
        <pt x="385" y="45" on="1"/>
        <pt x="375" y="0" on="1"/>
        <pt x="32" y="0" on="1"/>
      </contour>
      <contour>
        <pt x="354" y="374" on="1"/>
        <pt x="328" y="422" on="0"/>
        <pt x="282" y="422" on="1"/>
        <pt x="257" y="422" on="0"/>
        <pt x="207" y="397" on="0"/>
        <pt x="166" y="352" on="0"/>
        <pt x="141" y="290" on="0"/>
        <pt x="141" y="254" on="1"/>
        <pt x="141" y="213" on="0"/>
        <pt x="176" y="165" on="0"/>
        <pt x="211" y="165" on="1"/>
        <pt x="239" y="165" on="0"/>
        <pt x="293" y="192" on="0"/>
        <pt x="324" y="220" on="1"/>
      </contour>
      <contour>
        <pt x="532" y="563" on="1"/>
        <pt x="457" y="558" on="1"/>
        <pt x="368" y="120" on="1"/>
        <pt x="313" y="120" on="1"/>
        <pt x="318" y="165" on="1"/>
        <pt x="316" y="165" on="1"/>
        <pt x="290" y="142" on="0"/>
        <pt x="223" y="110" on="0"/>
        <pt x="190" y="110" on="1"/>
        <pt x="135" y="110" on="0"/>
        <pt x="74" y="183" on="0"/>
        <pt x="74" y="243" on="1"/>
        <pt x="74" y="295" on="0"/>
        <pt x="110" y="381" on="0"/>
        <pt x="169" y="442" on="0"/>
        <pt x="242" y="476" on="0"/>
        <pt x="279" y="476" on="1"/>
        <pt x="313" y="476" on="0"/>
        <pt x="352" y="449" on="0"/>
        <pt x="367" y="428" on="1"/>
        <pt x="382" y="513" on="1"/>
        <pt x="391" y="558" on="1"/>
        <pt x="258" y="558" on="1"/>
        <pt x="267" y="604" on="1"/>
        <pt x="401" y="604" on="1"/>
        <pt x="415" y="675" on="1"/>
        <pt x="481" y="675" on="1"/>
        <pt x="467" y="604" on="1"/>
        <pt x="541" y="604" on="1"/>
      </contour>
    </TTGlyph>
    <TTGlyph name="dotaccent" xMin="287" yMin="587" xMax="394" yMax="690">
      <component glyphName="uni0307" x="216" y="0" flags="0x4"/>
    </TTGlyph>
    <TTGlyph name="dotlessi" xMin="31" yMin="0" xMax="205" yMax="486">
      <contour>
        <pt x="128" y="486" on="1"/>
        <pt x="205" y="486" on="1"/>
        <pt x="107" y="0" on="1"/>
        <pt x="31" y="0" on="1"/>
      </contour>
    </TTGlyph>
    <TTGlyph name="e" xMin="37" yMin="-12" xMax="447" yMax="498">
      <contour>
        <pt x="37" y="191" on="1"/>
        <pt x="37" y="260" on="0"/>
        <pt x="83" y="373" on="0"/>
        <pt x="156" y="454" on="0"/>
        <pt x="249" y="498" on="0"/>
        <pt x="297" y="498" on="1"/>
        <pt x="338" y="498" on="0"/>
        <pt x="395" y="471" on="0"/>
        <pt x="431" y="424" on="0"/>
        <pt x="447" y="359" on="0"/>
        <pt x="447" y="322" on="1"/>
        <pt x="447" y="293" on="0"/>
        <pt x="435" y="241" on="0"/>
        <pt x="430" y="227" on="1"/>
        <pt x="114" y="227" on="1"/>
        <pt x="107" y="180" on="0"/>
        <pt x="123" y="113" on="0"/>
        <pt x="160" y="69" on="0"/>
        <pt x="214" y="49" on="0"/>
        <pt x="246" y="49" on="1"/>
        <pt x="275" y="49" on="0"/>
        <pt x="332" y="74" on="0"/>
        <pt x="355" y="91" on="1"/>
        <pt x="385" y="40" on="1"/>
        <pt x="356" y="19" on="0"/>
        <pt x="276" y="-12" on="0"/>
        <pt x="228" y="-12" on="1"/>
        <pt x="141" y="-12" on="0"/>
        <pt x="37" y="93" on="0"/>
      </contour>
      <contour>
        <pt x="377" y="279" on="1"/>
        <pt x="379" y="291" on="0"/>
        <pt x="382" y="315" on="0"/>
        <pt x="382" y="329" on="1"/>
        <pt x="382" y="350" on="0"/>
        <pt x="372" y="389" on="0"/>
        <pt x="350" y="419" on="0"/>
        <pt x="314" y="437" on="0"/>
        <pt x="288" y="437" on="1"/>
        <pt x="261" y="437" on="0"/>
        <pt x="210" y="415" on="0"/>
        <pt x="166" y="373" on="0"/>
        <pt x="131" y="315" on="0"/>
        <pt x="122" y="279" on="1"/>
      </contour>
    </TTGlyph>
    <TTGlyph name="e.sups" xMin="59" yMin="258" xMax="338" yMax="596">
      <contour>
        <pt x="59" y="395" on="1"/>
        <pt x="59" y="440" on="0"/>
        <pt x="90" y="514" on="0"/>
        <pt x="139" y="567" on="0"/>
        <pt x="202" y="596" on="0"/>
        <pt x="234" y="596" on="1"/>
        <pt x="264" y="596" on="0"/>
        <pt x="304" y="576" on="0"/>
        <pt x="328" y="543" on="0"/>
        <pt x="338" y="500" on="0"/>
        <pt x="338" y="478" on="1"/>
        <pt x="338" y="458" on="0"/>
        <pt x="329" y="424" on="0"/>
        <pt x="324" y="413" on="1"/>
        <pt x="116" y="413" on="1"/>
        <pt x="110" y="362" on="0"/>
        <pt x="155" y="304" on="0"/>
        <pt x="200" y="304" on="1"/>
        <pt x="222" y="304" on="0"/>
        <pt x="257" y="319" on="0"/>
        <pt x="274" y="330" on="1"/>
        <pt x="293" y="290" on="1"/>
        <pt x="271" y="277" on="0"/>
        <pt x="217" y="258" on="0"/>
        <pt x="187" y="258" on="1"/>
        <pt x="128" y="258" on="0"/>
        <pt x="59" y="329" on="0"/>
      </contour>
      <contour>
        <pt x="285" y="453" on="1"/>
        <pt x="287" y="461" on="0"/>
        <pt x="288" y="475" on="0"/>
        <pt x="288" y="482" on="1"/>
        <pt x="288" y="508" on="0"/>
        <pt x="260" y="550" on="0"/>
        <pt x="227" y="550" on="1"/>
        <pt x="196" y="550" on="0"/>
        <pt x="134" y="498" on="0"/>
        <pt x="122" y="453" on="1"/>
      </contour>
    </TTGlyph>
    <TTGlyph name="eacute" xMin="37" yMin="-12" xMax="447" yMax="712">
      <component glyphName="e" x="0" y="0" flags="0x204"/>
      <component glyphName="uni0301" x="198" y="0" flags="0x4"/>
    </TTGlyph>
    <TTGlyph name="eacute.sups" xMin="60" yMin="265" xMax="339" yMax="737">
      <contour>
        <pt x="274" y="737" on="1"/>
        <pt x="336" y="737" on="1"/>
        <pt x="243" y="643" on="1"/>
        <pt x="196" y="643" on="1"/>
      </contour>
      <contour>
        <pt x="60" y="401" on="1"/>
        <pt x="60" y="446" on="0"/>
        <pt x="91" y="520" on="0"/>
        <pt x="140" y="573" on="0"/>
        <pt x="203" y="603" on="0"/>
        <pt x="235" y="603" on="1"/>
        <pt x="265" y="603" on="0"/>
        <pt x="305" y="583" on="0"/>
        <pt x="329" y="550" on="0"/>
        <pt x="339" y="507" on="0"/>
        <pt x="339" y="485" on="1"/>
        <pt x="339" y="465" on="0"/>
        <pt x="331" y="431" on="0"/>
        <pt x="326" y="420" on="1"/>
        <pt x="117" y="420" on="1"/>
        <pt x="111" y="368" on="0"/>
        <pt x="156" y="310" on="0"/>
        <pt x="202" y="310" on="1"/>
        <pt x="223" y="310" on="0"/>
        <pt x="258" y="325" on="0"/>
        <pt x="275" y="336" on="1"/>
        <pt x="294" y="296" on="1"/>
        <pt x="272" y="284" on="0"/>
        <pt x="218" y="265" on="0"/>
        <pt x="189" y="265" on="1"/>
        <pt x="130" y="265" on="0"/>
        <pt x="60" y="335" on="0"/>
      </contour>
      <contour>
        <pt x="286" y="459" on="1"/>
        <pt x="288" y="467" on="0"/>
        <pt x="289" y="481" on="0"/>
        <pt x="289" y="488" on="1"/>
        <pt x="289" y="515" on="0"/>
        <pt x="262" y="556" on="0"/>
        <pt x="229" y="556" on="1"/>
        <pt x="213" y="556" on="0"/>
        <pt x="181" y="542" on="0"/>
        <pt x="152" y="517" on="0"/>
        <pt x="130" y="481" on="0"/>
        <pt x="124" y="459" on="1"/>
      </contour>
    </TTGlyph>
    <TTGlyph name="ebreve" xMin="37" yMin="-12" xMax="457" yMax="700">
      <component glyphName="e" x="0" y="0" flags="0x204"/>
      <component glyphName="uni0306" x="198" y="0" flags="0x4"/>
    </TTGlyph>
    <TTGlyph name="ecaron" xMin="37" yMin="-12" xMax="463" yMax="712">
      <component glyphName="e" x="0" y="0" flags="0x204"/>
      <component glyphName="uni030C" x="198" y="0" flags="0x4"/>
    </TTGlyph>
    <TTGlyph name="ecircumflex" xMin="37" yMin="-12" xMax="447" yMax="712">
      <component glyphName="e" x="0" y="0" flags="0x204"/>
      <component glyphName="uni0302" x="198" y="0" flags="0x4"/>
    </TTGlyph>
    <TTGlyph name="edieresis" xMin="37" yMin="-12" xMax="452" yMax="684">
      <component glyphName="e" x="0" y="0" flags="0x204"/>
      <component glyphName="uni0308" x="198" y="0" flags="0x4"/>
    </TTGlyph>
    <TTGlyph name="edotaccent" xMin="37" yMin="-12" xMax="447" yMax="690">
      <component glyphName="e" x="0" y="0" flags="0x204"/>
      <component glyphName="uni0307" x="198" y="0" flags="0x4"/>
    </TTGlyph>
    <TTGlyph name="egrave" xMin="37" yMin="-12" xMax="447" yMax="712">
      <component glyphName="e" x="0" y="0" flags="0x204"/>
      <component glyphName="uni0300" x="198" y="0" flags="0x4"/>
    </TTGlyph>
    <TTGlyph name="egrave.sups" xMin="60" yMin="265" xMax="339" yMax="737">
      <contour>
        <pt x="186" y="737" on="1"/>
        <pt x="242" y="737" on="1"/>
        <pt x="281" y="643" on="1"/>
        <pt x="239" y="643" on="1"/>
      </contour>
      <contour>
        <pt x="60" y="401" on="1"/>
        <pt x="60" y="446" on="0"/>
        <pt x="91" y="520" on="0"/>
        <pt x="140" y="573" on="0"/>
        <pt x="203" y="603" on="0"/>
        <pt x="235" y="603" on="1"/>
        <pt x="265" y="603" on="0"/>
        <pt x="305" y="583" on="0"/>
        <pt x="329" y="550" on="0"/>
        <pt x="339" y="507" on="0"/>
        <pt x="339" y="485" on="1"/>
        <pt x="339" y="465" on="0"/>
        <pt x="331" y="431" on="0"/>
        <pt x="326" y="420" on="1"/>
        <pt x="117" y="420" on="1"/>
        <pt x="111" y="368" on="0"/>
        <pt x="156" y="310" on="0"/>
        <pt x="202" y="310" on="1"/>
        <pt x="223" y="310" on="0"/>
        <pt x="258" y="325" on="0"/>
        <pt x="275" y="336" on="1"/>
        <pt x="294" y="296" on="1"/>
        <pt x="272" y="284" on="0"/>
        <pt x="218" y="265" on="0"/>
        <pt x="189" y="265" on="1"/>
        <pt x="130" y="265" on="0"/>
        <pt x="60" y="335" on="0"/>
      </contour>
      <contour>
        <pt x="286" y="459" on="1"/>
        <pt x="288" y="467" on="0"/>
        <pt x="289" y="481" on="0"/>
        <pt x="289" y="488" on="1"/>
        <pt x="289" y="515" on="0"/>
        <pt x="262" y="556" on="0"/>
        <pt x="229" y="556" on="1"/>
        <pt x="213" y="556" on="0"/>
        <pt x="181" y="542" on="0"/>
        <pt x="152" y="517" on="0"/>
        <pt x="130" y="481" on="0"/>
        <pt x="124" y="459" on="1"/>
      </contour>
    </TTGlyph>
    <TTGlyph name="eight" xMin="35" yMin="-12" xMax="471" yMax="650">
      <contour>
        <pt x="220" y="320" on="1"/>
        <pt x="169" y="292" on="0"/>
        <pt x="105" y="218" on="0"/>
        <pt x="105" y="162" on="1"/>
        <pt x="105" y="134" on="0"/>
        <pt x="124" y="91" on="0"/>
        <pt x="157" y="61" on="0"/>
        <pt x="201" y="45" on="0"/>
        <pt x="226" y="45" on="1"/>
        <pt x="252" y="45" on="0"/>
        <pt x="301" y="62" on="0"/>
        <pt x="340" y="93" on="0"/>
        <pt x="363" y="140" on="0"/>
        <pt x="363" y="170" on="1"/>
        <pt x="363" y="198" on="0"/>
        <pt x="340" y="240" on="0"/>
        <pt x="300" y="275" on="0"/>
        <pt x="248" y="305" on="0"/>
      </contour>
      <contour>
        <pt x="308" y="345" on="1"/>
        <pt x="326" y="357" on="0"/>
        <pt x="361" y="387" on="0"/>
        <pt x="388" y="424" on="0"/>
        <pt x="404" y="467" on="0"/>
        <pt x="404" y="492" on="1"/>
        <pt x="404" y="540" on="0"/>
        <pt x="349" y="592" on="0"/>
        <pt x="308" y="592" on="1"/>
        <pt x="286" y="592" on="0"/>
        <pt x="246" y="577" on="0"/>
        <pt x="215" y="548" on="0"/>
        <pt x="197" y="506" on="0"/>
        <pt x="197" y="480" on="1"/>
        <pt x="197" y="430" on="0"/>
        <pt x="255" y="370" on="0"/>
      </contour>
      <contour>
        <pt x="35" y="154" on="1"/>
        <pt x="35" y="190" on="0"/>
        <pt x="60" y="250" on="0"/>
        <pt x="101" y="297" on="0"/>
        <pt x="155" y="333" on="0"/>
        <pt x="184" y="346" on="1"/>
        <pt x="184" y="350" on="1"/>
        <pt x="156" y="378" on="0"/>
        <pt x="127" y="437" on="0"/>
        <pt x="127" y="476" on="1"/>
        <pt x="127" y="517" on="0"/>
        <pt x="157" y="581" on="0"/>
        <pt x="209" y="626" on="0"/>
        <pt x="276" y="650" on="0"/>
        <pt x="314" y="650" on="1"/>
        <pt x="344" y="650" on="0"/>
        <pt x="401" y="632" on="0"/>
        <pt x="445" y="595" on="0"/>
        <pt x="471" y="539" on="0"/>
        <pt x="471" y="502" on="1"/>
        <pt x="471" y="438" on="0"/>
        <pt x="403" y="352" on="0"/>
        <pt x="349" y="322" on="1"/>
        <pt x="349" y="318" on="1"/>
        <pt x="363" y="308" on="0"/>
        <pt x="394" y="280" on="0"/>
        <pt x="419" y="244" on="0"/>
        <pt x="435" y="199" on="0"/>
        <pt x="435" y="174" on="1"/>
        <pt x="435" y="131" on="0"/>
        <pt x="400" y="62" on="0"/>
        <pt x="342" y="14" on="0"/>
        <pt x="265" y="-12" on="0"/>
        <pt x="222" y="-12" on="1"/>
        <pt x="187" y="-12" on="0"/>
        <pt x="120" y="8" on="0"/>
        <pt x="68" y="49" on="0"/>
        <pt x="35" y="112" on="0"/>
      </contour>
    </TTGlyph>
    <TTGlyph name="eight.dnom" xMin="13" yMin="-12" xMax="305" yMax="402">
      <contour>
        <pt x="70" y="99" on="1"/>
        <pt x="70" y="68" on="0"/>
        <pt x="110" y="32" on="0"/>
        <pt x="139" y="32" on="1"/>
        <pt x="172" y="32" on="0"/>
        <pt x="222" y="71" on="0"/>
        <pt x="222" y="104" on="1"/>
        <pt x="222" y="121" on="0"/>
        <pt x="209" y="145" on="0"/>
        <pt x="187" y="163" on="0"/>
        <pt x="158" y="178" on="0"/>
        <pt x="142" y="186" on="1"/>
        <pt x="107" y="169" on="0"/>
        <pt x="70" y="124" on="0"/>
      </contour>
      <contour>
        <pt x="191" y="220" on="1"/>
        <pt x="220" y="237" on="0"/>
        <pt x="251" y="277" on="0"/>
        <pt x="251" y="298" on="1"/>
        <pt x="251" y="326" on="0"/>
        <pt x="218" y="357" on="0"/>
        <pt x="193" y="357" on="1"/>
        <pt x="164" y="357" on="0"/>
        <pt x="124" y="322" on="0"/>
        <pt x="124" y="295" on="1"/>
        <pt x="124" y="267" on="0"/>
        <pt x="162" y="231" on="0"/>
      </contour>
      <contour>
        <pt x="13" y="91" on="1"/>
        <pt x="13" y="112" on="0"/>
        <pt x="29" y="149" on="0"/>
        <pt x="56" y="180" on="0"/>
        <pt x="90" y="204" on="0"/>
        <pt x="108" y="212" on="1"/>
        <pt x="109" y="216" on="1"/>
        <pt x="92" y="231" on="0"/>
        <pt x="69" y="269" on="0"/>
        <pt x="69" y="292" on="1"/>
        <pt x="69" y="316" on="0"/>
        <pt x="89" y="357" on="0"/>
        <pt x="124" y="386" on="0"/>
        <pt x="171" y="402" on="0"/>
        <pt x="197" y="402" on="1"/>
        <pt x="245" y="402" on="0"/>
        <pt x="305" y="349" on="0"/>
        <pt x="305" y="305" on="1"/>
        <pt x="305" y="267" on="0"/>
        <pt x="257" y="212" on="0"/>
        <pt x="229" y="197" on="1"/>
        <pt x="229" y="193" on="1"/>
        <pt x="250" y="178" on="0"/>
        <pt x="278" y="137" on="0"/>
        <pt x="278" y="107" on="1"/>
        <pt x="278" y="81" on="0"/>
        <pt x="255" y="37" on="0"/>
        <pt x="216" y="5" on="0"/>
        <pt x="164" y="-12" on="0"/>
        <pt x="134" y="-12" on="1"/>
        <pt x="81" y="-12" on="0"/>
        <pt x="13" y="45" on="0"/>
      </contour>
    </TTGlyph>
    <TTGlyph name="eight.numr" xMin="63" yMin="258" xMax="355" yMax="672">
      <component glyphName="eight.dnom" x="50" y="270" flags="0x204"/>
    </TTGlyph>
    <TTGlyph name="eight.onum" xMin="35" yMin="-12" xMax="471" yMax="650">
      <component glyphName="eight" x="0" y="0" flags="0x204"/>
    </TTGlyph>
    <TTGlyph name="eight.pnum" xMin="35" yMin="-12" xMax="471" yMax="650">
      <component glyphName="eight" x="0" y="0" flags="0x204"/>
    </TTGlyph>
    <TTGlyph name="eight.subs" xMin="-20" yMin="-181" xMax="272" yMax="233">
      <component glyphName="eight.dnom" x="-33" y="-169" flags="0x204"/>
    </TTGlyph>
    <TTGlyph name="eight.sups" xMin="99" yMin="428" xMax="391" yMax="842">
      <component glyphName="eight.dnom" x="86" y="440" flags="0x204"/>
    </TTGlyph>
    <TTGlyph name="eight.tnum" xMin="35" yMin="-12" xMax="471" yMax="650">
      <component glyphName="eight" x="0" y="0" flags="0x204"/>
    </TTGlyph>
    <TTGlyph name="ellipsis" xMin="83" yMin="-12" xMax="854" yMax="108">
      <component glyphName="period" x="60" y="0" flags="0x4"/>
      <component glyphName="period" x="389" y="0" flags="0x4"/>
      <component glyphName="period" x="718" y="0" flags="0x4"/>
    </TTGlyph>
    <TTGlyph name="emacron" xMin="37" yMin="-12" xMax="447" yMax="655">
      <component glyphName="e" x="0" y="0" flags="0x204"/>
      <component glyphName="uni0304" x="198" y="0" flags="0x4"/>
    </TTGlyph>
    <TTGlyph name="emdash" xMin="35" yMin="225" xMax="734" yMax="279">
      <contour>
        <pt x="46" y="279" on="1"/>
        <pt x="734" y="279" on="1"/>
        <pt x="723" y="225" on="1"/>
        <pt x="35" y="225" on="1"/>
      </contour>
    </TTGlyph>
    <TTGlyph name="endash" xMin="35" yMin="225" xMax="427" yMax="279">
      <contour>
        <pt x="46" y="279" on="1"/>
        <pt x="427" y="279" on="1"/>
        <pt x="415" y="225" on="1"/>
        <pt x="35" y="225" on="1"/>
      </contour>
    </TTGlyph>
    <TTGlyph name="eogonek" xMin="37" yMin="-206" xMax="447" yMax="498">
      <contour>
        <pt x="179" y="-139" on="1"/>
        <pt x="179" y="-117" on="0"/>
        <pt x="196" y="-77" on="0"/>
        <pt x="221" y="-43" on="0"/>
        <pt x="248" y="-17" on="0"/>
        <pt x="259" y="-8" on="1"/>
        <pt x="251" y="-10" on="0"/>
        <pt x="234" y="-12" on="0"/>
        <pt x="228" y="-12" on="1"/>
        <pt x="141" y="-12" on="0"/>
        <pt x="37" y="93" on="0"/>
        <pt x="37" y="191" on="1"/>
        <pt x="37" y="260" on="0"/>
        <pt x="83" y="373" on="0"/>
        <pt x="156" y="454" on="0"/>
        <pt x="249" y="498" on="0"/>
        <pt x="297" y="498" on="1"/>
        <pt x="338" y="498" on="0"/>
        <pt x="395" y="471" on="0"/>
        <pt x="431" y="424" on="0"/>
        <pt x="447" y="359" on="0"/>
        <pt x="447" y="322" on="1"/>
        <pt x="447" y="293" on="0"/>
        <pt x="435" y="241" on="0"/>
        <pt x="430" y="227" on="1"/>
        <pt x="114" y="227" on="1"/>
        <pt x="107" y="180" on="0"/>
        <pt x="123" y="113" on="0"/>
        <pt x="160" y="69" on="0"/>
        <pt x="214" y="49" on="0"/>
        <pt x="246" y="49" on="1"/>
        <pt x="275" y="49" on="0"/>
        <pt x="332" y="74" on="0"/>
        <pt x="355" y="91" on="1"/>
        <pt x="385" y="40" on="1"/>
        <pt x="343" y="15" on="0"/>
        <pt x="287" y="-29" on="0"/>
        <pt x="254" y="-68" on="0"/>
        <pt x="240" y="-103" on="0"/>
        <pt x="240" y="-118" on="1"/>
        <pt x="240" y="-135" on="0"/>
        <pt x="261" y="-155" on="0"/>
        <pt x="276" y="-155" on="1"/>
        <pt x="287" y="-155" on="0"/>
        <pt x="304" y="-149" on="0"/>
        <pt x="314" y="-143" on="1"/>
        <pt x="330" y="-181" on="1"/>
        <pt x="313" y="-192" on="0"/>
        <pt x="271" y="-206" on="0"/>
        <pt x="253" y="-206" on="1"/>
        <pt x="221" y="-206" on="0"/>
        <pt x="179" y="-172" on="0"/>
      </contour>
      <contour>
        <pt x="377" y="279" on="1"/>
        <pt x="379" y="291" on="0"/>
        <pt x="382" y="315" on="0"/>
        <pt x="382" y="329" on="1"/>
        <pt x="382" y="350" on="0"/>
        <pt x="372" y="389" on="0"/>
        <pt x="350" y="419" on="0"/>
        <pt x="314" y="437" on="0"/>
        <pt x="288" y="437" on="1"/>
        <pt x="261" y="437" on="0"/>
        <pt x="210" y="415" on="0"/>
        <pt x="166" y="373" on="0"/>
        <pt x="131" y="315" on="0"/>
        <pt x="122" y="279" on="1"/>
      </contour>
    </TTGlyph>
    <TTGlyph name="equal" xMin="48" yMin="196" xMax="458" yMax="465">
      <component glyphName="minus" x="0" y="106" flags="0x204"/>
      <component glyphName="minus" x="0" y="-106" flags="0x4"/>
    </TTGlyph>
    <TTGlyph name="estimated" xMin="66" yMin="-12" xMax="774" yMax="660">
      <contour>
        <pt x="204" y="108" on="1"/>
        <pt x="245" y="61" on="0"/>
        <pt x="357" y="8" on="0"/>
        <pt x="422" y="8" on="1"/>
        <pt x="490" y="8" on="0"/>
        <pt x="608" y="69" on="0"/>
        <pt x="650" y="120" on="1"/>
        <pt x="702" y="120" on="1"/>
        <pt x="652" y="60" on="0"/>
        <pt x="506" y="-12" on="0"/>
        <pt x="420" y="-12" on="1"/>
        <pt x="346" y="-12" on="0"/>
        <pt x="217" y="41" on="0"/>
        <pt x="121" y="132" on="0"/>
        <pt x="66" y="254" on="0"/>
        <pt x="66" y="324" on="1"/>
        <pt x="66" y="394" on="0"/>
        <pt x="121" y="516" on="0"/>
        <pt x="217" y="607" on="0"/>
        <pt x="346" y="660" on="0"/>
        <pt x="420" y="660" on="1"/>
        <pt x="493" y="660" on="0"/>
        <pt x="622" y="607" on="0"/>
        <pt x="718" y="516" on="0"/>
        <pt x="774" y="394" on="0"/>
        <pt x="774" y="324" on="1"/>
        <pt x="774" y="316" on="1"/>
        <pt x="200" y="316" on="1"/>
        <pt x="196" y="316" on="0"/>
        <pt x="196" y="312" on="1"/>
        <pt x="196" y="128" on="1"/>
        <pt x="196" y="122" on="0"/>
        <pt x="201" y="113" on="0"/>
      </contour>
      <contour>
        <pt x="640" y="334" on="1"/>
        <pt x="646" y="334" on="0"/>
        <pt x="646" y="340" on="1"/>
        <pt x="646" y="524" on="1"/>
        <pt x="646" y="536" on="0"/>
        <pt x="636" y="546" on="1"/>
        <pt x="594" y="590" on="0"/>
        <pt x="484" y="640" on="0"/>
        <pt x="422" y="640" on="1"/>
        <pt x="357" y="640" on="0"/>
        <pt x="246" y="587" on="0"/>
        <pt x="204" y="542" on="1"/>
        <pt x="201" y="537" on="0"/>
        <pt x="196" y="526" on="0"/>
        <pt x="196" y="520" on="1"/>
        <pt x="196" y="340" on="1"/>
        <pt x="196" y="334" on="0"/>
        <pt x="200" y="334" on="1"/>
      </contour>
    </TTGlyph>
    <TTGlyph name="eth" xMin="43" yMin="-12" xMax="530" yMax="730">
      <contour>
        <pt x="225" y="52" on="1"/>
        <pt x="261" y="52" on="0"/>
        <pt x="321" y="93" on="0"/>
        <pt x="365" y="163" on="0"/>
        <pt x="392" y="256" on="0"/>
        <pt x="395" y="309" on="1"/>
        <pt x="375" y="339" on="0"/>
        <pt x="320" y="386" on="0"/>
        <pt x="281" y="386" on="1"/>
        <pt x="242" y="386" on="0"/>
        <pt x="180" y="350" on="0"/>
        <pt x="137" y="292" on="0"/>
        <pt x="113" y="218" on="0"/>
        <pt x="113" y="179" on="1"/>
        <pt x="113" y="153" on="0"/>
        <pt x="128" y="107" on="0"/>
        <pt x="156" y="72" on="0"/>
        <pt x="198" y="52" on="0"/>
      </contour>
      <contour>
        <pt x="397" y="595" on="1"/>
        <pt x="431" y="545" on="0"/>
        <pt x="469" y="423" on="0"/>
        <pt x="469" y="347" on="1"/>
        <pt x="469" y="276" on="0"/>
        <pt x="435" y="146" on="0"/>
        <pt x="370" y="47" on="0"/>
        <pt x="276" y="-12" on="0"/>
        <pt x="216" y="-12" on="1"/>
        <pt x="179" y="-12" on="0"/>
        <pt x="116" y="16" on="0"/>
        <pt x="69" y="65" on="0"/>
        <pt x="43" y="132" on="0"/>
        <pt x="43" y="172" on="1"/>
        <pt x="43" y="224" on="0"/>
        <pt x="75" y="323" on="0"/>
        <pt x="135" y="400" on="0"/>
        <pt x="220" y="447" on="0"/>
        <pt x="274" y="447" on="1"/>
        <pt x="310" y="447" on="0"/>
        <pt x="373" y="409" on="0"/>
        <pt x="395" y="376" on="1"/>
        <pt x="391" y="436" on="0"/>
        <pt x="361" y="530" on="0"/>
        <pt x="334" y="569" on="1"/>
        <pt x="187" y="508" on="1"/>
        <pt x="171" y="549" on="1"/>
        <pt x="306" y="605" on="1"/>
        <pt x="269" y="647" on="0"/>
        <pt x="211" y="684" on="1"/>
        <pt x="247" y="730" on="1"/>
        <pt x="282" y="710" on="0"/>
        <pt x="343" y="660" on="0"/>
        <pt x="369" y="631" on="1"/>
        <pt x="514" y="691" on="1"/>
        <pt x="530" y="650" on="1"/>
      </contour>
    </TTGlyph>
    <TTGlyph name="exclam" xMin="43" yMin="-12" xMax="261" yMax="671">
      <contour>
        <pt x="169" y="579" on="1"/>
        <pt x="184" y="671" on="1"/>
        <pt x="261" y="671" on="1"/>
        <pt x="242" y="579" on="1"/>
        <pt x="156" y="196" on="1"/>
        <pt x="102" y="196" on="1"/>
      </contour>
      <contour>
        <pt x="91" y="-12" on="1"/>
        <pt x="69" y="-12" on="0"/>
        <pt x="43" y="16" on="0"/>
        <pt x="43" y="38" on="1"/>
        <pt x="43" y="64" on="0"/>
        <pt x="81" y="108" on="0"/>
        <pt x="110" y="108" on="1"/>
        <pt x="133" y="108" on="0"/>
        <pt x="156" y="79" on="0"/>
        <pt x="156" y="57" on="1"/>
        <pt x="156" y="31" on="0"/>
        <pt x="120" y="-12" on="0"/>
      </contour>
    </TTGlyph>
    <TTGlyph name="exclamdown" xMin="21" yMin="-185" xMax="238" yMax="498">
      <contour>
        <pt x="113" y="-93" on="1"/>
        <pt x="98" y="-185" on="1"/>
        <pt x="21" y="-185" on="1"/>
        <pt x="40" y="-93" on="1"/>
        <pt x="126" y="290" on="1"/>
        <pt x="180" y="290" on="1"/>
      </contour>
      <contour>
        <pt x="191" y="498" on="1"/>
        <pt x="213" y="498" on="0"/>
        <pt x="238" y="470" on="0"/>
        <pt x="238" y="448" on="1"/>
        <pt x="238" y="435" on="0"/>
        <pt x="228" y="410" on="0"/>
        <pt x="210" y="390" on="0"/>
        <pt x="186" y="378" on="0"/>
        <pt x="171" y="378" on="1"/>
        <pt x="149" y="378" on="0"/>
        <pt x="126" y="407" on="0"/>
        <pt x="126" y="429" on="1"/>
        <pt x="126" y="455" on="0"/>
        <pt x="162" y="498" on="0"/>
      </contour>
    </TTGlyph>
    <TTGlyph name="f" xMin="43" yMin="0" xMax="397" yMax="724">
      <contour>
        <pt x="76" y="481" on="1"/>
        <pt x="141" y="486" on="1"/>
        <pt x="157" y="567" on="1"/>
        <pt x="172" y="641" on="0"/>
        <pt x="249" y="724" on="0"/>
        <pt x="311" y="724" on="1"/>
        <pt x="337" y="724" on="0"/>
        <pt x="379" y="711" on="0"/>
        <pt x="397" y="700" on="1"/>
        <pt x="370" y="645" on="1"/>
        <pt x="359" y="652" on="0"/>
        <pt x="333" y="662" on="0"/>
        <pt x="316" y="662" on="1"/>
        <pt x="283" y="662" on="0"/>
        <pt x="242" y="612" on="0"/>
        <pt x="234" y="569" on="1"/>
        <pt x="217" y="486" on="1"/>
        <pt x="315" y="486" on="1"/>
        <pt x="303" y="424" on="1"/>
        <pt x="204" y="424" on="1"/>
        <pt x="119" y="0" on="1"/>
        <pt x="43" y="0" on="1"/>
        <pt x="128" y="424" on="1"/>
        <pt x="65" y="424" on="1"/>
      </contour>
    </TTGlyph>
    <TTGlyph name="f.sups" xMin="62" yMin="266" xMax="306" yMax="746">
      <contour>
        <pt x="286" y="688" on="1"/>
        <pt x="279" y="692" on="0"/>
        <pt x="260" y="699" on="0"/>
        <pt x="249" y="699" on="1"/>
        <pt x="229" y="699" on="0"/>
        <pt x="200" y="668" on="0"/>
        <pt x="195" y="640" on="1"/>
        <pt x="185" y="588" on="1"/>
        <pt x="252" y="588" on="1"/>
        <pt x="243" y="541" on="1"/>
        <pt x="175" y="541" on="1"/>
        <pt x="120" y="266" on="1"/>
        <pt x="62" y="266" on="1"/>
        <pt x="117" y="541" on="1"/>
        <pt x="75" y="541" on="1"/>
        <pt x="83" y="585" on="1"/>
        <pt x="127" y="588" on="1"/>
        <pt x="137" y="638" on="1"/>
        <pt x="147" y="688" on="0"/>
        <pt x="201" y="746" on="0"/>
        <pt x="246" y="746" on="1"/>
        <pt x="277" y="746" on="0"/>
        <pt x="306" y="730" on="1"/>
      </contour>
    </TTGlyph>
    <TTGlyph name="f_f" xMin="43" yMin="0" xMax="668" yMax="724">
      <contour>
        <pt x="427" y="567" on="1"/>
        <pt x="442" y="641" on="0"/>
        <pt x="520" y="724" on="0"/>
        <pt x="581" y="724" on="1"/>
        <pt x="607" y="724" on="0"/>
        <pt x="648" y="711" on="0"/>
        <pt x="668" y="701" on="1"/>
        <pt x="640" y="645" on="1"/>
        <pt x="630" y="652" on="0"/>
        <pt x="604" y="662" on="0"/>
        <pt x="587" y="662" on="1"/>
        <pt x="554" y="662" on="0"/>
        <pt x="512" y="612" on="0"/>
        <pt x="504" y="569" on="1"/>
        <pt x="487" y="486" on="1"/>
        <pt x="586" y="486" on="1"/>
        <pt x="573" y="424" on="1"/>
        <pt x="475" y="424" on="1"/>
        <pt x="390" y="0" on="1"/>
        <pt x="313" y="0" on="1"/>
        <pt x="398" y="424" on="1"/>
        <pt x="205" y="424" on="1"/>
        <pt x="119" y="0" on="1"/>
        <pt x="43" y="0" on="1"/>
        <pt x="128" y="424" on="1"/>
        <pt x="65" y="424" on="1"/>
        <pt x="76" y="481" on="1"/>
        <pt x="141" y="486" on="1"/>
        <pt x="155" y="557" on="1"/>
        <pt x="171" y="631" on="0"/>
        <pt x="252" y="714" on="0"/>
        <pt x="315" y="714" on="1"/>
        <pt x="344" y="714" on="0"/>
        <pt x="388" y="701" on="0"/>
        <pt x="408" y="691" on="1"/>
        <pt x="381" y="635" on="1"/>
        <pt x="369" y="642" on="0"/>
        <pt x="341" y="652" on="0"/>
        <pt x="321" y="652" on="1"/>
        <pt x="286" y="652" on="0"/>
        <pt x="240" y="602" on="0"/>
        <pt x="232" y="559" on="1"/>
        <pt x="217" y="486" on="1"/>
        <pt x="411" y="486" on="1"/>
      </contour>
    </TTGlyph>
    <TTGlyph name="f_t" xMin="43" yMin="-12" xMax="581" yMax="724">
      <contour>
        <pt x="387" y="146" on="1"/>
        <pt x="384" y="128" on="0"/>
        <pt x="384" y="110" on="1"/>
        <pt x="384" y="80" on="0"/>
        <pt x="411" y="50" on="0"/>
        <pt x="446" y="50" on="1"/>
        <pt x="460" y="50" on="0"/>
        <pt x="486" y="60" on="0"/>
        <pt x="497" y="65" on="1"/>
        <pt x="513" y="10" on="1"/>
        <pt x="497" y="2" on="0"/>
        <pt x="451" y="-12" on="0"/>
        <pt x="422" y="-12" on="1"/>
        <pt x="390" y="-12" on="0"/>
        <pt x="346" y="5" on="0"/>
        <pt x="318" y="34" on="0"/>
        <pt x="306" y="73" on="0"/>
        <pt x="306" y="96" on="1"/>
        <pt x="306" y="111" on="0"/>
        <pt x="308" y="136" on="0"/>
        <pt x="311" y="150" on="1"/>
        <pt x="368" y="424" on="1"/>
        <pt x="205" y="424" on="1"/>
        <pt x="119" y="0" on="1"/>
        <pt x="43" y="0" on="1"/>
        <pt x="128" y="424" on="1"/>
        <pt x="65" y="424" on="1"/>
        <pt x="76" y="481" on="1"/>
        <pt x="141" y="486" on="1"/>
        <pt x="157" y="567" on="1"/>
        <pt x="172" y="641" on="0"/>
        <pt x="249" y="724" on="0"/>
        <pt x="311" y="724" on="1"/>
        <pt x="337" y="724" on="0"/>
        <pt x="378" y="711" on="0"/>
        <pt x="397" y="701" on="1"/>
        <pt x="370" y="645" on="1"/>
        <pt x="359" y="652" on="0"/>
        <pt x="333" y="662" on="0"/>
        <pt x="316" y="662" on="1"/>
        <pt x="283" y="662" on="0"/>
        <pt x="242" y="612" on="0"/>
        <pt x="234" y="569" on="1"/>
        <pt x="217" y="486" on="1"/>
        <pt x="384" y="486" on="1"/>
        <pt x="420" y="620" on="1"/>
        <pt x="485" y="620" on="1"/>
        <pt x="458" y="486" on="1"/>
        <pt x="581" y="486" on="1"/>
        <pt x="569" y="424" on="1"/>
        <pt x="444" y="424" on="1"/>
      </contour>
    </TTGlyph>
    <TTGlyph name="fi" xMin="43" yMin="0" xMax="533" yMax="724">
      <component glyphName="f" x="0" y="0" flags="0x4"/>
      <component glyphName="i" x="282" y="0" flags="0x4"/>
    </TTGlyph>
    <TTGlyph name="figuredash" xMin="35" yMin="225" xMax="444" yMax="279">
      <contour>
        <pt x="46" y="279" on="1"/>
        <pt x="444" y="279" on="1"/>
        <pt x="432" y="225" on="1"/>
        <pt x="35" y="225" on="1"/>
      </contour>
    </TTGlyph>
    <TTGlyph name="five" xMin="-4" yMin="-12" xMax="471" yMax="638">
      <contour>
        <pt x="46" y="137" on="1"/>
        <pt x="57" y="120" on="0"/>
        <pt x="83" y="90" on="0"/>
        <pt x="117" y="66" on="0"/>
        <pt x="161" y="52" on="0"/>
        <pt x="189" y="52" on="1"/>
        <pt x="220" y="52" on="0"/>
        <pt x="277" y="76" on="0"/>
        <pt x="321" y="121" on="0"/>
        <pt x="347" y="183" on="0"/>
        <pt x="347" y="222" on="1"/>
        <pt x="347" y="284" on="0"/>
        <pt x="284" y="344" on="0"/>
        <pt x="232" y="344" on="1"/>
        <pt x="201" y="344" on="0"/>
        <pt x="157" y="328" on="0"/>
        <pt x="125" y="311" on="1"/>
        <pt x="92" y="337" on="1"/>
        <pt x="172" y="638" on="1"/>
        <pt x="471" y="638" on="1"/>
        <pt x="458" y="572" on="1"/>
        <pt x="225" y="572" on="1"/>
        <pt x="173" y="384" on="1"/>
        <pt x="190" y="392" on="0"/>
        <pt x="232" y="404" on="0"/>
        <pt x="257" y="404" on="1"/>
        <pt x="293" y="404" on="0"/>
        <pt x="354" y="383" on="0"/>
        <pt x="399" y="341" on="0"/>
        <pt x="424" y="278" on="0"/>
        <pt x="424" y="236" on="1"/>
        <pt x="424" y="179" on="0"/>
        <pt x="384" y="87" on="0"/>
        <pt x="318" y="23" on="0"/>
        <pt x="231" y="-12" on="0"/>
        <pt x="184" y="-12" on="1"/>
        <pt x="118" y="-12" on="0"/>
        <pt x="25" y="51" on="0"/>
        <pt x="-4" y="96" on="1"/>
      </contour>
    </TTGlyph>
    <TTGlyph name="five.dnom" xMin="0" yMin="-12" xMax="318" yMax="390">
      <contour>
        <pt x="41" y="97" on="1"/>
        <pt x="55" y="71" on="0"/>
        <pt x="99" y="37" on="0"/>
        <pt x="137" y="37" on="1"/>
        <pt x="153" y="37" on="0"/>
        <pt x="185" y="51" on="0"/>
        <pt x="211" y="76" on="0"/>
        <pt x="226" y="111" on="0"/>
        <pt x="226" y="133" on="1"/>
        <pt x="226" y="169" on="0"/>
        <pt x="188" y="209" on="0"/>
        <pt x="156" y="209" on="1"/>
        <pt x="133" y="209" on="0"/>
        <pt x="101" y="194" on="0"/>
        <pt x="82" y="180" on="1"/>
        <pt x="59" y="203" on="1"/>
        <pt x="111" y="390" on="1"/>
        <pt x="318" y="390" on="1"/>
        <pt x="308" y="339" on="1"/>
        <pt x="150" y="339" on="1"/>
        <pt x="121" y="238" on="1"/>
        <pt x="134" y="246" on="0"/>
        <pt x="164" y="253" on="0"/>
        <pt x="175" y="253" on="1"/>
        <pt x="224" y="253" on="0"/>
        <pt x="286" y="192" on="0"/>
        <pt x="286" y="139" on="1"/>
        <pt x="286" y="105" on="0"/>
        <pt x="261" y="49" on="0"/>
        <pt x="219" y="10" on="0"/>
        <pt x="165" y="-12" on="0"/>
        <pt x="135" y="-12" on="1"/>
        <pt x="85" y="-12" on="0"/>
        <pt x="17" y="36" on="0"/>
        <pt x="0" y="68" on="1"/>
      </contour>
    </TTGlyph>
    <TTGlyph name="five.numr" xMin="50" yMin="258" xMax="368" yMax="660">
      <component glyphName="five.dnom" x="50" y="270" flags="0x204"/>
    </TTGlyph>
    <TTGlyph name="five.onum" xMin="-20" yMin="-86" xMax="457" yMax="574">
      <component glyphName="five.tnum" x="0" y="0" flags="0x204"/>
    </TTGlyph>
    <TTGlyph name="five.pnum" xMin="-9" yMin="-12" xMax="466" yMax="638">
      <component glyphName="five" x="-5" y="0" flags="0x4"/>
    </TTGlyph>
    <TTGlyph name="five.subs" xMin="-33" yMin="-181" xMax="285" yMax="221">
      <component glyphName="five.dnom" x="-33" y="-169" flags="0x204"/>
    </TTGlyph>
    <TTGlyph name="five.sups" xMin="86" yMin="428" xMax="404" yMax="830">
      <component glyphName="five.dnom" x="86" y="440" flags="0x204"/>
    </TTGlyph>
    <TTGlyph name="five.tnum" xMin="-20" yMin="-86" xMax="457" yMax="574">
      <contour>
        <pt x="30" y="62" on="1"/>
        <pt x="41" y="46" on="0"/>
        <pt x="67" y="15" on="0"/>
        <pt x="101" y="-9" on="0"/>
        <pt x="144" y="-23" on="0"/>
        <pt x="172" y="-23" on="1"/>
        <pt x="203" y="-23" on="0"/>
        <pt x="261" y="1" on="0"/>
        <pt x="305" y="46" on="0"/>
        <pt x="331" y="109" on="0"/>
        <pt x="331" y="148" on="1"/>
        <pt x="331" y="211" on="0"/>
        <pt x="268" y="275" on="0"/>
        <pt x="216" y="275" on="1"/>
        <pt x="184" y="275" on="0"/>
        <pt x="140" y="259" on="0"/>
        <pt x="109" y="242" on="1"/>
        <pt x="76" y="268" on="1"/>
        <pt x="157" y="574" on="1"/>
        <pt x="457" y="574" on="1"/>
        <pt x="443" y="508" on="1"/>
        <pt x="211" y="508" on="1"/>
        <pt x="157" y="314" on="1"/>
        <pt x="174" y="323" on="0"/>
        <pt x="216" y="334" on="0"/>
        <pt x="241" y="334" on="1"/>
        <pt x="277" y="334" on="0"/>
        <pt x="338" y="312" on="0"/>
        <pt x="383" y="268" on="0"/>
        <pt x="408" y="203" on="0"/>
        <pt x="408" y="161" on="1"/>
        <pt x="408" y="104" on="0"/>
        <pt x="368" y="13" on="0"/>
        <pt x="302" y="-52" on="0"/>
        <pt x="215" y="-86" on="0"/>
        <pt x="168" y="-86" on="1"/>
        <pt x="102" y="-86" on="0"/>
        <pt x="9" y="-24" on="0"/>
        <pt x="-20" y="22" on="1"/>
      </contour>
    </TTGlyph>
    <TTGlyph name="fiveeighths" xMin="46" yMin="-12" xMax="737" yMax="672">
      <component glyphName="five.dnom" x="46" y="270" flags="0x4"/>
      <component glyphName="fraction" x="352" y="0" flags="0x4"/>
      <component glyphName="eight.dnom" x="432" y="0" flags="0x4"/>
    </TTGlyph>
    <TTGlyph name="fl" xMin="43" yMin="-12" xMax="532" yMax="724">
      <component glyphName="f" x="0" y="0" flags="0x4"/>
      <component glyphName="l" x="282" y="0" flags="0x4"/>
    </TTGlyph>
    <TTGlyph name="fl.a" xMin="43" yMin="0" xMax="532" yMax="724">
      <component glyphName="f" x="0" y="0" flags="0x4"/>
      <component glyphName="l.a" x="282" y="0" flags="0x4"/>
    </TTGlyph>
    <TTGlyph name="four" xMin="8" yMin="0" xMax="447" yMax="638">
      <contour>
        <pt x="244" y="0" on="1"/>
        <pt x="280" y="176" on="1"/>
        <pt x="8" y="176" on="1"/>
        <pt x="17" y="228" on="1"/>
        <pt x="359" y="638" on="1"/>
        <pt x="443" y="638" on="1"/>
        <pt x="363" y="238" on="1"/>
        <pt x="447" y="238" on="1"/>
        <pt x="434" y="176" on="1"/>
        <pt x="351" y="176" on="1"/>
        <pt x="316" y="0" on="1"/>
      </contour>
      <contour>
        <pt x="292" y="238" on="1"/>
        <pt x="329" y="427" on="1"/>
        <pt x="335" y="456" on="0"/>
        <pt x="352" y="521" on="0"/>
        <pt x="360" y="554" on="1"/>
        <pt x="356" y="554" on="1"/>
        <pt x="336" y="526" on="0"/>
        <pt x="297" y="473" on="0"/>
        <pt x="279" y="450" on="1"/>
        <pt x="102" y="238" on="1"/>
      </contour>
    </TTGlyph>
    <TTGlyph name="four.dnom" xMin="9" yMin="0" xMax="304" yMax="390">
      <contour>
        <pt x="194" y="149" on="1"/>
        <pt x="209" y="225" on="1"/>
        <pt x="235" y="333" on="1"/>
        <pt x="231" y="333" on="1"/>
        <pt x="164" y="249" on="1"/>
        <pt x="78" y="149" on="1"/>
      </contour>
      <contour>
        <pt x="295" y="106" on="1"/>
        <pt x="239" y="106" on="1"/>
        <pt x="218" y="0" on="1"/>
        <pt x="164" y="0" on="1"/>
        <pt x="185" y="106" on="1"/>
        <pt x="9" y="106" on="1"/>
        <pt x="16" y="139" on="1"/>
        <pt x="230" y="390" on="1"/>
        <pt x="295" y="390" on="1"/>
        <pt x="247" y="149" on="1"/>
        <pt x="304" y="149" on="1"/>
      </contour>
    </TTGlyph>
    <TTGlyph name="four.numr" xMin="59" yMin="270" xMax="354" yMax="660">
      <component glyphName="four.dnom" x="50" y="270" flags="0x204"/>
    </TTGlyph>
    <TTGlyph name="four.onum" xMin="-9" yMin="-74" xMax="438" yMax="574">
      <component glyphName="four.tnum" x="0" y="0" flags="0x204"/>
    </TTGlyph>
    <TTGlyph name="four.pnum" xMin="19" yMin="0" xMax="458" yMax="638">
      <component glyphName="four" x="11" y="0" flags="0x4"/>
    </TTGlyph>
    <TTGlyph name="four.subs" xMin="-24" yMin="-169" xMax="271" yMax="221">
      <component glyphName="four.dnom" x="-33" y="-169" flags="0x204"/>
    </TTGlyph>
    <TTGlyph name="four.sups" xMin="95" yMin="440" xMax="390" yMax="830">
      <component glyphName="four.dnom" x="86" y="440" flags="0x204"/>
    </TTGlyph>
    <TTGlyph name="four.tnum" xMin="-9" yMin="-74" xMax="438" yMax="574">
      <contour>
        <pt x="283" y="156" on="1"/>
        <pt x="325" y="363" on="1"/>
        <pt x="330" y="391" on="0"/>
        <pt x="347" y="457" on="0"/>
        <pt x="355" y="490" on="1"/>
        <pt x="351" y="490" on="1"/>
        <pt x="331" y="462" on="0"/>
        <pt x="293" y="409" on="0"/>
        <pt x="274" y="385" on="1"/>
        <pt x="85" y="156" on="1"/>
      </contour>
      <contour>
        <pt x="355" y="156" on="1"/>
        <pt x="437" y="156" on="1"/>
        <pt x="425" y="95" on="1"/>
        <pt x="343" y="95" on="1"/>
        <pt x="309" y="-74" on="1"/>
        <pt x="237" y="-74" on="1"/>
        <pt x="271" y="95" on="1"/>
        <pt x="-9" y="95" on="1"/>
        <pt x="1" y="146" on="1"/>
        <pt x="354" y="574" on="1"/>
        <pt x="438" y="574" on="1"/>
      </contour>
    </TTGlyph>
    <TTGlyph name="fraction" xMin="-211" yMin="-12" xMax="325" yMax="672">
      <contour>
        <pt x="-211" y="-12" on="1"/>
        <pt x="273" y="672" on="1"/>
        <pt x="325" y="672" on="1"/>
        <pt x="-159" y="-12" on="1"/>
      </contour>
    </TTGlyph>
    <TTGlyph name="g" xMin="-2" yMin="-224" xMax="498" yMax="498">
      <contour>
        <pt x="498" y="486" on="1"/>
        <pt x="396" y="-23" on="1"/>
        <pt x="376" y="-120" on="0"/>
        <pt x="260" y="-224" on="0"/>
        <pt x="168" y="-224" on="1"/>
        <pt x="119" y="-224" on="0"/>
        <pt x="33" y="-186" on="0"/>
        <pt x="-2" y="-157" on="1"/>
        <pt x="34" y="-104" on="1"/>
        <pt x="62" y="-128" on="0"/>
        <pt x="130" y="-162" on="0"/>
        <pt x="171" y="-162" on="1"/>
        <pt x="234" y="-162" on="0"/>
        <pt x="308" y="-83" on="0"/>
        <pt x="324" y="-17" on="1"/>
        <pt x="348" y="83" on="1"/>
        <pt x="345" y="83" on="1"/>
        <pt x="309" y="48" on="0"/>
        <pt x="227" y="5" on="0"/>
        <pt x="180" y="5" on="1"/>
        <pt x="118" y="5" on="0"/>
        <pt x="39" y="91" on="0"/>
        <pt x="39" y="176" on="1"/>
        <pt x="39" y="243" on="0"/>
        <pt x="82" y="360" on="0"/>
        <pt x="154" y="447" on="0"/>
        <pt x="247" y="498" on="0"/>
        <pt x="296" y="498" on="1"/>
        <pt x="334" y="498" on="0"/>
        <pt x="396" y="458" on="0"/>
        <pt x="413" y="425" on="1"/>
        <pt x="416" y="425" on="1"/>
        <pt x="435" y="486" on="1"/>
      </contour>
      <contour>
        <pt x="205" y="69" on="1"/>
        <pt x="240" y="69" on="0"/>
        <pt x="320" y="112" on="0"/>
        <pt x="355" y="154" on="1"/>
        <pt x="398" y="362" on="1"/>
        <pt x="375" y="400" on="0"/>
        <pt x="327" y="434" on="0"/>
        <pt x="299" y="434" on="1"/>
        <pt x="264" y="434" on="0"/>
        <pt x="198" y="393" on="0"/>
        <pt x="148" y="324" on="0"/>
        <pt x="118" y="235" on="0"/>
        <pt x="118" y="187" on="1"/>
        <pt x="118" y="127" on="0"/>
        <pt x="164" y="69" on="0"/>
      </contour>
    </TTGlyph>
    <TTGlyph name="g.a" xMin="-15" yMin="-224" xMax="506" yMax="498">
      <contour>
        <pt x="79" y="293" on="1"/>
        <pt x="79" y="337" on="0"/>
        <pt x="110" y="412" on="0"/>
        <pt x="164" y="467" on="0"/>
        <pt x="238" y="498" on="0"/>
        <pt x="281" y="498" on="1"/>
        <pt x="299" y="498" on="0"/>
        <pt x="326" y="492" on="0"/>
        <pt x="340" y="486" on="1"/>
        <pt x="506" y="486" on="1"/>
        <pt x="494" y="426" on="1"/>
        <pt x="398" y="426" on="1"/>
        <pt x="409" y="411" on="0"/>
        <pt x="422" y="373" on="0"/>
        <pt x="422" y="355" on="1"/>
        <pt x="422" y="311" on="0"/>
        <pt x="392" y="238" on="0"/>
        <pt x="338" y="184" on="0"/>
        <pt x="264" y="154" on="0"/>
        <pt x="220" y="154" on="1"/>
        <pt x="191" y="154" on="0"/>
        <pt x="170" y="163" on="1"/>
        <pt x="157" y="154" on="0"/>
        <pt x="137" y="125" on="0"/>
        <pt x="137" y="108" on="1"/>
        <pt x="137" y="83" on="0"/>
        <pt x="175" y="59" on="0"/>
        <pt x="230" y="53" on="1"/>
        <pt x="277" y="47" on="0"/>
        <pt x="342" y="29" on="0"/>
        <pt x="381" y="2" on="0"/>
        <pt x="398" y="-34" on="0"/>
        <pt x="398" y="-58" on="1"/>
        <pt x="398" y="-99" on="0"/>
        <pt x="358" y="-161" on="0"/>
        <pt x="292" y="-203" on="0"/>
        <pt x="208" y="-224" on="0"/>
        <pt x="163" y="-224" on="1"/>
        <pt x="133" y="-224" on="0"/>
        <pt x="70" y="-212" on="0"/>
        <pt x="18" y="-185" on="0"/>
        <pt x="-15" y="-140" on="0"/>
        <pt x="-15" y="-107" on="1"/>
        <pt x="-15" y="-83" on="0"/>
        <pt x="6" y="-43" on="0"/>
        <pt x="40" y="-10" on="0"/>
        <pt x="82" y="15" on="0"/>
        <pt x="102" y="25" on="1"/>
        <pt x="102" y="27" on="1"/>
        <pt x="88" y="38" on="0"/>
        <pt x="71" y="72" on="0"/>
        <pt x="71" y="92" on="1"/>
        <pt x="71" y="117" on="0"/>
        <pt x="102" y="163" on="0"/>
        <pt x="129" y="182" on="1"/>
        <pt x="129" y="186" on="1"/>
        <pt x="107" y="205" on="0"/>
        <pt x="79" y="259" on="0"/>
      </contour>
      <contour>
        <pt x="144" y="3" on="1"/>
        <pt x="129" y="-4" on="0"/>
        <pt x="97" y="-24" on="0"/>
        <pt x="70" y="-49" on="0"/>
        <pt x="53" y="-78" on="0"/>
        <pt x="53" y="-93" on="1"/>
        <pt x="53" y="-134" on="0"/>
        <pt x="120" y="-171" on="0"/>
        <pt x="170" y="-171" on="1"/>
        <pt x="203" y="-171" on="0"/>
        <pt x="258" y="-157" on="0"/>
        <pt x="299" y="-131" on="0"/>
        <pt x="322" y="-97" on="0"/>
        <pt x="322" y="-77" on="1"/>
        <pt x="322" y="-45" on="0"/>
        <pt x="263" y="-15" on="0"/>
        <pt x="203" y="-8" on="1"/>
        <pt x="191" y="-6" on="0"/>
        <pt x="160" y="-1" on="0"/>
      </contour>
      <contour>
        <pt x="277" y="442" on="1"/>
        <pt x="250" y="442" on="0"/>
        <pt x="203" y="418" on="0"/>
        <pt x="169" y="377" on="0"/>
        <pt x="150" y="325" on="0"/>
        <pt x="150" y="298" on="1"/>
        <pt x="150" y="256" on="0"/>
        <pt x="192" y="206" on="0"/>
        <pt x="228" y="206" on="1"/>
        <pt x="255" y="206" on="0"/>
        <pt x="301" y="230" on="0"/>
        <pt x="335" y="271" on="0"/>
        <pt x="354" y="323" on="0"/>
        <pt x="354" y="350" on="1"/>
        <pt x="354" y="392" on="0"/>
        <pt x="313" y="442" on="0"/>
      </contour>
    </TTGlyph>
    <TTGlyph name="g.supa" xMin="22" yMin="120" xMax="373" yMax="596">
      <contour>
        <pt x="85" y="459" on="1"/>
        <pt x="85" y="488" on="0"/>
        <pt x="106" y="538" on="0"/>
        <pt x="142" y="575" on="0"/>
        <pt x="191" y="596" on="0"/>
        <pt x="220" y="596" on="1"/>
        <pt x="242" y="596" on="0"/>
        <pt x="263" y="588" on="1"/>
        <pt x="373" y="588" on="1"/>
        <pt x="364" y="543" on="1"/>
        <pt x="306" y="543" on="1"/>
        <pt x="312" y="534" on="0"/>
        <pt x="317" y="511" on="0"/>
        <pt x="317" y="500" on="1"/>
        <pt x="317" y="471" on="0"/>
        <pt x="297" y="422" on="0"/>
        <pt x="261" y="386" on="0"/>
        <pt x="211" y="366" on="0"/>
        <pt x="181" y="366" on="1"/>
        <pt x="159" y="366" on="0"/>
        <pt x="148" y="371" on="1"/>
        <pt x="140" y="365" on="0"/>
        <pt x="128" y="348" on="0"/>
        <pt x="128" y="339" on="1"/>
        <pt x="128" y="322" on="0"/>
        <pt x="150" y="307" on="0"/>
        <pt x="188" y="302" on="1"/>
        <pt x="221" y="297" on="0"/>
        <pt x="266" y="285" on="0"/>
        <pt x="292" y="268" on="0"/>
        <pt x="303" y="244" on="0"/>
        <pt x="303" y="228" on="1"/>
        <pt x="303" y="201" on="0"/>
        <pt x="274" y="160" on="0"/>
        <pt x="227" y="133" on="0"/>
        <pt x="167" y="120" on="0"/>
        <pt x="136" y="120" on="1"/>
        <pt x="118" y="120" on="0"/>
        <pt x="78" y="126" on="0"/>
        <pt x="44" y="143" on="0"/>
        <pt x="22" y="172" on="0"/>
        <pt x="22" y="196" on="1"/>
        <pt x="22" y="212" on="0"/>
        <pt x="35" y="237" on="0"/>
        <pt x="56" y="258" on="0"/>
        <pt x="83" y="274" on="0"/>
        <pt x="96" y="280" on="1"/>
        <pt x="96" y="283" on="1"/>
        <pt x="88" y="289" on="0"/>
        <pt x="78" y="311" on="0"/>
        <pt x="78" y="325" on="1"/>
        <pt x="78" y="343" on="0"/>
        <pt x="99" y="372" on="0"/>
        <pt x="117" y="384" on="1"/>
        <pt x="117" y="387" on="1"/>
        <pt x="102" y="401" on="0"/>
        <pt x="85" y="436" on="0"/>
      </contour>
      <contour>
        <pt x="130" y="265" on="1"/>
        <pt x="108" y="255" on="0"/>
        <pt x="73" y="225" on="0"/>
        <pt x="73" y="205" on="1"/>
        <pt x="73" y="181" on="0"/>
        <pt x="111" y="160" on="0"/>
        <pt x="141" y="160" on="1"/>
        <pt x="185" y="160" on="0"/>
        <pt x="246" y="192" on="0"/>
        <pt x="246" y="215" on="1"/>
        <pt x="246" y="235" on="0"/>
        <pt x="209" y="253" on="0"/>
        <pt x="171" y="257" on="1"/>
        <pt x="162" y="258" on="0"/>
        <pt x="144" y="262" on="0"/>
      </contour>
      <contour>
        <pt x="218" y="553" on="1"/>
        <pt x="201" y="553" on="0"/>
        <pt x="171" y="537" on="0"/>
        <pt x="150" y="512" on="0"/>
        <pt x="138" y="479" on="0"/>
        <pt x="138" y="462" on="1"/>
        <pt x="138" y="435" on="0"/>
        <pt x="163" y="405" on="0"/>
        <pt x="186" y="405" on="1"/>
        <pt x="204" y="405" on="0"/>
        <pt x="233" y="421" on="0"/>
        <pt x="255" y="447" on="0"/>
        <pt x="267" y="480" on="0"/>
        <pt x="267" y="497" on="1"/>
        <pt x="267" y="523" on="0"/>
        <pt x="242" y="553" on="0"/>
      </contour>
    </TTGlyph>
    <TTGlyph name="g.sups" xMin="34" yMin="116" xMax="374" yMax="596">
      <contour>
        <pt x="374" y="588" on="1"/>
        <pt x="308" y="258" on="1"/>
        <pt x="294" y="192" on="0"/>
        <pt x="214" y="116" on="0"/>
        <pt x="153" y="116" on="1"/>
        <pt x="124" y="116" on="0"/>
        <pt x="61" y="138" on="0"/>
        <pt x="34" y="161" on="1"/>
        <pt x="60" y="200" on="1"/>
        <pt x="80" y="185" on="0"/>
        <pt x="129" y="163" on="0"/>
        <pt x="155" y="163" on="1"/>
        <pt x="193" y="163" on="0"/>
        <pt x="242" y="215" on="0"/>
        <pt x="253" y="259" on="1"/>
        <pt x="267" y="314" on="1"/>
        <pt x="263" y="314" on="1"/>
        <pt x="238" y="294" on="0"/>
        <pt x="185" y="271" on="0"/>
        <pt x="154" y="271" on="1"/>
        <pt x="111" y="271" on="0"/>
        <pt x="60" y="329" on="0"/>
        <pt x="60" y="383" on="1"/>
        <pt x="60" y="426" on="0"/>
        <pt x="89" y="504" on="0"/>
        <pt x="138" y="562" on="0"/>
        <pt x="202" y="596" on="0"/>
        <pt x="236" y="596" on="1"/>
        <pt x="259" y="596" on="0"/>
        <pt x="299" y="573" on="0"/>
        <pt x="310" y="549" on="1"/>
        <pt x="314" y="549" on="1"/>
        <pt x="328" y="588" on="1"/>
      </contour>
      <contour>
        <pt x="173" y="319" on="1"/>
        <pt x="197" y="319" on="0"/>
        <pt x="250" y="345" on="0"/>
        <pt x="273" y="368" on="1"/>
        <pt x="299" y="502" on="1"/>
        <pt x="285" y="528" on="0"/>
        <pt x="255" y="548" on="0"/>
        <pt x="238" y="548" on="1"/>
        <pt x="215" y="548" on="0"/>
        <pt x="172" y="521" on="0"/>
        <pt x="139" y="478" on="0"/>
        <pt x="119" y="421" on="0"/>
        <pt x="119" y="391" on="1"/>
        <pt x="119" y="354" on="0"/>
        <pt x="150" y="319" on="0"/>
      </contour>
    </TTGlyph>
    <TTGlyph name="gbreve" xMin="-2" yMin="-224" xMax="498" yMax="700">
      <component glyphName="g" x="0" y="0" flags="0x204"/>
      <component glyphName="uni0306" x="208" y="0" flags="0x4"/>
    </TTGlyph>
    <TTGlyph name="gbreve.a" xMin="-15" yMin="-224" xMax="506" yMax="700">
      <component glyphName="g.a" x="0" y="0" flags="0x204"/>
      <component glyphName="uni0306" x="175" y="0" flags="0x4"/>
    </TTGlyph>
    <TTGlyph name="gcaron" xMin="-2" yMin="-224" xMax="498" yMax="712">
      <component glyphName="g" x="0" y="0" flags="0x204"/>
      <component glyphName="uni030C" x="208" y="0" flags="0x4"/>
    </TTGlyph>
    <TTGlyph name="gcaron.a" xMin="-15" yMin="-224" xMax="506" yMax="712">
      <component glyphName="g.a" x="0" y="0" flags="0x204"/>
      <component glyphName="uni030C" x="175" y="0" flags="0x4"/>
    </TTGlyph>
    <TTGlyph name="gcircumflex" xMin="-2" yMin="-224" xMax="498" yMax="712">
      <component glyphName="g" x="0" y="0" flags="0x204"/>
      <component glyphName="uni0302" x="208" y="0" flags="0x4"/>
    </TTGlyph>
    <TTGlyph name="gcircumflex.a" xMin="-15" yMin="-224" xMax="506" yMax="712">
      <component glyphName="g.a" x="0" y="0" flags="0x204"/>
      <component glyphName="uni0302" x="175" y="0" flags="0x4"/>
    </TTGlyph>
    <TTGlyph name="gdotaccent" xMin="-2" yMin="-224" xMax="498" yMax="690">
      <component glyphName="g" x="0" y="0" flags="0x204"/>
      <component glyphName="uni0307" x="208" y="0" flags="0x4"/>
    </TTGlyph>
    <TTGlyph name="gdotaccent.a" xMin="-15" yMin="-224" xMax="506" yMax="690">
      <component glyphName="g.a" x="0" y="0" flags="0x204"/>
      <component glyphName="uni0307" x="175" y="0" flags="0x4"/>
    </TTGlyph>
    <TTGlyph name="germandbls" xMin="31" yMin="-12" xMax="505" yMax="724">
      <contour>
        <pt x="136" y="525" on="1"/>
        <pt x="145" y="566" on="0"/>
        <pt x="181" y="638" on="0"/>
        <pt x="234" y="692" on="0"/>
        <pt x="304" y="724" on="0"/>
        <pt x="346" y="724" on="1"/>
        <pt x="376" y="724" on="0"/>
        <pt x="428" y="708" on="0"/>
        <pt x="467" y="675" on="0"/>
        <pt x="490" y="625" on="0"/>
        <pt x="490" y="592" on="1"/>
        <pt x="490" y="561" on="0"/>
        <pt x="470" y="514" on="0"/>
        <pt x="441" y="476" on="0"/>
        <pt x="407" y="445" on="0"/>
        <pt x="378" y="415" on="0"/>
        <pt x="358" y="383" on="0"/>
        <pt x="358" y="363" on="1"/>
        <pt x="358" y="343" on="0"/>
        <pt x="380" y="313" on="0"/>
        <pt x="412" y="285" on="0"/>
        <pt x="451" y="256" on="0"/>
        <pt x="483" y="221" on="0"/>
        <pt x="505" y="176" on="0"/>
        <pt x="505" y="145" on="1"/>
        <pt x="505" y="112" on="0"/>
        <pt x="480" y="55" on="0"/>
        <pt x="435" y="13" on="0"/>
        <pt x="375" y="-12" on="0"/>
        <pt x="339" y="-12" on="1"/>
        <pt x="302" y="-12" on="0"/>
        <pt x="230" y="13" on="0"/>
        <pt x="199" y="38" on="1"/>
        <pt x="234" y="89" on="1"/>
        <pt x="257" y="70" on="0"/>
        <pt x="308" y="48" on="0"/>
        <pt x="339" y="48" on="1"/>
        <pt x="378" y="48" on="0"/>
        <pt x="433" y="97" on="0"/>
        <pt x="433" y="135" on="1"/>
        <pt x="433" y="159" on="0"/>
        <pt x="411" y="195" on="0"/>
        <pt x="377" y="225" on="0"/>
        <pt x="339" y="253" on="0"/>
        <pt x="305" y="285" on="0"/>
        <pt x="283" y="323" on="0"/>
        <pt x="283" y="349" on="1"/>
        <pt x="283" y="375" on="0"/>
        <pt x="303" y="416" on="0"/>
        <pt x="332" y="450" on="0"/>
        <pt x="367" y="482" on="0"/>
        <pt x="396" y="517" on="0"/>
        <pt x="416" y="557" on="0"/>
        <pt x="416" y="584" on="1"/>
        <pt x="416" y="618" on="0"/>
        <pt x="382" y="662" on="0"/>
        <pt x="343" y="662" on="1"/>
        <pt x="317" y="662" on="0"/>
        <pt x="274" y="637" on="0"/>
        <pt x="240" y="595" on="0"/>
        <pt x="216" y="539" on="0"/>
        <pt x="209" y="507" on="1"/>
        <pt x="107" y="0" on="1"/>
        <pt x="31" y="0" on="1"/>
      </contour>
    </TTGlyph>
    <TTGlyph name="grave" xMin="254" yMin="571" xMax="388" yMax="712">
      <component glyphName="uni0300" x="216" y="0" flags="0x4"/>
    </TTGlyph>
    <TTGlyph name="greater" xMin="48" yMin="135" xMax="460" yMax="526">
      <contour>
        <pt x="48" y="201" on="1"/>
        <pt x="252" y="280" on="1"/>
        <pt x="376" y="329" on="1"/>
        <pt x="376" y="333" on="1"/>
        <pt x="252" y="381" on="1"/>
        <pt x="48" y="461" on="1"/>
        <pt x="48" y="526" on="1"/>
        <pt x="460" y="359" on="1"/>
        <pt x="460" y="301" on="1"/>
        <pt x="48" y="135" on="1"/>
      </contour>
    </TTGlyph>
    <TTGlyph name="greaterequal" xMin="48" yMin="0" xMax="460" yMax="526">
      <contour>
        <pt x="48" y="0" on="1"/>
        <pt x="48" y="58" on="1"/>
        <pt x="458" y="58" on="1"/>
        <pt x="458" y="0" on="1"/>
      </contour>
      <contour>
        <pt x="48" y="221" on="1"/>
        <pt x="251" y="295" on="1"/>
        <pt x="377" y="338" on="1"/>
        <pt x="377" y="342" on="1"/>
        <pt x="251" y="386" on="1"/>
        <pt x="48" y="461" on="1"/>
        <pt x="48" y="526" on="1"/>
        <pt x="460" y="373" on="1"/>
        <pt x="460" y="308" on="1"/>
        <pt x="48" y="155" on="1"/>
      </contour>
    </TTGlyph>
    <TTGlyph name="guillemotleft" xMin="40" yMin="67" xMax="394" yMax="435">
      <component glyphName="guilsinglleft" x="0" y="0" flags="0x4"/>
      <component glyphName="guilsinglleft" x="159" y="0" flags="0x4"/>
    </TTGlyph>
    <TTGlyph name="guillemotright" xMin="23" yMin="67" xMax="377" yMax="435">
      <component glyphName="guilsinglright" x="0" y="0" flags="0x4"/>
      <component glyphName="guilsinglright" x="159" y="0" flags="0x4"/>
    </TTGlyph>
    <TTGlyph name="guilsinglleft" xMin="40" yMin="67" xMax="235" yMax="435">
      <contour>
        <pt x="40" y="225" on="1"/>
        <pt x="51" y="287" on="1"/>
        <pt x="207" y="435" on="1"/>
        <pt x="235" y="406" on="1"/>
        <pt x="93" y="250" on="1"/>
        <pt x="178" y="89" on="1"/>
        <pt x="143" y="67" on="1"/>
      </contour>
    </TTGlyph>
    <TTGlyph name="guilsinglright" xMin="23" yMin="67" xMax="218" yMax="435">
      <contour>
        <pt x="218" y="277" on="1"/>
        <pt x="207" y="215" on="1"/>
        <pt x="51" y="67" on="1"/>
        <pt x="23" y="96" on="1"/>
        <pt x="164" y="252" on="1"/>
        <pt x="79" y="413" on="1"/>
        <pt x="115" y="435" on="1"/>
      </contour>
    </TTGlyph>
    <TTGlyph name="h" xMin="31" yMin="0" xMax="472" yMax="712">
      <contour>
        <pt x="173" y="712" on="1"/>
        <pt x="250" y="712" on="1"/>
        <pt x="202" y="477" on="1"/>
        <pt x="186" y="416" on="1"/>
        <pt x="190" y="416" on="1"/>
        <pt x="232" y="451" on="0"/>
        <pt x="312" y="498" on="0"/>
        <pt x="357" y="498" on="1"/>
        <pt x="419" y="498" on="0"/>
        <pt x="472" y="434" on="0"/>
        <pt x="472" y="377" on="1"/>
        <pt x="472" y="360" on="0"/>
        <pt x="469" y="330" on="0"/>
        <pt x="464" y="310" on="1"/>
        <pt x="402" y="0" on="1"/>
        <pt x="326" y="0" on="1"/>
        <pt x="386" y="300" on="1"/>
        <pt x="390" y="320" on="0"/>
        <pt x="394" y="344" on="0"/>
        <pt x="394" y="357" on="1"/>
        <pt x="394" y="394" on="0"/>
        <pt x="360" y="432" on="0"/>
        <pt x="322" y="432" on="1"/>
        <pt x="293" y="432" on="0"/>
        <pt x="222" y="390" on="0"/>
        <pt x="176" y="344" on="1"/>
        <pt x="107" y="0" on="1"/>
        <pt x="31" y="0" on="1"/>
      </contour>
    </TTGlyph>
    <TTGlyph name="h.sups" xMin="56" yMin="266" xMax="356" yMax="735">
      <contour>
        <pt x="149" y="735" on="1"/>
        <pt x="207" y="735" on="1"/>
        <pt x="183" y="616" on="1"/>
        <pt x="166" y="545" on="1"/>
        <pt x="170" y="545" on="1"/>
        <pt x="195" y="566" on="0"/>
        <pt x="249" y="596" on="0"/>
        <pt x="279" y="596" on="1"/>
        <pt x="321" y="596" on="0"/>
        <pt x="356" y="552" on="0"/>
        <pt x="356" y="514" on="1"/>
        <pt x="356" y="503" on="0"/>
        <pt x="352" y="481" on="0"/>
        <pt x="350" y="471" on="1"/>
        <pt x="309" y="266" on="1"/>
        <pt x="251" y="266" on="1"/>
        <pt x="291" y="463" on="1"/>
        <pt x="293" y="475" on="0"/>
        <pt x="296" y="491" on="0"/>
        <pt x="296" y="499" on="1"/>
        <pt x="296" y="546" on="0"/>
        <pt x="255" y="546" on="1"/>
        <pt x="214" y="546" on="0"/>
        <pt x="158" y="489" on="1"/>
        <pt x="113" y="266" on="1"/>
        <pt x="56" y="266" on="1"/>
      </contour>
    </TTGlyph>
    <TTGlyph name="hbar" xMin="31" yMin="0" xMax="468" yMax="712">
      <contour>
        <pt x="186" y="396" on="1"/>
        <pt x="228" y="431" on="0"/>
        <pt x="308" y="478" on="0"/>
        <pt x="353" y="478" on="1"/>
        <pt x="415" y="478" on="0"/>
        <pt x="468" y="414" on="0"/>
        <pt x="468" y="357" on="1"/>
        <pt x="468" y="340" on="0"/>
        <pt x="465" y="310" on="0"/>
        <pt x="460" y="290" on="1"/>
        <pt x="402" y="0" on="1"/>
        <pt x="326" y="0" on="1"/>
        <pt x="382" y="280" on="1"/>
        <pt x="386" y="300" on="0"/>
        <pt x="390" y="324" on="0"/>
        <pt x="390" y="337" on="1"/>
        <pt x="390" y="374" on="0"/>
        <pt x="356" y="412" on="0"/>
        <pt x="318" y="412" on="1"/>
        <pt x="289" y="412" on="0"/>
        <pt x="218" y="370" on="0"/>
        <pt x="172" y="324" on="1"/>
        <pt x="107" y="0" on="1"/>
        <pt x="31" y="0" on="1"/>
        <pt x="145" y="572" on="1"/>
        <pt x="75" y="572" on="1"/>
        <pt x="82" y="612" on="1"/>
        <pt x="154" y="617" on="1"/>
        <pt x="173" y="712" on="1"/>
        <pt x="250" y="712" on="1"/>
        <pt x="231" y="617" on="1"/>
        <pt x="406" y="617" on="1"/>
        <pt x="396" y="572" on="1"/>
        <pt x="221" y="572" on="1"/>
        <pt x="198" y="457" on="1"/>
        <pt x="182" y="396" on="1"/>
      </contour>
    </TTGlyph>
    <TTGlyph name="hcircumflex" xMin="31" yMin="0" xMax="472" yMax="863">
      <component glyphName="h" x="0" y="0" flags="0x204"/>
      <component glyphName="uni0302.cap" x="91" y="47" flags="0x4"/>
    </TTGlyph>
    <TTGlyph name="hungarumlaut" xMin="229" yMin="571" xMax="543" yMax="713">
      <component glyphName="uni030B" x="216" y="0" flags="0x4"/>
    </TTGlyph>
    <TTGlyph name="hyphen" xMin="35" yMin="222" xMax="266" yMax="281">
      <contour>
        <pt x="47" y="281" on="1"/>
        <pt x="266" y="281" on="1"/>
        <pt x="253" y="222" on="1"/>
        <pt x="35" y="222" on="1"/>
      </contour>
    </TTGlyph>
    <TTGlyph name="i" xMin="31" yMin="0" xMax="251" yMax="690">
      <contour>
        <pt x="128" y="486" on="1"/>
        <pt x="205" y="486" on="1"/>
        <pt x="107" y="0" on="1"/>
        <pt x="31" y="0" on="1"/>
      </contour>
      <contour>
        <pt x="193" y="587" on="1"/>
        <pt x="173" y="587" on="0"/>
        <pt x="144" y="610" on="0"/>
        <pt x="144" y="632" on="1"/>
        <pt x="144" y="657" on="0"/>
        <pt x="179" y="690" on="0"/>
        <pt x="202" y="690" on="1"/>
        <pt x="222" y="690" on="0"/>
        <pt x="251" y="666" on="0"/>
        <pt x="251" y="644" on="1"/>
        <pt x="251" y="619" on="0"/>
        <pt x="216" y="587" on="0"/>
      </contour>
    </TTGlyph>
    <TTGlyph name="i.sups" xMin="56" yMin="266" xMax="207" yMax="726">
      <contour>
        <pt x="119" y="588" on="1"/>
        <pt x="177" y="588" on="1"/>
        <pt x="113" y="266" on="1"/>
        <pt x="56" y="266" on="1"/>
      </contour>
      <contour>
        <pt x="165" y="651" on="1"/>
        <pt x="151" y="651" on="0"/>
        <pt x="129" y="668" on="0"/>
        <pt x="129" y="685" on="1"/>
        <pt x="129" y="701" on="0"/>
        <pt x="154" y="726" on="0"/>
        <pt x="171" y="726" on="1"/>
        <pt x="185" y="726" on="0"/>
        <pt x="207" y="708" on="0"/>
        <pt x="207" y="692" on="1"/>
        <pt x="207" y="675" on="0"/>
        <pt x="182" y="651" on="0"/>
      </contour>
    </TTGlyph>
    <TTGlyph name="iacute" xMin="31" yMin="0" xMax="315" yMax="712">
      <component glyphName="dotlessi" x="0" y="0" flags="0x204"/>
      <component glyphName="uni0301" x="70" y="0" flags="0x4"/>
    </TTGlyph>
    <TTGlyph name="icircumflex" xMin="31" yMin="0" xMax="305" yMax="712">
      <component glyphName="dotlessi" x="0" y="0" flags="0x204"/>
      <component glyphName="uni0302" x="70" y="0" flags="0x4"/>
    </TTGlyph>
    <TTGlyph name="idieresis" xMin="31" yMin="0" xMax="324" yMax="684">
      <component glyphName="dotlessi" x="0" y="0" flags="0x204"/>
      <component glyphName="uni0308" x="70" y="0" flags="0x4"/>
    </TTGlyph>
    <TTGlyph name="igrave" xMin="31" yMin="0" xMax="242" yMax="712">
      <component glyphName="dotlessi" x="0" y="0" flags="0x204"/>
      <component glyphName="uni0300" x="70" y="0" flags="0x4"/>
    </TTGlyph>
    <TTGlyph name="imacron" xMin="31" yMin="0" xMax="315" yMax="655">
      <component glyphName="dotlessi" x="0" y="0" flags="0x204"/>
      <component glyphName="uni0304" x="70" y="0" flags="0x4"/>
    </TTGlyph>
</ttFont>
